<svg width="248" height="385" viewBox="0 0 248 385" fill="none" xmlns="http://www.w3.org/2000/svg">
<g opacity="0.2">
<path d="M123.66 384.955C191.956 384.955 247.32 379.128 247.32 371.939C247.32 364.75 191.956 358.923 123.66 358.923C55.3645 358.923 1.78814e-07 364.75 1.78814e-07 371.939C1.78814e-07 379.128 55.3645 384.955 123.66 384.955Z" fill="#000072"/>
</g>
<path d="M140.96 366.031C138.045 363.216 133.009 361.26 127.172 360.933C129.843 341.67 129.88 317.163 129.88 316.493C129.728 316.642 125.136 316.222 125.136 316.222C125.136 316.222 120.589 316.641 120.437 316.493C120.437 317.164 120.474 341.698 123.15 360.966C117.553 361.384 112.747 363.307 109.927 366.031C109.094 366.836 109.094 368.231 109.927 369.035C113.126 372.125 118.878 374.187 125.443 374.187C132.009 374.187 137.761 372.125 140.96 369.035C141.793 368.231 141.793 366.835 140.96 366.031Z" fill="#8B93A1"/>
<g opacity="0.3">
<path d="M129.878 316.493C129.878 316.774 129.873 321.401 129.653 328.112L120.613 326.561C120.442 320.7 120.437 316.754 120.437 316.493C120.589 316.641 125.136 316.222 125.136 316.222C125.136 316.222 129.726 316.641 129.878 316.493Z" fill="#000072"/>
</g>
<g opacity="0.3">
<path d="M140.959 369.033C137.76 372.124 132.007 374.187 125.443 374.187C118.879 374.187 113.126 372.124 109.927 369.033C109.092 368.229 109.092 366.837 109.927 366.034C110.044 365.921 110.166 365.808 110.289 365.701C117.194 368.562 129.008 371.607 141.262 366.407C141.78 367.221 141.677 368.342 140.959 369.033Z" fill="#000072"/>
</g>
<path d="M125.443 375.885C118.671 375.885 112.46 373.791 108.829 370.284C108.1 369.58 107.682 368.578 107.682 367.533C107.682 366.489 108.1 365.486 108.829 364.782C111.686 362.023 116.17 360.119 121.311 359.449C118.847 340.301 118.817 316.736 118.817 316.493C118.817 315.817 119.2 315.206 119.792 314.936C120.101 314.796 120.436 314.762 120.752 314.828C120.765 314.828 120.778 314.828 120.792 314.828C121.397 314.828 123.363 314.681 124.993 314.53C125.087 314.521 125.182 314.521 125.276 314.53C126.964 314.684 129.002 314.823 129.564 314.828C129.88 314.762 130.215 314.796 130.524 314.936C131.116 315.206 131.499 315.817 131.499 316.493C131.499 316.736 131.469 340.248 129.014 359.384C134.395 359.983 139.082 361.909 142.057 364.782C142.786 365.486 143.204 366.489 143.204 367.533C143.204 368.578 142.786 369.58 142.057 370.284C138.427 373.791 132.216 375.885 125.443 375.885ZM122.068 318.178C122.126 324.095 122.49 344.426 124.753 360.722C124.818 361.189 124.694 361.663 124.412 362.031C124.13 362.399 123.714 362.627 123.265 362.66C118.204 363.038 113.628 364.765 111.025 367.28C110.935 367.366 110.922 367.476 110.922 367.533C110.922 367.591 110.935 367.701 111.024 367.786C114.027 370.688 119.552 372.49 125.443 372.49C131.334 372.49 136.859 370.688 139.862 367.787C139.952 367.701 139.965 367.591 139.965 367.533C139.965 367.476 139.952 367.366 139.862 367.28C139.862 367.28 139.862 367.28 139.862 367.28C137.154 364.663 132.377 362.925 127.085 362.629C126.631 362.604 126.207 362.379 125.919 362.009C125.63 361.641 125.503 361.162 125.569 360.689C127.827 344.4 128.19 324.092 128.248 318.179C127.49 318.133 126.486 318.049 125.136 317.926C123.809 318.048 122.818 318.131 122.068 318.178ZM121.54 315.25C121.54 315.25 121.54 315.25 121.541 315.25C121.54 315.25 121.54 315.25 121.54 315.25ZM128.777 315.25C128.776 315.25 128.776 315.25 128.776 315.25C128.776 315.25 128.776 315.25 128.777 315.25ZM128.784 315.242C128.783 315.243 128.782 315.244 128.781 315.245C128.782 315.244 128.784 315.243 128.784 315.242ZM128.786 315.24C128.786 315.241 128.785 315.242 128.784 315.242C128.785 315.241 128.786 315.241 128.786 315.24ZM121.53 315.24C121.531 315.241 121.531 315.242 121.532 315.242C121.531 315.241 121.531 315.241 121.53 315.24ZM128.916 315.129C128.873 315.162 128.829 315.199 128.786 315.24C128.828 315.201 128.871 315.163 128.916 315.129ZM121.401 315.129C121.445 315.163 121.489 315.201 121.53 315.24C121.487 315.199 121.444 315.162 121.401 315.129Z" fill="#000072"/>
<path d="M104.687 348.339C117.286 350.966 130.046 350.944 142.941 348.67C144.166 348.454 144.961 347.161 144.615 345.911L144.594 345.837C144.017 343.863 142.137 342.636 140.172 342.791C128.696 343.693 116.973 343.582 105.053 342.666L104.687 348.339Z" fill="#8B93A1"/>
<path d="M124.315 352.032C117.517 352.032 110.852 351.356 104.37 350.004C103.572 349.838 103.015 349.076 103.07 348.224L103.437 342.552C103.466 342.101 103.665 341.681 103.991 341.385C104.317 341.088 104.741 340.942 105.171 340.973C117.411 341.913 129.146 341.954 140.051 341.098C142.802 340.876 145.362 342.666 146.143 345.34L146.167 345.422C146.463 346.492 146.308 347.632 145.747 348.568C145.181 349.512 144.256 350.159 143.21 350.344C136.828 351.47 130.517 352.032 124.315 352.032ZM106.4 346.954C117.991 349.183 130.186 349.197 142.672 346.996C142.858 346.963 142.959 346.834 143.004 346.761C143.054 346.678 143.104 346.545 143.059 346.383L143.043 346.327C142.703 345.164 141.551 344.386 140.293 344.484C129.714 345.316 118.373 345.315 106.56 344.48L106.4 346.954Z" fill="#000072"/>
<path d="M71.5984 264.27C71.5984 264.27 65.0864 270.583 54.8303 268.877C54.8303 268.877 45.5509 265.294 40.1786 271.094C40.1786 271.094 39.6902 291.909 76.9706 297.028C76.9706 297.028 88.5291 286.791 87.8781 279.967C87.2269 273.142 71.5984 264.27 71.5984 264.27Z" fill="white"/>
<g opacity="0.3">
<path d="M87.8781 279.967C87.7581 278.709 87.1271 277.382 86.1817 276.054C86.0225 276.44 85.8439 276.828 85.6487 277.216C81.6449 285.174 72.7595 288.911 64.4783 286.541C50.01 282.399 43.8502 275.407 41.2274 270.115C40.8647 270.407 40.514 270.732 40.1786 271.094C40.1786 271.094 39.6902 291.909 76.9706 297.028C76.9706 297.028 88.5291 286.791 87.8781 279.967Z" fill="#000072"/>
</g>
<path d="M76.9708 298.726C76.9008 298.726 76.8306 298.721 76.7605 298.711C60.8753 296.53 49.6302 291.316 43.3379 283.213C38.4779 276.955 38.5533 271.29 38.5591 271.052C38.5692 270.626 38.7322 270.218 39.0163 269.912C44.7059 263.767 53.8458 266.727 55.2269 267.223C64.5181 268.702 70.4391 263.081 70.4982 263.024C71.006 262.53 71.7586 262.431 72.3697 262.777C74.0466 263.729 88.7738 272.294 89.49 279.798C90.2051 287.294 79.2664 297.218 78.0166 298.324C77.7223 298.585 77.3517 298.726 76.9708 298.726ZM41.8397 271.782C41.9927 273.268 42.7052 277.119 46.0216 281.287C49.9551 286.23 58.4231 292.631 76.463 295.243C79.7843 292.171 86.7046 284.73 86.2659 280.136C85.8762 276.049 77.5331 269.741 71.766 266.309C69.5094 268.071 63.3254 272.006 54.5762 270.553C54.4718 270.536 54.3695 270.508 54.2703 270.47C54.1928 270.44 46.4799 267.566 41.8397 271.782Z" fill="#000072"/>
<path d="M109.693 323.046L90.32 330.127C91.8664 334.477 90.4826 345.226 88.3665 350.515C86.25 355.803 93.1688 356.145 93.1688 356.145C107.983 349.832 115.309 330.979 115.309 330.979L109.693 323.046Z" fill="white"/>
<g opacity="0.3">
<path d="M109.693 323.046L103.984 325.132C106.825 329.145 107.067 334.582 104.537 338.817C101.403 344.062 96.3324 350.826 89.3044 354.902C90.8466 356.028 93.1688 356.145 93.1688 356.145C107.983 349.832 115.309 330.979 115.309 330.979L109.693 323.046Z" fill="#000072"/>
</g>
<path d="M93.1688 357.843C93.1435 357.843 93.1181 357.842 93.0923 357.841C92.6425 357.819 88.6474 357.546 87.01 354.829C86.4272 353.861 85.93 352.214 86.8724 349.858C88.8489 344.919 90.1646 334.553 88.8019 330.719C88.6501 330.292 88.6685 329.818 88.8541 329.405C89.0392 328.992 89.3756 328.674 89.7865 328.524L109.159 321.443C109.83 321.2 110.572 321.438 110.994 322.035L116.61 329.968C116.948 330.444 117.023 331.071 116.81 331.62C116.5 332.417 109.051 351.21 93.779 357.718C93.5848 357.8 93.3777 357.843 93.1688 357.843ZM92.2745 331.211C93.317 336.83 91.7197 346.523 89.8602 351.171C89.3724 352.39 89.6561 352.861 89.7495 353.015C90.2685 353.876 91.9428 354.304 92.9094 354.42C104.924 349.083 111.839 334.842 113.446 331.196L109.101 325.06L92.2745 331.211Z" fill="#000072"/>
<path d="M175.137 297.197C175.137 297.197 170.907 292.693 163.059 291.413C158.497 290.666 152.715 291.009 145.833 293.957C127.114 301.977 118.323 295.492 118.323 295.492L117.927 294.955C117.927 294.955 96.5062 283.208 91.7852 311.189L111.985 316.021L111.998 316.176L112.462 316.135C143.719 325.01 170.414 318.694 170.414 318.694C178.067 313.237 175.137 297.197 175.137 297.197Z" fill="#7BA2FF"/>
<g opacity="0.3">
<path d="M140.298 314.771C138.205 314.512 136.441 314.19 134.956 313.829C131.465 312.979 131.364 307.787 134.83 306.831C143.247 304.511 151.883 298.567 163.415 295.151C168.171 293.742 171.99 294.864 174.989 297.049C174.206 296.284 170.09 292.559 163.059 291.413C158.497 290.666 152.715 291.009 145.833 293.957C127.113 301.977 118.322 295.492 118.322 295.492L117.927 294.955C117.927 294.955 96.5061 283.208 91.7851 311.189L111.985 316.021L111.998 316.176L112.462 316.135C143.719 325.01 170.414 318.694 170.414 318.694C172.793 316.998 174.148 314.279 174.888 311.337C167.852 316.131 152.453 316.278 140.298 314.771Z" fill="#000072"/>
</g>
<path d="M147.322 322.601C137.501 322.601 125.344 321.518 112.314 317.851L112.133 317.867C111.733 317.902 111.34 317.782 111.024 317.532L91.4243 312.844C90.5826 312.643 90.0395 311.785 90.1897 310.893C91.7707 301.523 95.3603 295.336 100.858 292.503C109.062 288.278 118.289 293.238 118.678 293.451C118.885 293.564 119.067 293.724 119.209 293.918L119.426 294.212C120.699 294.974 129.078 299.301 145.221 292.385C151.508 289.691 157.595 288.798 163.309 289.736C171.59 291.086 176.103 295.806 176.292 296.006C176.516 296.245 176.668 296.548 176.728 296.877C176.856 297.577 179.761 314.083 171.325 320.098C171.157 320.218 170.969 320.303 170.77 320.35C170.129 320.502 160.99 322.601 147.322 322.601ZM112.58 314.441C112.683 314.45 112.785 314.467 112.885 314.496C141.625 322.656 166.707 317.756 169.75 317.106C174.817 313.15 174.345 302.541 173.638 298.062C172.526 297.06 168.777 294.064 162.81 293.09C157.683 292.251 152.18 293.071 146.447 295.529C127.127 303.804 117.778 297.167 117.39 296.88C117.257 296.783 117.139 296.664 117.04 296.529L116.877 296.309C115.35 295.567 108.255 292.465 102.27 295.559C98.0565 297.739 95.1688 302.56 93.6743 309.899L112.346 314.365C112.426 314.385 112.505 314.41 112.58 314.441Z" fill="#000072"/>
<path d="M163.088 291.229L163.059 291.413C158.498 290.666 152.715 291.009 145.834 293.957C127.114 301.977 118.323 295.492 118.323 295.492L117.927 294.955L113.273 298.732L112.95 298.737C113.004 300.841 112.789 303.257 111.808 304.961L111.104 305.023L111.998 316.175L112.623 323.986C112.623 323.986 101.552 329.442 90.1573 331.49C90.1573 331.49 73.3713 315.73 77.4592 294.299C77.8402 292.288 78.5092 290.584 79.4128 289.151C74.0065 287.108 65.479 281.166 66.7147 264.101C66.7147 264.101 89.8302 232.879 125.321 235.776C160.812 238.678 184.089 260.007 163.088 291.229Z" fill="#4D4F9E"/>
<g opacity="0.6">
<path d="M66.7145 264.101C66.6266 265.345 66.5875 266.527 66.5925 267.653C72.1557 261.449 85.7168 248.424 104.732 244.003C103.672 242.304 102.669 240.569 101.727 238.798C79.9351 246.251 66.7145 264.101 66.7145 264.101Z" fill="white"/>
</g>
<g opacity="0.3">
<path d="M125.321 235.776C122.41 235.541 119.588 235.531 116.852 235.715C123.895 236.288 131.138 238.12 138.263 241.493C145.092 244.723 149.807 249.599 152.336 254.832C130.654 250.281 78.273 250.28 78.273 250.28C78.273 250.28 118.351 255.244 143.054 262.417C150.981 264.719 151.404 276.311 143.683 279.283C142.538 279.723 141.302 280.085 139.974 280.358C135.024 281.375 129.896 280.806 125.178 278.936C114.665 274.768 102.78 269.269 99.925 264.782C99.925 264.782 99.1381 268.758 100.283 273.346C94.7591 272.869 90.3236 273.793 86.9454 275.13C78.2254 278.582 68.7246 272.498 68.0064 262.758C68.0003 262.675 67.9945 262.592 67.9892 262.509C67.1492 263.513 66.7145 264.101 66.7145 264.101C65.4789 281.166 74.0061 287.108 79.4126 289.151C78.8591 290.029 78.4059 291.022 78.0407 292.112C80.394 290.797 83.6622 289.689 88.2036 289.094C105.786 286.791 109.204 294.98 109.204 294.98C109.204 294.98 104.198 292.165 99.6808 293.573C99.6808 293.573 105.175 295.108 106.884 303.17C107.227 304.787 107.651 306.454 107.81 308.13C109.204 322.876 90.3939 325.326 86.6829 327.559C88.6669 330.09 90.1571 331.49 90.1571 331.49C101.551 329.442 112.623 323.986 112.623 323.986L111.998 316.176L111.104 305.023L111.808 304.961C112.789 303.257 113.004 300.841 112.95 298.737L113.273 298.732L117.927 294.955L118.323 295.492C118.323 295.492 127.114 301.977 145.834 293.957C152.715 291.009 158.498 290.666 163.059 291.413L163.088 291.229C184.089 260.007 160.812 238.678 125.321 235.776Z" fill="#000072"/>
</g>
<path d="M90.1571 333.188C89.7616 333.188 89.3756 333.036 89.076 332.754C88.3626 332.084 71.6499 316.093 75.8708 293.967C76.1408 292.539 76.5547 291.209 77.1058 289.993C71.4311 287.244 63.9043 280.467 65.0993 263.972C65.123 263.641 65.2401 263.323 65.4346 263.06C65.6766 262.733 71.4838 254.963 81.7839 247.458C91.3204 240.509 106.63 232.551 125.447 234.084C147.7 235.904 164.483 244.788 170.343 257.851C174.804 267.796 172.82 279.569 164.606 291.916C164.373 292.709 163.608 293.219 162.809 293.09C157.683 292.252 152.181 293.071 146.447 295.529C129.237 302.9 119.939 298.439 117.839 297.174L114.572 299.824C114.52 302.32 114.057 304.34 113.194 305.839C113.096 306.008 112.973 306.156 112.83 306.278L114.237 323.844C114.294 324.551 113.925 325.221 113.312 325.523C112.852 325.749 101.91 331.1 90.4307 333.163C90.3396 333.179 90.2484 333.188 90.1571 333.188ZM68.2946 264.755C67.3849 279.593 74.1153 285.345 79.962 287.554C80.4292 287.731 80.7936 288.122 80.9502 288.616C81.1063 289.11 81.0378 289.652 80.764 290.087C79.9524 291.374 79.375 292.903 79.048 294.63C75.6097 312.657 87.8905 326.738 90.686 329.667C99.4815 327.958 108.031 324.252 110.913 322.93L109.49 305.165C109.454 304.716 109.59 304.271 109.867 303.926C110.098 303.641 110.411 303.445 110.756 303.365C111.182 302.235 111.379 300.672 111.33 298.783C111.319 298.33 111.481 297.89 111.781 297.563C112.024 297.296 112.342 297.123 112.684 297.063L116.935 293.613C117.275 293.337 117.708 293.214 118.133 293.271C118.559 293.328 118.947 293.561 119.209 293.918L119.426 294.212C120.699 294.974 129.078 299.301 145.221 292.385C151.106 289.863 156.814 288.921 162.21 289.579C169.505 278.433 171.305 267.975 167.411 259.296C162.054 247.352 146.272 239.193 125.195 237.469C93.134 234.854 71.0968 261.218 68.2946 264.755Z" fill="#000072"/>
<path d="M78.0823 288.231C79.3924 285.934 81.4417 284.11 83.6745 282.96C85.9199 281.802 88.3104 281.214 90.6636 280.925C93.024 280.647 95.3641 280.676 97.667 280.866C99.9699 281.058 102.241 281.392 104.48 281.852C108.959 282.758 113.312 284.094 117.574 285.644C119.706 286.417 121.817 287.245 123.893 288.157C125.97 289.063 128.034 290.001 130.044 291.055C125.797 289.528 121.488 288.241 117.163 287.095C114.998 286.53 112.822 286.029 110.639 285.598C108.457 285.165 106.271 284.785 104.081 284.514C99.7128 283.963 95.2929 283.799 91.11 284.457C86.953 285.111 83.0226 286.743 80.7426 290.07C80.229 290.82 79.2326 290.992 78.517 290.453C77.8398 289.944 77.6572 288.981 78.0748 288.244L78.0823 288.231Z" fill="#000072"/>
<path d="M109.537 305.453L109.244 297.673C109.243 297.66 109.253 297.649 109.266 297.649C109.275 297.648 109.283 297.653 109.287 297.662L112.671 304.592C113.089 305.447 112.766 306.495 111.95 306.932C111.135 307.369 110.135 307.031 109.718 306.176C109.606 305.947 109.547 305.695 109.537 305.453Z" fill="#000072"/>
<path d="M111.345 298.966L111.406 298.042L111.418 297.117C111.397 296.507 111.361 295.883 111.249 295.28C111.147 294.669 110.983 294.069 110.73 293.499C110.476 292.935 110.144 292.375 109.632 291.973C110.266 292.118 110.854 292.517 111.369 292.977C111.889 293.444 112.342 294.001 112.732 294.598C113.136 295.193 113.462 295.832 113.773 296.488L114.191 297.487L114.556 298.508C114.877 299.408 114.442 300.411 113.583 300.749C112.724 301.086 111.766 300.629 111.445 299.729C111.36 299.491 111.327 299.246 111.342 299.008L111.345 298.966Z" fill="#000072"/>
<path d="M121.71 292.87L118.92 296.296C118.327 297.025 117.282 297.111 116.587 296.49C115.892 295.868 115.809 294.774 116.403 294.045C116.553 293.861 116.739 293.714 116.934 293.613L120.796 291.635C121.174 291.441 121.63 291.605 121.815 292.001C121.952 292.296 121.9 292.635 121.71 292.87Z" fill="#000072"/>
<path d="M150.716 299.256C149.727 300.458 148.551 301.418 147.319 302.298L146.383 302.941C146.064 303.141 145.738 303.329 145.412 303.518C144.766 303.911 144.093 304.244 143.417 304.575C140.704 305.877 137.817 306.734 134.894 307.277L132.693 307.625C131.96 307.745 131.217 307.756 130.48 307.826C129.006 307.99 127.525 307.938 126.052 307.931C125.315 307.952 124.58 307.86 123.846 307.799C123.113 307.734 122.381 307.673 121.651 307.591C120.196 307.379 118.751 307.094 117.319 306.795C117.208 306.772 117.136 306.659 117.158 306.542C117.177 306.442 117.261 306.372 117.355 306.37L117.369 306.369C118.83 306.334 120.275 306.371 121.716 306.375C123.159 306.29 124.596 306.324 126.025 306.199C128.886 306.016 131.716 305.651 134.508 305.101C137.285 304.489 140.023 303.722 142.685 302.711C145.343 301.699 147.958 300.475 150.393 298.894L150.412 298.882C150.523 298.81 150.669 298.846 150.738 298.963C150.794 299.057 150.782 299.176 150.716 299.256Z" fill="#000072"/>
<g opacity="0.6">
<path d="M115.553 346.804C115.553 346.804 128.557 348.019 140.217 345.908Z" fill="white"/>
<path d="M124.517 347.995C119.286 347.995 115.551 347.656 115.482 347.65C115.036 347.608 114.707 347.196 114.747 346.729C114.786 346.261 115.187 345.917 115.625 345.958C115.754 345.97 128.662 347.139 140.079 345.071C140.518 344.996 140.939 345.301 141.015 345.764C141.091 346.225 140.795 346.665 140.355 346.745C134.905 347.731 129.129 347.995 124.517 347.995Z" fill="white"/>
</g>
<path d="M173.02 251.986L173.112 253.815C173.209 255.749 171.788 257.409 169.941 257.485C167.167 257.598 162.398 257.136 154.706 254.63C140.298 249.939 142.333 245.929 142.333 245.929L173.02 251.986Z" fill="#FF5722"/>
<path d="M169.132 259.481C165.215 259.481 160.18 258.488 154.145 256.522C146.293 253.965 141.886 251.218 140.67 248.123C140.026 246.483 140.504 245.318 140.665 244.999C141.053 244.234 141.872 243.823 142.683 243.983L173.37 250.04C174.226 250.209 174.862 250.969 174.907 251.882L175 253.71C175.074 255.188 174.591 256.603 173.64 257.695C172.696 258.779 171.409 259.407 170.014 259.463C169.727 259.476 169.432 259.481 169.132 259.481ZM146.256 248.719C147.827 249.804 150.551 251.203 155.267 252.739C162.849 255.208 167.39 255.605 169.867 255.505C170.244 255.49 170.592 255.319 170.848 255.025C171.112 254.722 171.246 254.329 171.225 253.919L171.211 253.645L146.256 248.719Z" fill="#000072"/>
<g opacity="0.2">
<path d="M173.02 251.986L173.112 253.815C173.209 255.749 171.788 257.409 169.941 257.485C167.167 257.598 162.398 257.136 154.706 254.63C140.298 249.939 142.333 245.929 142.333 245.929L173.02 251.986Z" fill="#000072"/>
</g>
<path d="M92.8433 176.49C92.8433 176.49 78.4358 171.372 72.331 199.523C66.2261 227.674 89.1804 219.228 94.3084 200.546C99.4366 181.864 92.8433 176.49 92.8433 176.49Z" fill="#FF5722"/>
<path d="M77.8774 219.694C77.1449 219.694 76.4272 219.604 75.7327 219.417C72.9905 218.678 66.9894 215.216 70.4878 199.084C73.0417 187.308 77.3518 179.57 83.298 176.082C88.6242 172.957 93.2558 174.545 93.4505 174.614C93.6504 174.685 93.837 174.791 94.0036 174.927C94.3142 175.179 101.545 181.35 96.1246 201.094C93.2912 211.417 84.8974 219.694 77.8774 219.694ZM90.2019 178.101C88.8852 178.101 87.0516 178.395 85.0492 179.595C80.1929 182.504 76.4325 189.548 74.1739 199.962C72.2564 208.803 73.1914 214.641 76.6745 215.58C81.0024 216.75 89.5501 210.718 92.4922 199.999C96.5649 185.162 92.8582 179.458 91.8752 178.272C91.524 178.195 90.945 178.101 90.2019 178.101Z" fill="#000072"/>
<path d="M172.965 192.726C172.804 191.886 172.633 191.072 172.447 190.289C169.651 178.048 164.795 172.767 161.419 170.504C159.661 169.327 158.309 168.964 157.854 168.87C157.845 168.865 157.837 168.862 157.829 168.858C157.837 168.862 157.845 168.866 157.854 168.87C157.747 168.847 157.683 168.838 157.683 168.838L157.674 168.787C114.651 149.055 87.3895 178.793 87.3895 178.793C77.1334 197.475 90.8082 244.477 90.8082 244.477L173.185 251.986C178.391 247.21 174.972 224.859 174.972 224.859L174.855 224.715C175.754 223.901 176.652 223.006 177.536 222.018C188.12 210.246 172.965 192.726 172.965 192.726Z" fill="#636CCB"/>
<g opacity="0.2">
<path d="M175.326 226.335C174.091 226.805 172.826 227.2 171.561 227.507C160.245 230.235 159.024 226.483 158.941 217.27C158.863 208.057 150.721 203.962 150.721 203.962C153.325 202.427 157.559 202.258 157.559 202.258C154.79 197.82 146.814 199.013 146.814 199.013C142.292 184.333 144.372 172.94 167.537 176.083C165.437 172.576 163.219 170.519 161.422 169.316C159.664 168.134 158.311 167.775 157.857 167.678C157.749 167.658 157.686 167.648 157.686 167.648L157.676 167.596C114.654 147.865 87.3921 177.603 87.3921 177.603C77.136 196.285 90.8108 243.287 90.8108 243.287L173.187 250.795C177.285 247.038 176.04 232.405 175.326 226.335ZM93.2543 188.01C96.8358 192.787 102.371 195.858 116.371 193.299C130.372 190.74 121.744 206.095 107.092 202.171C89.9236 197.573 93.2543 188.01 93.2543 188.01ZM149.684 225.907C149.478 226.447 144.908 227.271 144.555 227.603C143.579 233.905 140.902 241.307 127.604 242.265C108.793 243.619 88.0825 242.584 87.4807 210.826C87.3869 205.878 92.2653 202.54 96.5403 204.642C98.7199 205.713 101.48 206.789 104.976 207.801C114.643 210.599 122.905 207.995 128.258 205.204C131.517 203.505 135.433 205.048 136.906 208.536C137.149 209.112 137.422 209.703 137.721 210.3C142.928 208.387 149.44 210.683 150.721 216.502C151.698 220.085 151.149 222.324 149.684 225.907Z" fill="#000072"/>
</g>
<path d="M81.2603 207.399C80.6158 207.399 79.9988 207.11 79.5675 206.608C69.3977 194.748 61.5629 180.085 60.0715 170.12C59.9771 169.491 60.1222 168.861 60.4802 168.347C60.8382 167.832 61.3656 167.494 61.9663 167.395C62.085 167.376 62.2021 167.367 62.3175 167.367C63.4455 167.367 64.391 168.214 64.5666 169.381C65.9118 178.368 73.4718 192.365 82.9519 203.42C83.3585 203.894 83.5641 204.505 83.5319 205.141C83.4998 205.777 83.2329 206.362 82.781 206.788C82.3624 207.182 81.8224 207.399 81.2603 207.399Z" fill="#5A5E8C"/>
<path d="M62.3171 168.216C63.0253 168.216 63.6528 168.755 63.7668 169.513C65.1336 178.646 72.7754 192.822 82.3498 203.988C82.8909 204.619 82.8413 205.59 82.2395 206.156C81.9595 206.42 81.6093 206.55 81.2603 206.55C80.859 206.55 80.4598 206.378 80.1702 206.041C70.0964 194.293 62.3407 179.805 60.8716 169.989C60.7461 169.151 61.2924 168.365 62.0919 168.234C62.1673 168.222 62.2427 168.216 62.3171 168.216ZM62.3176 166.518C62.3171 166.518 62.3171 166.518 62.3171 166.518C62.1594 166.518 62.0001 166.531 61.844 166.556C61.0267 166.691 60.3111 167.149 59.8254 167.847C59.3403 168.545 59.1436 169.399 59.2712 170.252C60.7852 180.365 68.6996 195.204 78.9654 207.176C79.5502 207.857 80.3866 208.248 81.2604 208.248C82.023 208.248 82.7549 207.953 83.3223 207.419C83.9357 206.842 84.2973 206.049 84.3412 205.187C84.3849 204.324 84.1054 203.495 83.555 202.853C74.1693 191.908 66.6905 178.09 65.3674 169.25C65.1289 167.666 63.8464 166.518 62.3176 166.518Z" fill="#000072"/>
<path d="M52.5512 161.007C64.217 161.007 73.674 149.549 73.674 135.415C73.674 121.281 64.217 109.823 52.5512 109.823C40.8854 109.823 31.4283 121.281 31.4283 135.415C31.4283 149.549 40.8854 161.007 52.5512 161.007Z" fill="#4A81FD"/>
<g opacity="0.6">
<path d="M35.0913 137.036C35.0913 122.902 44.5483 111.444 56.2141 111.444C58.0745 111.444 59.8777 111.738 61.5964 112.285C58.8543 110.708 55.7885 109.823 52.5512 109.823C40.8855 109.823 31.4283 121.281 31.4283 135.415C31.4283 147.295 38.1106 157.282 47.1689 160.166C40.0293 156.06 35.0913 147.248 35.0913 137.036Z" fill="white"/>
</g>
<path d="M52.5512 162.422C40.1597 162.422 30.0784 150.307 30.0784 135.415C30.0784 120.524 40.1597 108.409 52.5512 108.409C64.9427 108.409 75.0239 120.524 75.0239 135.415C75.0239 150.307 64.9427 162.422 52.5512 162.422ZM52.5512 111.238C41.6484 111.238 32.7784 122.084 32.7784 135.415C32.7784 148.746 41.6484 159.592 52.5512 159.592C63.454 159.592 72.3239 148.746 72.3239 135.415C72.3239 122.084 63.454 111.238 52.5512 111.238Z" fill="#000072"/>
<path d="M59.7549 157.04C71.4207 157.04 80.8777 145.582 80.8777 131.448C80.8777 117.314 71.4207 105.857 59.7549 105.857C48.0891 105.857 38.632 117.314 38.632 131.448C38.632 145.582 48.0891 157.04 59.7549 157.04Z" fill="#4A81FD"/>
<path d="M59.7547 158.455C47.3632 158.455 37.2819 146.34 37.2819 131.449C37.2819 116.557 47.3632 104.442 59.7547 104.442C72.1467 104.442 82.228 116.557 82.228 131.449C82.228 146.34 72.1467 158.455 59.7547 158.455ZM59.7547 107.271C48.8519 107.271 39.9819 118.117 39.9819 131.449C39.9819 144.78 48.8519 155.626 59.7547 155.626C70.6575 155.626 79.528 144.78 79.528 131.449C79.528 118.117 70.6575 107.271 59.7547 107.271Z" fill="#000072"/>
<path d="M173.02 253.967C172.966 253.967 172.911 253.964 172.857 253.96L90.482 246.453C89.7131 246.383 89.0623 245.83 88.8377 245.057C88.2697 243.104 75.0455 197.011 85.5882 177.806C86.1091 176.857 87.2656 176.532 88.1689 177.077C89.0739 177.622 89.3856 178.833 88.865 179.781C80.052 195.835 90.0394 235.039 92.0982 242.623L172.253 249.928C174.761 246.186 174.218 233.512 172.945 225.172C172.78 224.092 173.482 223.076 174.512 222.903C175.545 222.734 176.512 223.465 176.677 224.545C177.276 228.458 179.973 248.243 174.265 253.477C173.919 253.794 173.476 253.967 173.02 253.967Z" fill="#000072"/>
<path d="M158.612 257.006L109.832 251.625L110.605 243.92L159.386 249.301C161.416 249.525 162.889 251.431 162.675 253.559C162.461 255.687 160.642 257.23 158.612 257.006Z" fill="#C0BECC"/>
<g opacity="0.3">
<path d="M158.612 257.006L109.832 251.625L110.605 243.92L159.386 249.301C161.416 249.525 162.889 251.431 162.675 253.559C162.461 255.687 160.642 257.23 158.612 257.006Z" fill="#000072"/>
</g>
<path d="M159.009 258.726C158.821 258.726 158.632 258.715 158.443 258.694H158.442L109.662 253.313C108.772 253.215 108.127 252.38 108.221 251.447L108.994 243.742C109.039 243.294 109.252 242.883 109.586 242.6C109.92 242.317 110.345 242.185 110.775 242.231L159.556 247.612C160.968 247.768 162.238 248.491 163.131 249.648C164.025 250.804 164.435 252.257 164.286 253.737C164.137 255.217 163.448 256.548 162.344 257.484C161.389 258.295 160.222 258.726 159.009 258.726ZM158.782 255.317C159.331 255.378 159.874 255.21 160.305 254.844C160.736 254.479 161.006 253.96 161.064 253.381C161.184 252.188 160.355 251.115 159.216 250.989L112.047 245.786L111.613 250.113L158.782 255.317Z" fill="#000072"/>
<path d="M149.679 226.586C149.726 226.791 149.455 227.069 148.877 227.363C148.297 227.638 147.395 227.912 146.211 227.922C145.039 227.932 143.555 227.643 142.129 226.687C141.424 226.204 140.742 225.554 140.2 224.664C139.938 224.208 139.702 223.701 139.575 223.081C139.457 222.466 139.435 221.698 139.775 220.912C139.852 220.72 139.977 220.537 140.09 220.36C140.212 220.19 140.361 220.042 140.507 219.895C140.657 219.763 140.818 219.657 140.98 219.55C141.14 219.452 141.298 219.391 141.461 219.32C142.089 219.094 142.677 219.048 143.166 219.092C143.671 219.123 144.115 219.223 144.529 219.343C144.706 219.394 144.881 219.445 145.053 219.496C145.211 219.544 145.367 219.592 145.521 219.64C146.75 220.005 147.851 220.214 148.739 220.25C149.618 220.272 150.277 220.133 150.719 219.938C151.176 219.753 151.435 219.549 151.633 219.612C151.826 219.66 151.916 220.166 151.509 220.822C151.123 221.492 150.182 222.145 148.991 222.435C147.802 222.72 146.398 222.698 144.937 222.442C144.587 222.374 144.23 222.304 143.865 222.233C143.579 222.175 143.293 222.137 143.049 222.139C142.789 222.122 142.603 222.186 142.501 222.218C142.488 222.233 142.458 222.235 142.452 222.242C142.444 222.24 142.469 222.28 142.42 222.219C142.417 222.207 142.37 222.166 142.37 222.166C142.399 222.187 142.374 222.167 142.426 222.197C142.509 222.24 142.455 222.201 142.47 222.224C142.476 222.242 142.456 222.237 142.463 222.269C142.457 222.312 142.465 222.387 142.472 222.471C142.5 222.649 142.588 222.878 142.699 223.102C142.941 223.556 143.306 223.996 143.721 224.353C144.56 225.071 145.555 225.498 146.444 225.734C148.242 226.205 149.588 226.13 149.679 226.586Z" fill="#000072"/>
<path d="M150.412 213.278C150.419 213.701 149.106 213.819 147.801 215.068C147.153 215.694 146.506 216.601 145.968 217.792C145.697 218.385 145.448 219.039 145.232 219.744C145.124 220.096 145.022 220.46 144.931 220.832C144.843 221.193 144.752 221.612 144.701 221.93C144.571 222.752 143.83 223.307 143.045 223.17C142.949 223.153 142.857 223.127 142.769 223.092L142.757 223.086C142.528 222.993 142.422 222.937 142.272 222.86C142.13 222.787 142.003 222.707 141.868 222.629C141.61 222.465 141.36 222.288 141.12 222.093C140.648 221.698 140.194 221.257 139.816 220.735C139.034 219.715 138.55 218.506 138.324 217.339C138.106 216.165 138.133 215.046 138.242 214.021C138.282 213.754 138.342 213.483 138.394 213.221C138.445 212.959 138.497 212.702 138.606 212.443C138.703 212.185 138.796 211.934 138.901 211.691C139.039 211.451 139.18 211.218 139.322 210.995C139.943 210.109 140.825 209.537 141.624 209.29C143.252 208.841 144.433 209.211 145.177 209.5C145.924 209.817 146.264 210.167 146.2 210.367C146.135 210.573 145.702 210.628 144.993 210.697C144.3 210.767 143.262 210.852 142.381 211.343C141.955 211.601 141.618 211.948 141.377 212.418C141.114 212.872 141.036 213.563 140.967 214.289C140.952 215.085 140.987 215.9 141.165 216.678C141.351 217.45 141.667 218.182 142.149 218.809C142.378 219.132 142.662 219.405 142.946 219.659C143.093 219.784 143.243 219.897 143.395 220.001C143.471 220.046 143.548 220.102 143.62 220.141C143.682 220.18 143.791 220.233 143.782 220.233L141.838 221.389C141.947 220.854 142.063 220.442 142.199 219.995C142.333 219.56 142.481 219.14 142.642 218.733C142.963 217.92 143.339 217.164 143.76 216.477C144.592 215.103 145.666 214.028 146.741 213.43C147.824 212.827 148.826 212.723 149.461 212.805C149.782 212.841 150.022 212.918 150.18 213.009C150.338 213.094 150.414 213.184 150.412 213.278Z" fill="#000072"/>
<path d="M176.358 113.534V134.008C176.358 134.008 175.615 145.872 168.211 155.008C146.835 156.574 127.265 172.186 116.755 182.223C111.642 187.106 108.672 190.673 108.672 190.673C108.672 190.673 102.924 188.114 100.701 184.828L100.692 184.593C98.1229 184.736 95.3585 184.767 92.4818 184.623C74.3675 183.738 51.9897 175.963 47.3694 144.173C47.3694 144.173 41.4647 138.778 36.3416 126.944C33.6946 120.828 31.2574 112.992 29.9534 103.292L30.2465 102.97C32.5906 105.294 35.609 107.259 39.5209 108.503C39.3987 108.211 34.1927 96.2033 37.4111 80.8635L37.6162 80.797C39.306 86.6677 43.1986 92.8765 51.2472 97.9231C51.2472 97.9231 51.7356 86.4527 58.2702 74.8444C61.8893 81.8871 69.1125 89.9486 83.4809 92.6357C83.4809 92.6357 83.5591 90.6549 83.686 87.9984C87.842 90.7114 93.5172 92.5948 101.063 91.781C101.063 91.781 100.784 90.5883 100.506 88.5307C101.239 88.9248 102.02 89.273 102.855 89.5647C102.855 89.5647 102.113 77.4291 104.145 67.4585C106.347 73.8462 110.748 82.312 119.299 87.5174C119.299 87.5174 119.299 82.9621 120.935 77.0197C123.582 88.7252 131.948 107.53 158.287 114.046C158.287 114.046 168.192 125.685 176.109 113.355L176.358 113.534Z" fill="#FFB78A"/>
<path d="M108.671 192.654C108.423 192.654 108.172 192.602 107.933 192.496C107.333 192.229 102.293 189.92 99.643 186.626C97.1992 186.728 94.7645 186.72 92.392 186.602C73.791 185.693 50.6422 177.743 45.6033 145.153C43.9949 143.511 39.0284 137.944 34.6204 127.763C31.4579 120.455 29.2578 112.315 28.0818 103.569C28.0012 102.969 28.1868 102.364 28.5849 101.926L28.8781 101.603C29.5963 100.814 30.7892 100.781 31.5454 101.531C32.9592 102.933 34.5708 104.112 36.3616 105.06C34.9547 99.9904 33.3569 90.9635 35.5654 80.4383C35.711 79.7426 36.2023 79.1824 36.8521 78.9716L37.0567 78.905C37.5387 78.7486 38.0597 78.8005 38.5037 79.0482C38.9482 79.2961 39.28 79.7197 39.4255 80.2251C41.0382 85.8268 44.4891 90.619 49.7008 94.5036C50.3178 90.1285 52.0191 82.051 56.6422 73.8382C56.9887 73.2225 57.6163 72.8495 58.307 72.8641C58.9888 72.8781 59.6106 73.2761 59.9338 73.9053C62.9618 79.7967 69.1718 87.2523 81.6904 90.2356C81.7205 89.5581 81.7569 88.7642 81.7985 87.8993C81.8318 87.1985 82.2167 86.5684 82.81 86.2433C83.4043 85.9185 84.1168 85.9462 84.6852 86.3173C88.7378 88.9629 93.4887 90.1867 98.8033 89.9659C98.7484 89.6158 98.6915 89.229 98.6345 88.8086C98.5359 88.0757 98.8348 87.3462 99.4102 86.9172C99.8348 86.6005 100.356 86.4875 100.854 86.5839C100.763 82.2619 100.842 74.1819 102.296 67.0449C102.472 66.1803 103.174 65.5428 104.016 65.4825C104.844 65.4184 105.635 65.9537 105.922 66.7854C107.742 72.0625 111.214 79.0561 117.652 84.021C117.876 82.0701 118.302 79.4374 119.12 76.4705C119.353 75.6214 120.095 75.0391 120.935 75.0391C120.95 75.0391 120.965 75.0394 120.981 75.0396C121.84 75.0615 122.576 75.687 122.774 76.563C125.159 87.1108 133.001 105.755 158.721 112.118C159.099 112.212 159.439 112.424 159.698 112.727C159.734 112.771 163.72 117.347 168.109 117.023C170.454 116.85 172.618 115.243 174.541 112.249C174.823 111.81 175.26 111.508 175.755 111.409C176.251 111.311 176.764 111.423 177.179 111.722L177.428 111.902C177.941 112.271 178.248 112.882 178.248 113.534V134.007C178.248 134.051 178.246 134.094 178.244 134.137C178.212 134.648 177.371 146.765 169.652 156.29C169.322 156.697 168.85 156.947 168.343 156.984C147.276 158.527 127.776 174.377 118.028 183.686C113.067 188.424 110.125 191.94 110.096 191.976C109.729 192.416 109.206 192.654 108.671 192.654ZM102.508 184.042C103.854 185.743 106.47 187.346 108.21 188.26C109.483 186.821 111.981 184.102 115.482 180.759C125.469 171.221 145.378 155.062 167.265 153.099C173.488 144.964 174.403 134.777 174.468 133.933V118.29C172.611 119.918 170.565 120.819 168.351 120.977C163.085 121.356 158.673 117.263 157.308 115.837C135.358 110.217 125.649 96.1459 121.357 84.9455C121.193 86.5386 121.189 87.4974 121.189 87.5176C121.189 88.2262 120.828 88.8807 120.242 89.2342C119.656 89.5881 118.934 89.5865 118.35 89.2303C111.935 85.3254 107.751 79.7129 105.047 74.4417C104.315 82.1444 104.735 89.3465 104.741 89.4387C104.781 90.0964 104.507 90.7319 104.008 91.134C103.696 91.386 103.322 91.5258 102.939 91.5438C102.995 92.0279 102.878 92.5204 102.607 92.9233C102.292 93.3906 101.8 93.6932 101.257 93.7517C95.411 94.3829 90.1022 93.5384 85.4305 91.2434C85.3915 92.1598 85.3694 92.7157 85.3694 92.7179C85.3467 93.2894 85.0899 93.8227 84.6643 94.1808C84.2383 94.5387 83.6866 94.6852 83.1488 94.5863C69.8776 92.104 62.4595 85.1542 58.3589 78.8149C53.6028 88.76 53.1398 97.9136 53.135 98.0138C53.1039 98.7099 52.7264 99.3386 52.1405 99.6677C51.5556 99.9974 50.8474 99.9811 50.2768 99.6232C44.9933 96.3103 41.0103 92.2639 38.3752 87.5453C37.5626 98.5688 40.8057 106.655 41.2418 107.684C41.5424 108.392 41.4238 109.226 40.9344 109.807C40.4445 110.387 39.6804 110.623 38.9721 110.399C36.617 109.65 34.4518 108.616 32.4969 107.309C33.7045 114.056 35.5713 120.369 38.063 126.127C42.9272 137.362 48.5582 142.631 48.6146 142.683C48.9484 142.99 49.1709 143.414 49.2378 143.875C53.6718 174.385 75.2491 181.798 92.5697 182.645C95.1901 182.776 97.888 182.765 100.592 182.615C101.092 182.586 101.59 182.771 101.963 183.127C102.224 183.375 102.411 183.693 102.508 184.042Z" fill="#000072"/>
<path d="M93.4536 191.877C93.0992 191.666 93.7979 189.675 95.0161 187.419L95.6617 188.582L95.6247 188.584C94.599 188.587 93.7199 189.043 93.0872 189.463C92.4517 189.883 92.0536 190.22 91.8769 190.107C91.7029 190.002 91.8089 189.394 92.3794 188.65C92.6652 188.282 93.0755 187.885 93.6266 187.569C94.174 187.252 94.8716 187.034 95.6084 187.028L95.6617 187.026C96.0608 187.006 96.3994 187.329 96.4179 187.748C96.4242 187.896 96.3899 188.036 96.3251 188.156L96.3072 188.188C95.082 190.44 93.8079 192.088 93.4536 191.877Z" fill="#000072"/>
<path d="M105.286 199.764C104.878 199.756 104.586 197.657 104.629 195.066L105.726 195.764L105.694 195.785C104.795 196.301 104.23 197.141 103.864 197.826C103.497 198.513 103.301 199.009 103.094 198.998C102.894 198.993 102.71 198.405 102.872 197.466C102.956 197 103.136 196.445 103.476 195.892C103.813 195.34 104.326 194.799 104.971 194.426L105.017 194.397C105.359 194.18 105.803 194.295 106.01 194.653C106.083 194.78 106.117 194.92 106.115 195.058L106.113 195.095C106.062 197.686 105.694 199.772 105.286 199.764Z" fill="#000072"/>
<path d="M128.103 190.63C127.792 190.906 126.25 189.531 124.65 187.555L124.629 187.529C124.371 187.21 124.408 186.731 124.712 186.46C124.82 186.364 124.95 186.307 125.08 186.288L125.133 186.28C125.858 186.143 126.582 186.223 127.176 186.428C127.773 186.632 128.246 186.944 128.592 187.25C129.283 187.872 129.494 188.449 129.342 188.585C129.188 188.731 128.737 188.476 128.039 188.186C127.343 187.896 126.399 187.617 125.39 187.813L125.353 187.817L125.784 186.55C127.378 188.532 128.414 190.354 128.103 190.63Z" fill="#000072"/>
<path d="M183.195 89.9896C181.422 101.752 178.888 109.03 176.109 113.355C168.192 125.685 158.287 114.046 158.287 114.046C131.948 107.53 123.582 88.7252 120.935 77.0197C119.299 82.962 119.299 87.5174 119.299 87.5174C110.748 82.312 106.347 73.8462 104.145 67.4585C102.113 77.4291 102.855 89.5647 102.855 89.5647C102.02 89.273 101.239 88.9248 100.506 88.5307C100.784 90.5883 101.063 91.781 101.063 91.781C93.5171 92.5946 87.842 90.7113 83.686 87.9984C83.5591 90.6549 83.4809 92.6357 83.4809 92.6357C69.1126 89.9486 61.8892 81.8871 58.2702 74.8444C51.7357 86.4527 51.2472 97.9231 51.2472 97.9231C43.1986 92.8764 39.306 86.6676 37.6162 80.797L37.4111 80.8635C34.1927 96.2033 39.3987 108.211 39.5209 108.503C35.609 107.259 32.5906 105.293 30.2465 102.97L29.9534 103.292C31.2574 112.992 33.6945 120.828 36.3416 126.944C24.5225 118.458 22.9206 103.722 22.9206 103.722L17.7045 113.34C16.5372 107.443 15.922 101.347 15.922 95.1081C15.922 43.52 57.8699 1.69789 109.61 1.69789C129.028 1.69789 147.064 7.58895 162.029 17.6773L162.072 17.6057C162.072 17.6057 162.927 6.68822 165.735 11.0388C168.544 15.3894 168.544 23.1949 168.544 23.1949C168.544 23.1949 187.347 19.868 184.66 23.7068C181.974 27.5455 173.344 31.7272 173.344 31.7272C173.344 31.7272 190.033 44.6921 183.195 89.9896Z" fill="#5C6A79"/>
<g opacity="0.6">
<path d="M165.735 11.0387C162.927 6.68811 162.072 17.6056 162.072 17.6056L162.029 17.6773C147.064 7.58895 129.028 1.69766 109.61 1.69766C87.1605 1.69766 66.5578 9.57467 50.422 22.7028C49.5886 23.2368 48.7515 23.8269 47.9215 24.4719C45.515 26.3421 43.508 28.4057 42.0363 30.4122C25.8649 47.1987 15.922 69.995 15.922 95.1078C15.922 101.347 16.5374 107.443 17.7047 113.339L18.5789 111.732C18.115 107.96 17.8756 104.121 17.8756 100.226C17.8756 77.033 26.3579 55.8169 40.3933 39.4847C42.9342 41.6042 49.3718 39.7816 55.4256 35.0767C61.9375 30.0157 65.5365 23.539 63.4643 20.6107C63.3699 20.4774 63.2621 20.357 63.1479 20.2428C77.2777 11.7218 93.8457 6.81601 111.563 6.81601C130.982 6.81601 149.018 12.7073 163.982 22.7956L164.026 22.724C164.026 22.724 164.881 11.8065 167.689 16.1571C167.704 16.1827 167.718 16.2031 167.733 16.2287C167.318 14.3913 166.688 12.5179 165.735 11.0387Z" fill="white"/>
</g>
<g opacity="0.3">
<path d="M56.9467 62.0945L58.2702 74.8444C51.7356 86.4529 51.2472 97.9232 51.2472 97.9232C43.1985 92.8765 39.3061 86.6679 37.6162 80.7971L37.4111 80.8637C34.1926 96.2035 39.3988 108.211 39.521 108.503C35.609 107.259 32.5907 105.294 30.2465 102.97L29.9534 103.292C31.2574 112.992 33.6945 120.828 36.3416 126.944C24.5226 118.458 22.9206 103.722 22.9206 103.722L17.7047 113.34C16.9769 109.654 16.4592 105.892 16.1809 102.064C16.1809 102.059 16.1809 102.059 16.1809 102.059C17.2358 91.5202 22.2711 83.08 22.2711 83.08C22.5153 94.8522 32.0388 98.691 32.0388 98.691C29.3527 83.3359 36.1901 73.0992 36.1901 73.0992C36.5124 76.0678 37.2304 78.581 38.1535 80.6999C41.4599 88.2598 47.4231 90.7575 47.4231 90.7575C44.9811 78.9851 56.9467 62.0945 56.9467 62.0945Z" fill="#000072"/>
</g>
<g opacity="0.3">
<path d="M173.344 31.7272C173.344 31.7272 181.974 27.5454 184.66 23.7066C186.248 21.4341 180.319 21.6746 175.21 22.2479L167.811 29.0809C167.811 29.0809 180.509 46.0586 173.833 71.1386C173.833 71.1386 169.092 71.7498 162.946 71.2978C166.799 74.8898 173.428 75.8286 173.428 75.8286C173.428 75.8286 164.392 81.4588 153.404 77.1082C142.415 72.7576 139.403 65.6772 139.403 65.6772C143.75 68.576 149.777 69.3818 153.065 69.6039C144.9 67.2466 137.119 62.0795 135.699 51.0899C135.699 51.0899 115.309 56.2082 116.286 74.3784C116.286 74.3784 106.03 67.9805 109.204 56.2082C109.204 56.2082 94.797 64.6535 98.4598 82.056C98.4598 82.056 93.3318 79.2408 90.4014 72.8429C90.4014 72.8429 88.2036 80.7764 93.0876 87.6863C93.0876 87.6863 78.6801 83.3357 73.7962 76.1699C73.7962 76.1699 73.3078 81.8001 76.7265 86.9185C76.7265 86.9185 68.2139 87.0259 62.1482 80.7508C66.3971 85.9102 73.0588 90.6856 83.481 92.6357C83.481 92.6357 83.5591 90.6549 83.6861 87.9985C87.8422 90.7113 93.5173 92.5948 101.063 91.781C101.063 91.781 100.785 90.5883 100.506 88.5307C101.239 88.9248 102.02 89.2729 102.855 89.5647C102.855 89.5647 102.113 77.4291 104.145 67.4585C106.347 73.8462 110.748 82.312 119.299 87.5174C119.299 87.5174 119.299 82.962 120.935 77.0196C123.582 88.7253 131.949 107.53 158.287 114.046C158.287 114.046 168.192 125.685 176.109 113.355C178.888 109.03 181.422 101.752 183.195 89.9895C190.033 44.6921 173.344 31.7272 173.344 31.7272Z" fill="#000072"/>
</g>
<path d="M58.2702 74.8443C59.2617 76.7688 60.5168 78.7701 62.1187 80.7202C60.634 79.1745 59.2958 77.2499 58.2702 74.8443Z" fill="#000072"/>
<path d="M36.3417 128.642C36.0226 128.642 35.7031 128.544 35.4262 128.345C27.1606 122.41 23.6596 113.692 22.232 108.428L19.1133 114.179C18.78 114.793 18.1166 115.127 17.4527 115.017C16.7872 114.907 16.2556 114.376 16.1185 113.685C14.913 107.597 14.3018 101.346 14.3018 95.1079C14.3018 42.6653 57.0567 0 109.61 0C127.843 0 145.465 5.12095 160.746 14.8356C161.31 10.9811 162.369 8.81826 163.906 8.39596C164.714 8.17378 165.916 8.28844 167.077 10.0872C169.24 13.4388 169.888 18.4553 170.081 21.2125C184.47 18.8556 185.775 21.0724 186.215 21.8206C186.459 22.2346 186.922 23.3449 185.966 24.7105C183.892 27.6749 179.002 30.6195 176.137 32.1758C180.454 37.1392 190.41 53.0609 184.795 90.2548C183.146 101.196 180.675 109.287 177.452 114.303C174.889 118.295 171.821 120.445 168.332 120.694C163.095 121.07 158.717 116.924 157.445 115.58C134.868 109.827 125.286 95.1027 121.222 83.7986C120.928 86.0636 120.919 87.4942 120.919 87.5191C120.918 88.1256 120.608 88.6866 120.106 88.9886C119.602 89.2909 118.985 89.2892 118.485 88.9853C111.786 84.9078 107.538 78.9487 104.872 73.4825C104.01 81.5528 104.466 89.3597 104.472 89.4561C104.506 90.0198 104.27 90.5644 103.844 90.9093C103.489 91.1953 103.044 91.3136 102.607 91.2423C102.625 91.3296 102.636 91.3757 102.637 91.378C102.747 91.8546 102.656 92.3588 102.386 92.7594C102.116 93.1601 101.694 93.4196 101.229 93.4699C95.279 94.1096 89.8943 93.2143 85.1793 90.803C85.1281 91.9719 85.0997 92.7036 85.0991 92.7059C85.0801 93.1955 84.8597 93.6526 84.4948 93.9597C84.1298 94.2667 83.6568 94.3946 83.196 94.307C69.7355 91.7897 62.3406 84.6495 58.3269 78.2546C53.3467 88.4252 52.8695 97.8979 52.8652 98.0005C52.8389 98.5968 52.5151 99.136 52.013 99.4184C51.5105 99.7013 50.904 99.6869 50.4152 99.38C44.8785 95.9085 40.7822 91.628 38.1819 86.6099C37.1092 98.1686 40.5438 106.734 40.9947 107.798C41.2521 108.405 41.1513 109.121 40.7316 109.619C40.3123 110.117 39.6584 110.32 39.0504 110.127C36.5059 109.318 34.1857 108.173 32.1164 106.708C33.3235 113.723 35.2357 120.279 37.817 126.243C38.117 126.937 37.9393 127.755 37.3825 128.245C37.0831 128.509 36.713 128.642 36.3417 128.642ZM22.9203 102.024C23.0284 102.024 23.1371 102.036 23.2457 102.059C23.9323 102.206 24.4512 102.8 24.5304 103.53C24.543 103.644 25.6885 113.205 32.3303 120.993C30.5104 115.526 29.1763 109.678 28.3495 103.529C28.2803 103.015 28.4391 102.497 28.7808 102.121L29.074 101.799C29.69 101.121 30.7114 101.094 31.3601 101.736C32.9384 103.301 34.7583 104.592 36.7959 105.596C35.3631 100.698 33.5402 91.4102 35.8293 80.4992C35.9543 79.9026 36.3757 79.4226 36.932 79.242L37.1371 79.1754C37.5494 79.0414 37.9961 79.0859 38.3768 79.2981C38.7581 79.5106 39.0429 79.8736 39.1673 80.307C40.8343 86.0992 44.4418 91.0322 49.9056 95.0001C50.4619 90.7755 52.1057 82.454 56.875 73.982C57.1724 73.4545 57.7177 73.1383 58.302 73.1473C58.8862 73.1592 59.4194 73.5004 59.6968 74.0399C62.7765 80.0332 69.1168 87.6307 81.946 90.5855C81.9787 89.8405 82.0198 88.9261 82.0683 87.9136C82.0969 87.3129 82.4269 86.773 82.9353 86.4941C83.4442 86.2155 84.0553 86.2393 84.5426 86.5577C88.7203 89.2845 93.6193 90.5155 99.1205 90.2348C99.0508 89.8085 98.9765 89.3183 98.9022 88.7692C98.8173 88.1411 99.0741 87.516 99.5671 87.1479C100.026 86.8053 100.619 86.739 101.133 86.9656C101.03 82.7679 101.067 74.4351 102.561 67.1043C102.712 66.3632 103.313 65.8166 104.035 65.765C104.745 65.7123 105.423 66.169 105.668 66.8819C107.536 72.2991 111.135 79.5136 117.869 84.5342C118.073 82.5603 118.497 79.7522 119.379 76.5493C119.584 75.8085 120.238 75.3152 120.975 75.3229C121.711 75.3415 122.342 75.8778 122.512 76.6286C124.911 87.2397 132.798 105.996 158.66 112.394C158.983 112.474 159.275 112.656 159.496 112.916C159.535 112.961 163.603 117.638 168.126 117.306C170.559 117.127 172.792 115.479 174.765 112.407C177.722 107.805 180.02 100.174 181.595 89.7252V89.7249C188.203 45.9502 172.539 33.2152 172.38 33.0917C171.921 32.7347 171.675 32.1506 171.733 31.5546C171.791 30.9585 172.145 30.4388 172.664 30.1869C174.723 29.1883 180.08 26.2581 182.604 23.6053C180.015 23.3436 173.962 23.9587 168.813 24.8695C168.346 24.9533 167.863 24.8145 167.498 24.4923C167.135 24.17 166.924 23.6959 166.924 23.1965C166.924 23.1258 166.888 16.3201 164.631 12.3803C164.239 13.5796 163.846 15.7314 163.687 17.7453C163.665 18.0216 163.579 18.2886 163.436 18.5221L163.393 18.5936C163.161 18.9733 162.794 19.2405 162.374 19.3364C161.953 19.4329 161.514 19.3489 161.152 19.1054C145.908 8.8281 128.085 3.39601 109.61 3.39601C58.8435 3.39601 17.542 44.5381 17.542 95.1084C17.542 99.5642 17.8658 104.026 18.5066 108.426L21.5124 102.884C21.8044 102.345 22.3465 102.024 22.9203 102.024Z" fill="#000072"/>
<path d="M120.936 78.9978C119.892 78.9978 119.046 78.1135 119.046 77.0196V77.0146C119.046 75.9207 119.892 75.0339 120.936 75.0339C121.979 75.0339 122.826 75.9207 122.826 77.0146C122.826 78.1085 121.979 78.9978 120.936 78.9978Z" fill="#000072"/>
<path d="M173.346 31.7254C173.346 31.7254 188.975 45.0331 176.602 91.0984L186.126 97.6672C199.312 43.9242 173.346 31.7254 173.346 31.7254Z" fill="white"/>
<path d="M186.126 99.3651C185.814 99.3651 185.503 99.2703 185.235 99.0854L175.711 92.5167C175.122 92.1102 174.851 91.3505 175.043 90.6385C186.905 46.4742 172.462 33.164 172.315 33.035C171.696 32.4907 171.548 31.5467 171.978 30.8285C172.407 30.1102 173.269 29.8285 174.009 30.1761C174.295 30.3104 181.073 33.5846 186.118 43.7597C192.736 57.1048 193.266 75.3841 187.695 98.0899C187.564 98.621 187.197 99.0535 186.71 99.2507C186.521 99.3275 186.323 99.3651 186.126 99.3651ZM178.479 90.3605L185.106 94.9313C190.984 69.2803 187.451 53.9674 183.367 45.5766C182.345 43.4784 181.24 41.7003 180.142 40.2053C183.249 49.0109 185.211 64.6073 178.479 90.3605Z" fill="#000072"/>
<path d="M184.953 181.225C183.776 188.206 172.934 190.125 172.934 190.125L172.285 190.289C167.689 170.169 157.521 168.838 157.521 168.838L157.511 168.787C147.313 170.66 132.53 176.485 118.073 193.273C118.073 193.273 103.183 201.985 92.4722 184.874L92.482 184.623C95.3586 184.766 98.1229 184.736 100.692 184.592L100.702 184.828C102.924 188.114 108.672 190.673 108.672 190.673C108.672 190.673 111.642 187.105 116.755 182.222C127.265 172.185 146.835 156.574 168.212 155.008C173.032 154.655 177.94 155.013 182.863 156.313C182.863 156.313 185.344 160.28 180.905 164.523C180.905 164.523 185.081 169.314 179.987 172.329C179.987 172.329 186.126 174.243 184.953 181.225Z" fill="#636CCB"/>
<g opacity="0.2">
<path d="M172.986 179.75C178.08 176.736 173.905 171.945 173.905 171.945C178.344 167.702 175.863 163.735 175.863 163.735C170.94 162.435 166.032 162.077 161.211 162.43C139.835 163.996 120.265 179.607 109.755 189.644C109.35 190.031 108.963 190.406 108.586 190.774C106.39 189.846 99.8808 186.886 97.3609 183.4C97.3609 183.4 96.8851 190.851 104.571 194.867C107.385 196.338 108.773 196.22 109.405 195.484C114.407 195.413 118.073 193.273 118.073 193.273C132.53 176.485 147.313 170.66 157.511 168.787L157.521 168.838C157.521 168.838 167.689 170.169 172.285 190.289L172.934 190.125C172.934 190.125 175.316 189.704 177.968 188.537C179.057 181.646 172.986 179.75 172.986 179.75Z" fill="#000072"/>
</g>
<path d="M109.106 197.149C103.632 197.149 96.7858 194.86 91.1173 185.805C90.9322 185.509 90.84 185.16 90.8532 184.807L90.8627 184.556C90.8801 184.104 91.0688 183.677 91.3869 183.371C91.7054 183.065 92.1272 182.903 92.5587 182.927C95.1886 183.058 97.8965 183.048 100.606 182.897C101.036 182.874 101.461 183.031 101.781 183.336C102.019 183.562 102.184 183.854 102.262 184.175C103.68 185.997 106.5 187.696 108.27 188.608C109.491 187.222 112.037 184.431 115.664 180.968C125.749 171.336 145.972 154.936 168.099 153.315C173.312 152.933 178.414 153.388 183.259 154.667C183.653 154.771 183.995 155.026 184.218 155.383C185.239 157.016 186.142 160.884 183.016 164.684C183.662 165.794 184.356 167.493 184.071 169.363C183.957 170.11 183.654 171.046 182.924 171.979C185.18 173.617 187.361 176.684 186.549 181.519C186.549 181.519 186.549 181.52 186.549 181.52C185.224 189.382 174.274 191.601 173.263 191.789L172.663 191.94C172.245 192.045 171.804 191.972 171.438 191.736C171.071 191.501 170.809 191.122 170.709 190.684C166.687 173.077 158.288 170.738 157.381 170.536C147.689 172.399 133.344 178.073 119.277 194.411C119.157 194.549 119.018 194.666 118.863 194.756C118.782 194.804 114.647 197.149 109.106 197.149ZM95.5413 186.411C104.478 197.963 115.326 192.842 117.063 191.914C131.888 174.798 147.079 168.979 157.232 167.115C157.57 167.053 157.9 167.105 158.19 167.245C160.329 167.758 169.031 170.883 173.471 188.282C176.578 187.546 182.629 185.255 183.358 180.929C184.243 175.656 180.002 174.112 179.515 173.953C178.898 173.752 178.449 173.184 178.381 172.51C178.312 171.837 178.627 171.183 179.19 170.85C180.187 170.26 180.753 169.583 180.87 168.838C181.067 167.584 180.095 166.121 179.703 165.662C179.111 164.968 179.156 163.897 179.813 163.269C182.319 160.873 182.064 158.754 181.737 157.774C177.443 156.725 172.935 156.365 168.324 156.702C147.176 158.251 127.62 174.143 117.846 183.477C112.871 188.228 109.922 191.754 109.893 191.79C109.432 192.343 108.683 192.522 108.039 192.236C107.799 192.129 102.409 189.703 99.7659 186.338C98.3526 186.399 96.9404 186.423 95.5413 186.411Z" fill="#000072"/>
<path d="M157.265 233.8C154.316 233.8 151.91 233.163 150.425 232.242C149.655 231.763 149.4 230.722 149.856 229.915C150.312 229.108 151.306 228.843 152.075 229.319C154.792 231.005 166.004 232.192 176.194 220.854C185.622 210.367 171.742 194.029 171.602 193.865C171.406 193.639 171.272 193.36 171.214 193.061C171.047 192.189 170.882 191.416 170.712 190.698C170.497 189.788 171.026 188.867 171.894 188.641C172.762 188.415 173.641 188.969 173.857 189.88C174.008 190.519 174.155 191.196 174.302 191.936C179.875 198.574 187.574 213.148 178.553 223.182C171.332 231.218 163.201 233.799 157.265 233.8Z" fill="#000072"/>
<path d="M146.986 233.291C146.354 233.291 145.699 233.214 145.026 233.059C144.734 232.995 144.437 232.915 144.141 232.819C143.59 232.639 143.271 232.037 143.416 231.452C143.456 231.291 147.275 215.354 136.62 209.663C136.598 209.65 136.572 209.635 136.548 209.62C136.449 209.566 136.369 209.525 136.288 209.485C135.912 209.297 135.673 208.899 135.674 208.462C135.675 208.026 135.915 207.628 136.292 207.441C136.297 207.439 136.306 207.435 136.315 207.43C137.064 207.013 144.622 203.066 151.225 209.847C155.429 214.163 156.601 223.238 153.684 228.886C152.203 231.751 149.823 233.29 146.986 233.291ZM145.733 230.9C149.066 231.562 150.86 229.596 151.784 227.808C154.251 223.033 153.244 215.09 149.713 211.464C145.848 207.495 141.617 207.922 139.229 208.646C147.84 214.704 146.407 227.109 145.733 230.9Z" fill="#000072"/>
<path d="M142.513 206.102C143.054 205.235 143.641 204.397 144.415 203.755C144.77 203.405 145.2 203.149 145.598 202.877C146.025 202.645 146.445 202.417 146.891 202.263C147.772 201.933 148.676 201.759 149.568 201.713C150.463 201.673 151.335 201.733 152.203 201.934C152.316 201.96 152.388 202.078 152.363 202.197C152.341 202.299 152.255 202.369 152.159 202.37H152.143C151.329 202.375 150.496 202.513 149.721 202.738C148.942 202.967 148.21 203.305 147.565 203.738C147.235 203.943 146.95 204.206 146.665 204.454C146.412 204.742 146.135 204.992 145.937 205.316C145.48 205.904 145.206 206.62 144.954 207.312L144.925 207.391C144.657 208.128 143.87 208.497 143.168 208.216C142.465 207.935 142.113 207.11 142.381 206.374C142.415 206.279 142.463 206.184 142.513 206.102Z" fill="#000072"/>
<path d="M144.486 208.09C144.266 208.09 144.047 207.997 143.887 207.813C143.68 207.575 143.487 207.341 143.295 207.104C131.064 191.908 142.106 174.09 142.219 173.911C142.466 173.521 142.968 173.415 143.341 173.674C143.714 173.933 143.815 174.46 143.568 174.85C143.463 175.018 133.095 191.797 144.533 206.008C144.712 206.229 144.891 206.447 145.084 206.669C145.386 207.016 145.362 207.553 145.031 207.869C144.876 208.017 144.681 208.09 144.486 208.09Z" fill="#000072"/>
<path d="M157.277 167.394C158.406 167.291 159.533 167.205 160.661 167.171C161.788 167.126 162.916 167.136 164.039 167.168C165.163 167.213 166.283 167.291 167.397 167.42C168.513 167.553 169.613 167.717 170.719 167.989C170.863 168.025 170.952 168.176 170.919 168.326C170.888 168.461 170.769 168.551 170.64 168.542L170.627 168.541C169.554 168.466 168.45 168.489 167.364 168.547C166.276 168.608 165.191 168.719 164.114 168.861C163.036 169.017 161.965 169.191 160.903 169.419C159.841 169.635 158.789 169.901 157.745 170.18L157.729 170.185C157.004 170.379 156.266 169.92 156.081 169.16C155.896 168.4 156.334 167.626 157.059 167.432C157.129 167.413 157.207 167.401 157.277 167.394Z" fill="#000072"/>
<path d="M100.69 186.573C99.6904 186.573 98.8556 185.751 98.8045 184.693C98.7512 183.6 99.5537 182.669 100.596 182.614C109.091 182.164 115.417 180.536 116.252 180.313C116.421 180.263 116.597 180.237 116.769 180.237C117.813 180.237 118.659 181.123 118.659 182.217C118.659 183.113 118.092 183.871 117.312 184.115C117.283 184.125 117.254 184.133 117.225 184.141C116.486 184.34 109.764 186.094 100.787 186.571C100.755 186.572 100.722 186.573 100.69 186.573Z" fill="#000072"/>
<path d="M111.607 203.703C98.1164 203.703 87.2388 195.162 86.8423 184.258C86.8254 183.79 87.1739 183.395 87.6212 183.377C88.0457 183.368 88.4438 183.725 88.4612 184.193C88.824 194.181 98.9912 202.005 111.607 202.005C124.067 202.005 138.817 189.851 138.817 179.583C138.817 178.339 138.593 177.149 138.149 176.046C137.976 175.614 138.169 175.116 138.581 174.934C138.997 174.752 139.468 174.956 139.642 175.387C140.17 176.7 140.437 178.112 140.437 179.582C140.437 190.854 125.079 203.703 111.607 203.703Z" fill="#000072"/>
<path d="M169.265 25.0527C168.865 25.0527 168.462 24.9204 168.12 24.6465L167.376 24.0466C166.546 23.382 166.389 22.1389 167.023 21.2698C167.658 20.4013 168.842 20.2349 169.672 20.8998L170.413 21.4975C171.243 22.1612 171.402 23.4042 170.769 24.2738C170.397 24.7844 169.835 25.0527 169.265 25.0527Z" fill="#000072"/>
<path d="M29.1332 104.203L28.1452 102.971L27.6564 102.356L27.2214 101.7L26.3655 100.387L25.6259 99.0085C24.6841 97.1554 23.9223 95.2255 23.4074 93.239C22.8734 91.2605 22.5136 89.2507 22.3248 87.2349C22.1431 85.2196 22.0989 83.1965 22.2712 81.2012C22.3691 83.1996 22.683 85.1709 23.1234 87.0937C23.5707 89.0156 24.1787 90.8838 24.9311 92.6629C25.6649 94.4513 26.6137 96.1192 27.6826 97.6523L28.5061 98.7811L29.4183 99.8221L29.8724 100.337L30.3718 100.805L31.3597 101.736L31.4676 101.838C32.136 102.468 32.1906 103.546 31.5895 104.246C30.9885 104.947 29.9597 105.004 29.2913 104.374C29.2362 104.323 29.1799 104.261 29.1332 104.203Z" fill="#000072"/>
<path d="M36.0651 81.2869C35.7471 79.5295 35.4879 77.7753 35.4691 76.0156C35.4164 75.1402 35.4763 74.264 35.4907 73.3963C35.565 72.5284 35.6078 71.6642 35.7412 70.8107C35.9632 69.1014 36.3099 67.4224 36.7813 65.7925C37.2496 64.1636 37.8215 62.571 38.549 61.0709C38.0725 62.6755 37.7701 64.3211 37.5736 65.9683C37.3748 67.6149 37.306 69.2697 37.3585 70.9055C37.3622 71.7232 37.4558 72.5368 37.5151 73.3437C37.634 74.1473 37.7052 74.9505 37.8842 75.735C38.1561 77.3176 38.6489 78.8341 39.167 80.3073L39.1922 80.3788C39.5034 81.2631 39.0715 82.2443 38.2277 82.5701C37.3839 82.8961 36.448 82.4435 36.1368 81.5595C36.1065 81.4724 36.0817 81.375 36.0651 81.2869Z" fill="#000072"/>
<path d="M56.7483 75.4259C56.4819 74.1879 56.2507 72.9531 56.1294 71.7052C55.98 70.4647 55.9562 69.213 55.9681 67.9803C55.9957 66.7445 56.1107 65.519 56.3045 64.3173C56.5035 63.118 56.7728 61.9322 57.1908 60.8151C57.0352 62.0006 57.041 63.1904 57.1132 64.3632C57.1915 65.5363 57.3471 66.694 57.5815 67.827C57.8317 68.9575 58.1094 70.0698 58.4988 71.1411C58.8603 72.2185 59.3178 73.2533 59.7922 74.2631L59.8066 74.2937C60.205 75.1418 59.872 76.1675 59.0628 76.5851C58.2536 77.0026 57.2746 76.6535 56.8762 75.8056C56.8196 75.6846 56.776 75.5517 56.7483 75.4259Z" fill="#000072"/>
<path d="M82.8307 89.4404C81.7784 88.5534 80.7622 87.6418 79.86 86.6204C78.9376 85.6239 78.1123 84.5454 77.3582 83.4326C76.5996 82.3226 75.9334 81.1554 75.3472 79.9575C74.7626 78.7599 74.2498 77.5274 73.879 76.2569C74.4973 77.4137 75.2351 78.4831 76.0253 79.4933C76.8163 80.5027 77.6658 81.4511 78.5773 82.3149C79.4846 83.1815 80.4333 83.9862 81.4398 84.6856C82.427 85.4104 83.4875 86.0017 84.5413 86.5569L84.5859 86.5804C85.391 87.0043 85.7157 88.032 85.311 88.8759C84.9066 89.7199 83.9257 90.06 83.1207 89.6361C83.0182 89.5819 82.917 89.5122 82.8307 89.4404Z" fill="#000072"/>
<path d="M107.251 59.5353C106.414 60.7409 105.956 62.1168 105.738 63.4818C105.515 64.8497 105.562 66.2216 105.763 67.5323L105.765 67.4585C105.765 68.3961 105.039 69.1563 104.145 69.1563C103.25 69.1563 102.525 68.3961 102.525 67.4585L102.527 67.3695C102.88 65.7651 103.429 64.2243 104.228 62.8676C105.017 61.5149 106.04 60.3263 107.251 59.5353Z" fill="#000072"/>
<path d="M89.996 71.4763C90.3743 73.1893 90.945 74.8404 91.6218 76.4213C92.3056 78 93.1279 79.4974 94.0713 80.8747C94.9968 82.268 96.1258 83.4741 97.3172 84.5296L98.2366 85.2838C98.5587 85.5102 98.8934 85.7151 99.2167 85.931L99.7027 86.2504L100.222 86.5074L101.248 87.0214L101.394 87.0946C102.206 87.5017 102.55 88.5213 102.161 89.3722C101.773 90.223 100.8 90.583 99.9882 90.1762C99.912 90.1381 99.8327 90.0886 99.7649 90.0403L98.6287 89.2177L98.0673 88.8062L97.5506 88.3348C97.2096 88.0181 96.8621 87.7125 96.5344 87.3884L95.6174 86.3497C94.4532 84.9257 93.4396 83.3968 92.6848 81.7523C91.9107 80.1211 91.3056 78.4294 90.8594 76.7071C90.4203 74.9841 90.1075 73.2335 89.996 71.4763Z" fill="#000072"/>
<path d="M104.144 69.4367C103.101 69.4367 102.254 68.5524 102.254 67.4585V67.4535C102.254 66.3596 103.101 65.4728 104.144 65.4728C105.188 65.4728 106.034 66.3596 106.034 67.4535C106.034 68.5476 105.188 69.4367 104.144 69.4367Z" fill="#000072"/>
<path d="M119.316 77.0196V77.0146V76.8831C119.316 76.7646 119.339 76.649 119.379 76.5454C121.287 71.6337 123.99 67.1001 127.436 63.4612C124.84 67.8077 123.267 72.6261 122.492 77.4836L122.555 77.0147V77.0197C122.555 77.9575 121.83 78.7175 120.935 78.7175C120.041 78.7174 119.316 77.9574 119.316 77.0196Z" fill="#000072"/>
<path d="M46.1129 79.0022C45.9554 80.6417 46.0475 82.2981 46.2813 83.9063C46.5205 85.5151 46.8967 87.0914 47.4534 88.5852C48.0084 90.0763 48.6592 91.5168 49.4961 92.8298C49.8747 93.5083 50.3549 94.1203 50.7973 94.7465C51.2508 95.3658 51.7812 95.9253 52.2609 96.512L52.3692 96.6446C52.9546 97.3609 52.8752 98.4389 52.1918 99.0523C51.5083 99.6658 50.4797 99.5824 49.8944 98.866C49.8406 98.8003 49.7876 98.7232 49.7451 98.6515C49.2995 97.8947 48.8164 97.1742 48.418 96.3978C48.0302 95.6139 47.6162 94.8536 47.3119 94.0332C46.6245 92.4388 46.1618 90.7535 45.8223 89.0703C45.4812 87.3838 45.3473 85.667 45.3604 83.972C45.3791 82.2761 45.549 80.591 45.9658 78.968C45.9766 78.926 46.0177 78.9008 46.0578 78.9121C46.0939 78.9223 46.1169 78.9586 46.1132 78.9961L46.1129 79.0022Z" fill="#000072"/>
<path d="M110.995 193.125C110.995 193.125 111.565 199.779 115.798 206.177Z" fill="#FF0660"/>
<path d="M115.799 207.591C115.371 207.591 114.95 207.379 114.688 206.983C110.302 200.354 109.675 193.538 109.65 193.251C109.584 192.473 110.132 191.786 110.874 191.716C111.615 191.648 112.273 192.22 112.34 192.997C112.349 193.102 112.957 199.401 116.907 205.37C117.332 206.012 117.18 206.894 116.567 207.339C116.332 207.509 116.064 207.591 115.799 207.591Z" fill="#000072"/>
<path d="M101.634 190.31C101.634 190.31 97.7271 195.087 97.5644 202.935Z" fill="#FF0660"/>
<path d="M97.5647 204.35C97.5547 204.35 97.5446 204.35 97.5347 204.349C96.7896 204.333 96.1984 203.686 96.2147 202.904C96.3861 194.645 100.437 189.6 100.609 189.389C101.095 188.795 101.947 188.727 102.513 189.235C103.078 189.743 103.145 190.634 102.661 191.227C102.603 191.3 99.0629 195.786 98.9136 202.966C98.8979 203.736 98.2966 204.35 97.5647 204.35Z" fill="#000072"/>
<path d="M95.9802 202.379L99.2673 202.943C99.6618 203.011 99.9405 203.385 99.9079 203.802L99.6271 207.392C99.5904 207.862 99.1772 208.198 98.7336 208.119L95.0816 207.467C94.6575 207.391 94.3757 206.964 94.4573 206.521L95.1032 203.02C95.1818 202.592 95.5706 202.308 95.9802 202.379Z" fill="white"/>
<path d="M98.8615 209.262C98.7581 209.262 98.6542 209.253 98.5514 209.235L94.9 208.582C94.4059 208.494 93.9766 208.207 93.6914 207.775C93.4061 207.344 93.3017 206.822 93.3967 206.306L94.0426 202.804C94.2336 201.768 95.1611 201.093 96.1547 201.262L99.4421 201.826C100.384 201.987 101.062 202.896 100.984 203.894L100.703 207.484C100.661 208.025 100.403 208.524 99.9946 208.856C99.6693 209.121 99.2685 209.262 98.8615 209.262ZM95.5782 206.407L98.5787 206.943L98.8076 204.011L96.1054 203.547L95.5782 206.407Z" fill="#000072"/>
<path d="M113.322 206.295L116.257 204.645C116.61 204.447 117.048 204.566 117.265 204.918L119.128 207.945C119.372 208.341 119.239 208.871 118.841 209.092L115.565 210.904C115.185 211.115 114.713 210.956 114.521 210.553L112.999 207.363C112.813 206.974 112.956 206.501 113.322 206.295Z" fill="white"/>
<path d="M115.209 212.13C115.019 212.13 114.828 212.099 114.642 212.037C114.165 211.876 113.779 211.529 113.555 211.059L112.032 207.869C111.583 206.926 111.925 205.796 112.812 205.298L115.747 203.647C116.589 203.175 117.654 203.463 118.172 204.304L120.035 207.331C120.315 207.786 120.401 208.347 120.27 208.871C120.139 209.394 119.803 209.839 119.347 210.092L116.069 211.905C115.799 212.054 115.505 212.13 115.209 212.13ZM114.101 207.142L115.344 209.747L118.035 208.258L116.513 205.786L114.101 207.142Z" fill="#000072"/>
<path d="M99.6185 153.462C98.7554 155.378 97.5115 157.019 96.0455 158.469C94.5779 159.91 92.8487 161.121 90.9149 161.934C88.9964 162.767 86.8421 163.146 84.7532 162.924C83.7112 162.81 82.6871 162.564 81.7331 162.159C80.7736 161.772 79.885 161.234 79.0946 160.578C78.9171 160.431 78.8873 160.16 79.0278 159.974C79.1175 159.856 79.2548 159.8 79.3888 159.813L79.4051 159.815C81.3311 160.024 83.0901 160.2 84.8087 160.031C86.5191 159.896 88.1726 159.515 89.7866 158.888C91.4013 158.268 92.9612 157.396 94.4786 156.378C95.9923 155.36 97.4834 154.19 98.9289 152.941L98.9536 152.92C99.1376 152.761 99.4095 152.789 99.5611 152.981C99.6709 153.121 99.6872 153.308 99.6185 153.462Z" fill="#000072"/>
<path d="M84.7977 106.943C84.1976 103.776 84.7452 100.248 86.4973 97.2558C87.3832 95.7725 88.5838 94.4224 90.0874 93.4339C91.5812 92.4391 93.3865 91.8389 95.224 91.7908C97.0619 91.7427 98.9155 92.2603 100.49 93.1945C102.082 94.11 103.398 95.4214 104.412 96.8982C106.443 99.8657 107.299 103.501 107.039 106.943C106.968 107.88 106.185 108.579 105.291 108.505C104.5 108.439 103.887 107.791 103.805 106.994L103.8 106.942C103.509 104.158 102.652 101.503 101.138 99.4357C100.388 98.4064 99.4803 97.5452 98.481 96.9222C97.4725 96.3131 96.3684 95.9564 95.2238 95.9055C92.938 95.8089 90.6056 97.0222 88.8485 99.0778C87.9517 100.089 87.2148 101.306 86.6157 102.631C86.0148 103.959 85.5882 105.407 85.2602 106.942L85.2589 106.948C85.2304 107.081 85.1043 107.165 84.9773 107.136C84.8837 107.114 84.8154 107.035 84.7977 106.943Z" fill="#000072"/>
<path d="M68.0947 112.47C67.3627 111.096 66.5598 109.836 65.6224 108.742C64.6882 107.651 63.6504 106.704 62.5161 106.003C60.2729 104.558 57.7073 104.091 55.5422 104.867C54.4591 105.258 53.498 105.93 52.697 106.814C51.9086 107.71 51.2731 108.807 50.8339 110.017C49.945 112.452 49.8457 115.252 50.3242 118.008L50.333 118.058C50.4938 118.983 49.9084 119.869 49.026 120.037C48.246 120.186 47.4948 119.723 47.2198 118.975C46.034 115.755 45.8658 112.014 47.0052 108.563C47.576 106.845 48.481 105.195 49.7579 103.841C51.0127 102.475 52.6488 101.426 54.4233 100.923C56.1978 100.42 58.0915 100.456 59.7938 100.963C61.5037 101.462 63.0219 102.397 64.2746 103.554C66.7679 105.899 68.2523 109.117 68.5382 112.332C68.5503 112.467 68.4552 112.588 68.3254 112.6C68.2294 112.61 68.1419 112.558 68.0977 112.475L68.0947 112.47Z" fill="#000072"/>
<path d="M137.085 210.619C136.732 210.619 136.376 210.517 136.058 210.3C136.012 210.27 135.965 210.24 135.918 210.211L135.81 210.143C134.917 209.577 134.631 208.359 135.172 207.423C135.713 206.487 136.877 206.189 137.767 206.755L137.847 206.805C137.937 206.86 138.027 206.917 138.115 206.977C138.991 207.572 139.24 208.799 138.672 209.716C138.31 210.301 137.703 210.619 137.085 210.619Z" fill="#000072"/>
<path d="M137.368 210.803C137.018 210.803 136.664 210.702 136.347 210.488C136.287 210.448 136.22 210.403 136.16 210.366C135.258 209.815 134.952 208.603 135.478 207.658C136.002 206.711 137.161 206.391 138.062 206.942C138.168 207.007 138.287 207.086 138.392 207.157C139.27 207.749 139.524 208.974 138.959 209.894C138.598 210.483 137.989 210.803 137.368 210.803Z" fill="#000072"/>
<path d="M176.387 85.1853C175.328 86.188 174.013 87.818 173.327 90.1483L188.522 103.928L190.806 95.5877C191.089 94.5548 190.931 93.4395 190.351 92.5526C188.933 90.3806 185.67 86.4334 179.768 84.4566C178.596 84.0639 177.3 84.3204 176.387 85.1853Z" fill="#4A81FD"/>
<path d="M189.379 106.951L171.467 90.7067L171.779 89.6479C172.584 86.9133 174.138 85.0267 175.3 83.9259V83.9257C176.624 82.6739 178.525 82.2572 180.261 82.8394C186.62 84.9691 190.15 89.2385 191.688 91.5939C192.538 92.8952 192.784 94.5216 192.363 96.0566L189.379 106.951ZM175.238 89.6368L187.664 100.906L189.249 95.1192C189.402 94.5602 189.317 93.9744 189.015 93.5116C187.711 91.5153 184.712 87.8949 179.275 86.0736C178.632 85.8587 177.942 86.0012 177.473 86.4453C176.766 87.115 175.864 88.1734 175.238 89.6368Z" fill="#000072"/>
<path d="M188.614 125.42C182.522 138.704 168.815 145.056 157.999 139.608C147.184 134.16 143.354 118.974 149.447 105.69C155.539 92.4063 169.246 86.0538 180.062 91.5022C190.878 96.9502 194.707 112.136 188.614 125.42Z" fill="#4A81FD"/>
<g opacity="0.2">
<path d="M164.055 134.796C153.24 129.348 149.411 114.162 155.503 100.878C156.97 97.679 158.882 94.8868 161.086 92.5597C156.324 95.3021 152.141 99.817 149.447 105.69C143.354 118.974 147.184 134.16 157.999 139.608C166.21 143.744 176.084 141.074 183.031 133.738C177.022 137.199 170.089 137.835 164.055 134.796Z" fill="#000072"/>
</g>
<path d="M166.254 143.266C163.149 143.266 160.115 142.557 157.297 141.138C151.632 138.284 147.555 132.916 145.816 126.021C144.103 119.225 144.873 111.743 147.987 104.954C151.1 98.1661 156.193 92.862 162.328 90.019C168.551 87.1344 175.098 87.1184 180.764 89.9723C186.429 92.8257 190.506 98.1942 192.245 105.089C193.958 111.885 193.188 119.367 190.074 126.155C186.961 132.944 181.868 138.248 175.733 141.091C172.605 142.541 169.394 143.266 166.254 143.266ZM171.805 91.2437C169.109 91.2437 166.344 91.8707 163.638 93.1243C158.208 95.6409 153.687 100.364 150.907 106.426C148.127 112.486 147.432 119.138 148.949 125.154C150.441 131.071 153.905 135.661 158.701 138.077C163.497 140.493 169.08 140.461 174.423 137.986C179.853 135.469 184.374 130.745 187.154 124.684C189.934 118.623 190.629 111.972 189.113 105.956C187.62 100.038 184.157 95.4485 179.36 93.0324C176.993 91.84 174.432 91.2437 171.805 91.2437Z" fill="#000072"/>
<path d="M189.09 123.799C183.999 134.9 172.544 140.209 163.506 135.656C154.467 131.103 151.267 118.412 156.359 107.311C161.45 96.2099 172.905 90.9012 181.943 95.4543C190.982 100.007 194.182 112.697 189.09 123.799Z" fill="#F9ED32"/>
<g opacity="0.2">
<path d="M169.186 130.844C160.808 126.291 157.842 113.601 162.561 102.499C163.573 100.12 164.856 98.01 166.329 96.2031C162.249 98.4798 158.655 102.303 156.359 107.311C151.267 118.412 154.467 131.103 163.506 135.656C171.431 139.648 181.214 136.057 186.936 127.627C181.711 132.453 174.924 133.962 169.186 130.844Z" fill="#000072"/>
</g>
<path d="M170.405 138.709C167.81 138.709 165.275 138.116 162.921 136.931C158.188 134.547 154.781 130.061 153.328 124.3C151.896 118.622 152.54 112.37 155.142 106.698C157.743 101.026 161.999 96.5938 167.124 94.2184C172.325 91.809 177.795 91.7947 182.528 94.1791C187.262 96.5636 190.668 101.049 192.121 106.809C193.553 112.488 192.909 118.739 190.307 124.412C187.706 130.084 183.45 134.516 178.324 136.892C175.71 138.103 173.028 138.709 170.405 138.709ZM175.043 95.2342C172.79 95.2342 170.478 95.7584 168.217 96.8063C163.678 98.9097 159.899 102.858 157.575 107.924C155.252 112.99 154.671 118.549 155.939 123.578C157.186 128.524 160.081 132.361 164.091 134.38C168.101 136.4 172.768 136.373 177.233 134.304C181.771 132.2 185.551 128.252 187.874 123.186C190.197 118.12 190.779 112.561 189.511 107.532C188.263 102.586 185.368 98.7491 181.359 96.7296C179.379 95.7327 177.24 95.2342 175.043 95.2342Z" fill="#000072"/>
<path d="M181.507 118.834C183.504 114.479 182.249 109.501 178.703 107.715C175.158 105.929 170.664 108.011 168.667 112.366C166.669 116.721 167.925 121.7 171.471 123.486C175.016 125.272 179.51 123.189 181.507 118.834Z" fill="#F9ED32"/>
<path d="M174.159 125.537C173.042 125.537 171.93 125.288 170.885 124.762C166.675 122.641 165.133 116.806 167.45 111.754C169.767 106.703 175.079 104.32 179.288 106.441C183.499 108.562 185.04 114.397 182.724 119.448C180.982 123.247 177.546 125.537 174.159 125.537ZM175.994 108.49C173.623 108.49 171.162 110.193 169.883 112.98C168.212 116.625 169.186 120.766 172.055 122.211C174.924 123.657 178.619 121.867 180.291 118.222C181.962 114.577 180.988 110.436 178.119 108.991C177.444 108.651 176.723 108.49 175.994 108.49Z" fill="#000072"/>
<path d="M186.662 126.669C186.795 126.8 186.156 127.84 184.749 129.178C184.034 129.826 183.144 130.572 182.042 131.223C180.953 131.891 179.674 132.509 178.254 132.914C176.837 133.326 175.432 133.527 174.152 133.504C172.875 133.46 171.726 133.297 170.811 132.978C168.964 132.384 168.024 131.59 168.106 131.431C168.207 131.209 169.284 131.626 171.04 131.904C171.914 132.069 172.971 132.103 174.129 132.071C175.29 132.016 176.556 131.791 177.851 131.416C179.149 131.047 180.341 130.518 181.39 129.962C182.45 129.424 183.347 128.814 184.108 128.306C185.605 127.254 186.501 126.503 186.662 126.669Z" fill="#000072"/>
<path d="M161.215 123.443C161.058 123.528 160.14 122.137 159.519 119.512C158.901 116.915 158.77 113.041 159.997 109.1C160.599 107.136 161.432 105.359 162.382 103.875C163.323 102.385 164.37 101.196 165.321 100.299C167.249 98.5123 168.738 97.8804 168.826 98.0433C168.952 98.2437 167.696 99.1949 166.062 101.079C164.427 102.95 162.516 105.888 161.412 109.574C160.272 113.242 160.227 116.804 160.552 119.311C160.876 121.83 161.427 123.347 161.215 123.443Z" fill="#000072"/>
<path d="M106.605 224.05C105.947 224.05 105.269 224.011 104.591 223.933C94.7793 222.808 84.7018 212.595 79.5681 206.608C79.1615 206.134 78.9559 205.523 78.9881 204.887C79.0202 204.251 79.2871 203.666 79.7395 203.241C80.1577 202.847 80.6977 202.63 81.2598 202.63C81.9048 202.63 82.5218 202.918 82.9526 203.421C90.9504 212.748 99.0176 218.497 105.086 219.192C105.567 219.248 106.049 219.276 106.519 219.276C118.061 219.276 125.421 202.565 134.738 181.409L134.764 181.35C137.826 174.396 140.993 167.205 144.612 159.926C148.521 152.066 152.334 145.39 156.269 139.517C156.695 138.881 157.392 138.503 158.133 138.503C158.602 138.503 159.054 138.652 159.439 138.936C159.936 139.301 160.268 139.849 160.373 140.476C160.478 141.103 160.343 141.736 159.993 142.257C156.176 147.954 152.465 154.455 148.647 162.13C145.082 169.302 141.937 176.443 138.896 183.348C128.88 206.088 120.969 224.05 106.605 224.05Z" fill="#5A5E8C"/>
<path d="M158.133 139.351C158.424 139.351 158.717 139.442 158.973 139.63C159.636 140.117 159.795 141.075 159.33 141.769C155.492 147.498 151.762 154.029 147.929 161.737C144.355 168.926 141.206 176.077 138.16 182.992C128.317 205.342 120.451 223.201 106.605 223.201C105.975 223.201 105.335 223.164 104.679 223.089C95.1353 221.995 85.227 211.938 80.1702 206.041C79.6291 205.41 79.6787 204.439 80.2805 203.872C80.5605 203.608 80.9107 203.478 81.2597 203.478C81.6611 203.478 82.0608 203.65 82.3498 203.988C90.4793 213.468 98.7338 219.318 104.998 220.036C105.512 220.095 106.02 220.124 106.518 220.124C118.59 220.124 126.091 203.068 135.5 181.705C138.559 174.757 141.723 167.573 145.33 160.318C149.224 152.489 153.019 145.844 156.932 140.004C157.217 139.579 157.671 139.351 158.133 139.351ZM158.133 137.653C157.128 137.653 156.184 138.167 155.607 139.028C151.651 144.933 147.819 151.64 143.893 159.533C140.266 166.83 137.095 174.03 134.029 180.994L134.003 181.054C124.806 201.934 117.543 218.427 106.518 218.427C106.078 218.427 105.626 218.4 105.174 218.348C99.3012 217.675 91.4217 212.027 83.5547 202.853C82.9715 202.172 82.1346 201.781 81.2597 201.781C80.4977 201.781 79.7652 202.075 79.1978 202.609C77.9321 203.801 77.8282 205.85 78.9653 207.176C84.1765 213.253 94.4238 223.621 104.502 224.777C105.21 224.858 105.917 224.899 106.605 224.899C121.488 224.899 129.494 206.719 139.631 183.704C142.668 176.808 145.808 169.678 149.365 162.522C153.166 154.88 156.86 148.411 160.656 142.745C161.13 142.038 161.313 141.18 161.17 140.33C161.029 139.479 160.579 138.737 159.904 138.241C159.382 137.856 158.77 137.653 158.133 137.653Z" fill="#000072"/>
<path d="M138.898 231.717L138.874 231.768C138.874 231.768 139.484 236.825 134.542 236.631C131.446 236.513 129.546 234.128 129.311 231.282C127.324 230.489 124.759 228.979 124.266 226.374C120.555 225.13 119.456 223.011 119.602 220.779L117.991 221.706C116.491 222.566 114.635 222.31 113.399 221.066C112.608 220.273 112.198 219.198 112.198 218.113C112.198 217.401 112.374 216.69 112.73 216.04C115.749 210.583 123.641 200.132 136.788 208.449L136.754 208.464C136.867 208.521 136.979 208.577 137.086 208.639L137.111 208.654C148.685 214.837 144.461 231.738 144.461 231.738C144.73 231.825 141.706 233.094 138.898 231.717Z" fill="#FFB78A"/>
<path d="M138.898 231.717L138.874 231.768C138.874 231.768 139.484 236.825 134.542 236.631C131.446 236.513 129.546 234.128 129.311 231.282C127.324 230.489 124.759 228.979 124.266 226.374C120.555 225.13 119.456 223.011 119.602 220.779L117.991 221.706C116.491 222.566 114.635 222.31 113.399 221.066C112.608 220.273 112.198 219.198 112.198 218.113C112.198 217.401 112.374 216.69 112.73 216.04C115.749 210.583 123.641 200.132 136.788 208.449L136.754 208.464C136.867 208.521 136.979 208.577 137.086 208.639L137.111 208.654C148.685 214.837 144.461 231.738 144.461 231.738C144.73 231.825 141.706 233.094 138.898 231.717Z" fill="#FFB78A"/>
<path d="M134.82 238.051C134.712 238.051 134.602 238.049 134.491 238.045C131.242 237.921 128.71 235.598 128.085 232.285C125.506 231.102 123.823 229.456 123.155 227.466C120.29 226.334 119.001 224.661 118.504 223.021C116.502 224.093 114.094 223.726 112.464 222.086C111.437 221.057 110.848 219.608 110.848 218.113C110.848 217.144 111.094 216.184 111.56 215.334C113.416 211.98 117.466 206.106 123.769 204.411C128.076 203.253 132.691 204.204 137.486 207.237C137.533 207.267 137.577 207.299 137.619 207.333C137.657 207.354 137.694 207.375 137.732 207.396C137.744 207.403 137.756 207.409 137.767 207.417C148.157 213.006 146.757 226.537 146.026 230.793C146.327 231.013 146.536 231.358 146.589 231.755C146.669 232.346 146.386 232.926 145.882 233.204C144.628 233.896 142.688 234.458 140.121 233.705C139.959 234.567 139.608 235.553 138.879 236.388C137.914 237.492 136.55 238.051 134.82 238.051ZM119.602 219.365C119.855 219.365 120.108 219.439 120.329 219.587C120.745 219.866 120.982 220.36 120.949 220.876C120.869 222.095 121.169 223.851 124.677 225.026C125.145 225.182 125.495 225.593 125.59 226.098C125.979 228.155 128.389 229.4 129.792 229.96C130.276 230.153 130.612 230.62 130.656 231.161C130.805 232.968 131.925 235.115 134.591 235.217C135.645 235.257 136.413 235.013 136.879 234.487C137.559 233.718 137.582 232.386 137.534 231.937C137.505 231.667 137.549 231.385 137.664 231.141L137.688 231.09C138.014 230.401 138.805 230.11 139.471 230.436C140.835 231.105 142.083 231.356 143.199 231.186C143.597 229.357 146.322 215.162 136.497 209.915C136.467 209.899 136.438 209.881 136.409 209.863C136.354 209.832 136.262 209.786 136.171 209.741C136.046 209.678 135.933 209.596 135.835 209.5C131.777 207 127.943 206.209 124.44 207.151C119.091 208.59 115.54 213.782 113.899 216.75C113.67 217.166 113.548 217.639 113.548 218.113C113.548 218.84 113.834 219.544 114.333 220.043C115.146 220.862 116.355 221.031 117.342 220.465L118.953 219.539C119.155 219.423 119.379 219.365 119.602 219.365Z" fill="#000072"/>
<path d="M138.326 232.998C137.547 232.389 136.866 231.717 136.243 231.019C135.949 230.689 135.965 230.171 136.28 229.862C136.506 229.641 136.825 229.587 137.096 229.697L137.109 229.703C137.899 230.024 138.695 230.281 139.471 230.436C140.227 230.587 140.723 231.351 140.579 232.143C140.435 232.934 139.706 233.454 138.95 233.304C138.738 233.261 138.545 233.17 138.382 233.043L138.326 232.998Z" fill="#000072"/>
<path d="M128.05 230.192C129.183 228.242 130.941 227.038 132.693 226.526C132.743 226.512 132.794 226.543 132.808 226.594C132.817 226.631 132.806 226.669 132.781 226.693C131.453 227.955 130.665 229.628 130.587 231.161C130.545 231.974 129.882 232.599 129.106 232.555C128.329 232.512 127.733 231.817 127.775 231.003C127.788 230.753 127.859 230.521 127.975 230.32L128.05 230.192Z" fill="#000072"/>
<path d="M122.801 225.984C122.942 225.242 123.206 224.556 123.552 223.969C123.897 223.38 124.307 222.877 124.743 222.438C125.618 221.559 126.595 220.921 127.585 220.372C127.727 220.294 127.903 220.35 127.978 220.499C128.038 220.618 128.015 220.759 127.931 220.851L127.928 220.855C127.177 221.675 126.498 222.556 126.038 223.488C125.807 223.951 125.634 224.423 125.539 224.879C125.441 225.336 125.437 225.773 125.495 226.17C125.61 226.959 125.092 227.697 124.339 227.817C123.585 227.937 122.882 227.394 122.767 226.605C122.743 226.435 122.747 226.269 122.777 226.11L122.801 225.984Z" fill="#000072"/>
<path d="M124.6 212.342C124.098 212.985 123.628 213.679 123.194 214.376C122.764 215.079 122.358 215.794 122.022 216.529C121.688 217.264 121.387 218.007 121.198 218.749C121.01 219.488 120.913 220.219 120.949 220.872C120.992 221.658 120.42 222.332 119.67 222.377C118.92 222.423 118.277 221.822 118.233 221.036C118.227 220.929 118.233 220.824 118.249 220.722L118.255 220.687C118.425 219.64 118.777 218.722 119.192 217.886C119.611 217.05 120.118 216.31 120.643 215.605C121.171 214.902 121.748 214.259 122.34 213.643C122.937 213.029 123.547 212.45 124.206 211.907C124.331 211.804 124.511 211.826 124.61 211.957C124.694 212.07 124.69 212.227 124.606 212.334L124.6 212.342Z" fill="#000072"/>
<path d="M80.003 190.862L118.059 247.025C118.649 247.895 118.951 248.967 118.809 250.024C118.667 251.09 118.077 252.156 116.286 252.156C113.036 252.156 54.1052 249.067 43.2066 248.494C42.117 248.437 41.1185 247.85 40.5004 246.908L9.65509 199.873C9.10235 199.031 8.80189 198.033 8.81042 197.01L8.81139 196.919C8.84984 194.536 10.4783 192.507 12.7126 192.06C20.3914 190.523 50.7192 185.044 76.5814 188.698C77.959 188.893 79.1982 189.675 80.003 190.862Z" fill="#C0BECC"/>
<g opacity="0.6">
<path d="M46.4426 248.188L15.5973 201.153C15.0445 200.31 14.7441 199.312 14.7526 198.29L14.7536 198.199C14.792 195.815 16.4204 193.787 18.6547 193.34C25.9519 191.879 53.7019 186.859 78.6368 189.5C78.0216 189.083 77.3231 188.803 76.5814 188.698C50.7192 185.044 20.3914 190.523 12.7126 192.06C10.4784 192.507 8.84984 194.536 8.8114 196.919L8.81043 197.01C8.80179 198.033 9.10235 199.031 9.65509 199.873L40.5004 246.908C41.1185 247.85 42.1171 248.437 43.2066 248.494C44.1076 248.541 45.3429 248.606 46.842 248.685C46.6976 248.532 46.5612 248.368 46.4426 248.188Z" fill="white"/>
</g>
<g opacity="0.3">
<path d="M118.811 250.026C118.669 251.09 118.078 252.155 116.286 252.155C113.038 252.155 54.1043 249.069 43.2083 248.495C42.1192 248.439 41.118 247.85 40.5027 246.908L46.5812 246.331C71.1435 243.996 85.8579 216.597 75.0171 193.381L77.9963 189.132C78.7924 189.506 79.4859 190.1 80.0036 190.862L118.059 247.026C118.65 247.896 118.953 248.966 118.811 250.026Z" fill="#000072"/>
</g>
<path d="M116.286 253.854C113.117 253.854 59.4868 251.049 43.1255 250.19C41.5445 250.106 40.0642 249.239 39.1657 247.87L8.32021 200.835C7.57037 199.692 7.17962 198.364 7.19064 196.995L7.19172 196.899C7.24237 193.72 9.4366 190.987 12.4088 190.393C20.9787 188.677 50.9487 183.364 76.7985 187.016C78.6157 187.273 80.2653 188.316 81.3241 189.88L119.38 246.041C120.241 247.31 120.607 248.809 120.413 250.259C120.113 252.51 118.57 253.854 116.286 253.854ZM57.3215 189.153C37.7793 189.153 19.3924 192.452 13.0163 193.728C11.5434 194.023 10.4566 195.377 10.4317 196.947L10.4306 197.03C10.4248 197.692 10.6183 198.345 10.9902 198.911L41.8355 245.946C42.1704 246.457 42.6998 246.768 43.2878 246.799C54.921 247.41 113.113 250.458 116.286 250.458C117.115 250.458 117.151 250.192 117.205 249.788C117.283 249.208 117.112 248.559 116.739 248.008L78.6821 191.846V191.845C78.1405 191.046 77.2962 190.512 76.365 190.381C70.1444 189.502 63.6713 189.153 57.3215 189.153Z" fill="#000072"/>
<path d="M115.306 253.545C114.816 253.545 114.343 253.264 114.104 252.776C114.028 252.623 113.95 252.487 113.872 252.373L75.8112 196.201C75.2275 195.341 74.3151 194.766 73.3079 194.624C47.9301 191.033 18.3392 196.276 9.87476 197.969C9.68598 198.007 9.48931 198.066 9.2921 198.144C8.5928 198.42 7.81553 198.05 7.55244 197.319C7.28979 196.588 7.64208 195.772 8.33976 195.496C8.67931 195.362 9.0248 195.259 9.36544 195.19C17.9348 193.477 47.8869 188.173 73.6692 191.82C75.4131 192.066 76.9962 193.066 78.0119 194.562L116.068 250.727C116.219 250.946 116.368 251.204 116.505 251.483C116.846 252.178 116.585 253.031 115.922 253.388C115.724 253.494 115.513 253.545 115.306 253.545Z" fill="#000072"/>
<path d="M65.1268 204.119L61.4412 205.428L62.4391 209.069C61.0312 209.387 59.5086 210.545 58.8035 213.802C57.3145 220.679 52.0692 224.895 48.5219 225.882C44.9747 226.87 47.2421 235.761 58.8391 230.617C70.3773 225.498 69.8134 212.368 65.9106 209.681C67.0695 205.978 65.1268 204.119 65.1268 204.119Z" fill="#F6DA1E"/>
<path d="M52.4641 233.347C50.0025 233.347 48.4869 232.478 47.6469 231.746C46.2938 230.566 45.6594 228.854 45.9916 227.277C46.2521 226.039 47.0943 225.108 48.2444 224.788C51.1547 223.979 56.3085 220.212 57.7503 213.552C58.4211 210.456 59.8038 209.008 61.1189 208.351L60.4033 205.741C60.244 205.161 60.5484 204.551 61.0946 204.357L64.7802 203.047C65.1525 202.916 65.565 203.006 65.8549 203.284C65.9493 203.374 68.0234 205.417 67.1438 209.27C68.8466 210.965 69.761 214.252 69.4541 217.8C69.2015 220.719 67.7028 227.914 59.26 231.659C56.4508 232.905 54.2171 233.347 52.4641 233.347ZM62.7638 206.154L63.4772 208.756C63.5601 209.057 63.52 209.381 63.366 209.65C63.2125 209.918 62.9594 210.109 62.6672 210.175C61.2925 210.485 60.3464 211.79 59.8565 214.052C58.1928 221.74 52.3318 225.993 48.7991 226.976C48.4236 227.08 48.1891 227.346 48.1009 227.764C47.9833 228.323 48.1558 229.244 49.028 230.005C49.8817 230.749 52.5053 232.197 58.4184 229.574C65.7848 226.307 67.0858 220.108 67.3031 217.595C67.6031 214.125 66.5316 211.463 65.3176 210.627C64.9095 210.346 64.7323 209.814 64.8841 209.328C65.4927 207.384 65.0888 206.104 64.7385 205.452L62.7638 206.154Z" fill="#000072"/>
<path d="M64.2735 211.053C64.6787 212.425 64.6192 213.877 64.384 215.271C64.1308 216.667 63.6415 218.007 63.0078 219.252L62.5121 220.175C62.3331 220.473 62.1356 220.759 61.9469 221.049C61.5859 221.645 61.1281 222.161 60.7076 222.704C60.2693 223.231 59.7807 223.709 59.313 224.202C58.8017 224.649 58.3023 225.105 57.7795 225.528C57.6885 225.602 57.5577 225.584 57.4875 225.489C57.4272 225.407 57.4312 225.295 57.491 225.218L57.5002 225.206C57.9149 224.673 58.3576 224.179 58.781 223.667L59.9842 222.083C60.7349 220.995 61.4787 219.905 62.0585 218.722C62.6444 217.546 63.1533 216.328 63.4971 215.053C63.8364 213.783 64.0674 212.45 64.0303 211.113L64.0297 211.095C64.0276 211.023 64.0819 210.963 64.1508 210.961C64.2078 210.959 64.2572 210.998 64.2735 211.053Z" fill="#000072"/>
<path d="M157.17 146.311C156.453 146.311 155.728 146.097 155.085 145.65C153.345 144.441 152.869 141.983 154.023 140.159L155.839 137.289C156.993 135.465 159.338 134.966 161.078 136.176C162.818 137.385 163.294 139.843 162.14 141.667L160.324 144.538C159.597 145.688 158.395 146.311 157.17 146.311Z" fill="#000072"/>
<g opacity="0.3">
<path d="M137.131 208.291L137.106 208.276C136.999 208.214 136.886 208.158 136.774 208.101L136.808 208.086C136.189 207.694 135.585 207.357 134.988 207.046C138.126 210.173 142.646 215.731 142.272 221.51C141.702 230.297 135.841 223.045 132.829 224.24C129.818 225.434 121.189 221.169 121.841 217.586C122.492 214.003 122.655 213.747 122.655 213.747C122.655 213.747 119.48 214.6 117.201 216.989C115.823 218.433 114.208 216.634 113.145 214.986C113.006 215.222 112.873 215.455 112.75 215.677C112.394 216.327 112.218 217.038 112.218 217.75C112.218 218.835 112.628 219.91 113.419 220.703C114.655 221.947 116.511 222.203 118.01 221.343L119.622 220.416C119.475 222.648 120.574 224.767 124.286 226.011C124.779 228.616 127.343 230.126 129.331 230.919C129.565 233.765 131.465 236.15 134.561 236.268C139.504 236.462 138.894 231.406 138.894 231.406L138.918 231.354C141.726 232.731 144.749 231.462 144.481 231.375C144.481 231.375 148.705 214.474 137.131 208.291Z" fill="#000072"/>
</g>
<path d="M92.6533 114.12C97.0694 112.011 102.754 116.237 105.351 123.559C107.948 130.881 106.473 138.525 102.057 140.634C97.6409 142.743 91.9557 138.517 89.359 131.195C86.7622 123.873 88.2373 116.228 92.6533 114.12Z" fill="#000072"/>
<path d="M93.7958 117.168C95.4269 117.355 96.72 119.705 96.6842 122.417C96.6484 125.128 95.2973 127.174 93.6661 126.987C92.0352 126.799 90.7419 124.449 90.7778 121.738C90.8137 119.026 92.1648 116.98 93.7958 117.168Z" fill="white"/>
<path d="M93.8738 127.306C93.7942 127.306 93.7145 127.301 93.6338 127.292C91.8598 127.088 90.4471 124.595 90.4846 121.734C90.5083 119.957 91.0794 118.38 92.0123 117.516C92.5545 117.014 93.1783 116.79 93.828 116.863C95.6321 117.07 97.0159 119.511 96.9773 122.421C96.9541 124.197 96.383 125.773 95.4501 126.638C94.9754 127.078 94.435 127.306 93.8738 127.306ZM93.5917 117.463C93.1741 117.463 92.7654 117.639 92.4005 117.977C91.5894 118.728 91.0922 120.136 91.071 121.742C91.0372 124.295 92.2159 126.511 93.6982 126.681C94.1733 126.736 94.6469 126.562 95.0619 126.178C95.873 125.426 96.3702 124.018 96.3909 122.413C96.4247 119.859 95.246 117.644 93.7637 117.473C93.7061 117.467 93.6492 117.463 93.5917 117.463Z" fill="#000072"/>
<path d="M102.901 131.687C103.739 132.028 104.191 133.414 103.911 134.783C103.631 136.151 102.724 136.983 101.886 136.642C101.048 136.3 100.596 134.914 100.877 133.546C101.157 132.178 102.064 131.345 102.901 131.687Z" fill="#B199C5"/>
<path d="M102.271 137.027C102.106 137.027 101.941 136.994 101.78 136.928C100.799 136.528 100.276 135.014 100.591 133.481C100.777 132.569 101.24 131.825 101.83 131.492C102.215 131.274 102.622 131.243 103.007 131.4C103.989 131.8 104.511 133.314 104.198 134.847C104.011 135.76 103.547 136.504 102.958 136.836C102.734 136.963 102.502 137.027 102.271 137.027ZM102.517 131.917C102.382 131.917 102.245 131.956 102.108 132.033C101.668 132.282 101.315 132.871 101.163 133.61C100.917 134.815 101.296 136.072 101.992 136.356C102.216 136.446 102.448 136.427 102.68 136.296C103.12 136.047 103.473 135.457 103.625 134.718C103.871 133.514 103.492 132.257 102.795 131.973C102.704 131.936 102.61 131.917 102.517 131.917Z" fill="#000072"/>
<path d="M60.8729 125.508C65.0152 123.468 70.4212 127.388 72.9474 134.262C75.4738 141.137 74.1636 148.363 70.0213 150.403C65.879 152.443 60.473 148.524 57.9466 141.649C55.4204 134.775 56.7306 127.548 60.8729 125.508Z" fill="#000072"/>
<path d="M61.9826 128.369C63.5227 128.527 64.7672 130.729 64.762 133.286C64.7569 135.843 63.5043 137.789 61.9641 137.631C60.4241 137.473 59.1797 135.272 59.1849 132.714C59.1899 130.157 60.4424 128.211 61.9826 128.369Z" fill="white"/>
<path d="M62.1393 137.947C62.0718 137.947 62.0038 137.944 61.9357 137.936C60.2235 137.761 58.8867 135.467 58.8914 132.713C58.8951 131.033 59.4188 129.535 60.2932 128.706C60.8026 128.223 61.3964 127.997 62.0112 128.064C63.7235 128.239 65.0608 130.533 65.0551 133.287C65.052 134.967 64.5283 136.465 63.6539 137.294C63.2008 137.724 62.6809 137.947 62.1393 137.947ZM61.8113 128.668C61.4147 128.668 61.0287 128.837 60.6865 129.161C59.9329 129.876 59.481 131.205 59.4779 132.715C59.4731 135.114 60.6016 137.183 61.9928 137.325C62.4394 137.368 62.8766 137.203 63.2605 136.839C64.0141 136.124 64.466 134.795 64.4687 133.286C64.4739 130.886 63.3459 128.818 61.9543 128.675C61.9062 128.67 61.8588 128.668 61.8113 128.668Z" fill="#000072"/>
<path d="M70.723 141.956C71.5169 142.268 71.9579 143.57 71.7081 144.864C71.4583 146.157 70.6122 146.953 69.8184 146.64C69.0246 146.328 68.5836 145.026 68.8335 143.732C69.0832 142.439 69.9293 141.643 70.723 141.956Z" fill="#B199C5"/>
<path d="M70.1713 147.016C70.0183 147.016 69.8654 146.987 69.7156 146.928C68.778 146.559 68.2643 145.129 68.546 143.671C68.7137 142.804 69.1456 142.093 69.7019 141.77C70.0663 141.557 70.4555 141.523 70.8256 141.668C71.7633 142.037 72.2769 143.467 71.9953 144.925C71.8276 145.792 71.3957 146.503 70.8394 146.827C70.6222 146.953 70.3964 147.016 70.1713 147.016ZM70.3712 142.195C70.2435 142.195 70.1149 142.232 69.9863 142.307C69.5781 142.544 69.2544 143.1 69.1209 143.793C68.9021 144.924 69.269 146.096 69.9214 146.353C70.1281 146.433 70.3417 146.413 70.5552 146.289C70.9633 146.052 71.2871 145.496 71.4206 144.803C71.6394 143.672 71.2724 142.5 70.6201 142.243C70.5378 142.211 70.4546 142.195 70.3712 142.195Z" fill="#000072"/>
</svg>
