<svg width="362" height="92" viewBox="0 0 362 92" fill="none" xmlns="http://www.w3.org/2000/svg">
<g filter="url(#filter0_d_1_26)">
<rect width="350" height="80" fill="#636CCB"/>
<path d="M124.59 24.5625V53H119.727V24.5625H124.59ZM133.516 24.5625V28.4688H110.879V24.5625H133.516ZM141.836 31.8672V53H137.109V31.8672H141.836ZM136.797 26.3203C136.797 25.6042 137.031 25.0117 137.5 24.543C137.982 24.0612 138.646 23.8203 139.492 23.8203C140.326 23.8203 140.983 24.0612 141.465 24.543C141.947 25.0117 142.188 25.6042 142.188 26.3203C142.188 27.0234 141.947 27.6094 141.465 28.0781C140.983 28.5469 140.326 28.7812 139.492 28.7812C138.646 28.7812 137.982 28.5469 137.5 28.0781C137.031 27.6094 136.797 27.0234 136.797 26.3203ZM151.738 23V53H147.012V23H151.738ZM164.863 31.8672L155.664 42.0625L150.625 47.2188L149.395 43.2344L153.203 38.5273L159.18 31.8672H164.863ZM160.195 53L153.34 43.0781L156.309 39.7773L165.645 53H160.195ZM177.539 31.8672V35.3047H165.625V31.8672H177.539ZM169.062 26.6914H173.77V47.1602C173.77 47.8112 173.861 48.3125 174.043 48.6641C174.238 49.0026 174.505 49.2305 174.844 49.3477C175.182 49.4648 175.579 49.5234 176.035 49.5234C176.361 49.5234 176.673 49.5039 176.973 49.4648C177.272 49.4258 177.513 49.3867 177.695 49.3477L177.715 52.9414C177.324 53.0586 176.868 53.1628 176.348 53.2539C175.84 53.3451 175.254 53.3906 174.59 53.3906C173.509 53.3906 172.552 53.2018 171.719 52.8242C170.885 52.4336 170.234 51.8021 169.766 50.9297C169.297 50.0573 169.062 48.8984 169.062 47.4531V26.6914ZM179.805 42.668V42.2188C179.805 40.6953 180.026 39.2826 180.469 37.9805C180.911 36.6654 181.549 35.526 182.383 34.5625C183.229 33.5859 184.258 32.8307 185.469 32.2969C186.693 31.75 188.073 31.4766 189.609 31.4766C191.159 31.4766 192.539 31.75 193.75 32.2969C194.974 32.8307 196.009 33.5859 196.855 34.5625C197.702 35.526 198.346 36.6654 198.789 37.9805C199.232 39.2826 199.453 40.6953 199.453 42.2188V42.668C199.453 44.1914 199.232 45.6042 198.789 46.9062C198.346 48.2083 197.702 49.3477 196.855 50.3242C196.009 51.2878 194.98 52.043 193.77 52.5898C192.559 53.1237 191.185 53.3906 189.648 53.3906C188.099 53.3906 186.712 53.1237 185.488 52.5898C184.277 52.043 183.249 51.2878 182.402 50.3242C181.556 49.3477 180.911 48.2083 180.469 46.9062C180.026 45.6042 179.805 44.1914 179.805 42.668ZM184.512 42.2188V42.668C184.512 43.6185 184.609 44.5169 184.805 45.3633C185 46.2096 185.306 46.9518 185.723 47.5898C186.139 48.2279 186.673 48.7292 187.324 49.0938C187.975 49.4583 188.75 49.6406 189.648 49.6406C190.521 49.6406 191.276 49.4583 191.914 49.0938C192.565 48.7292 193.099 48.2279 193.516 47.5898C193.932 46.9518 194.238 46.2096 194.434 45.3633C194.642 44.5169 194.746 43.6185 194.746 42.668V42.2188C194.746 41.2812 194.642 40.3958 194.434 39.5625C194.238 38.7161 193.926 37.9674 193.496 37.3164C193.079 36.6654 192.546 36.1576 191.895 35.793C191.257 35.4154 190.495 35.2266 189.609 35.2266C188.724 35.2266 187.956 35.4154 187.305 35.793C186.667 36.1576 186.139 36.6654 185.723 37.3164C185.306 37.9674 185 38.7161 184.805 39.5625C184.609 40.3958 184.512 41.2812 184.512 42.2188ZM208.145 23V53H203.418V23H208.145ZM221.27 31.8672L212.07 42.0625L207.031 47.2188L205.801 43.2344L209.609 38.5273L215.586 31.8672H221.27ZM216.602 53L209.746 43.0781L212.715 39.7773L222.051 53H216.602Z" fill="white"/>
<path d="M65.4167 21.975C63.4234 19.6986 62.3247 16.7757 62.325 13.75H53.3125V49.9167C53.2444 51.8743 52.4186 53.729 51.0092 55.0894C49.5999 56.4498 47.7172 57.2095 45.7583 57.2083C41.6167 57.2083 38.175 53.825 38.175 49.625C38.175 44.6083 43.0167 40.8458 48.0042 42.3917V33.175C37.9417 31.8333 29.1333 39.65 29.1333 49.625C29.1333 59.3375 37.1833 66.25 45.7292 66.25C54.8875 66.25 62.325 58.8125 62.325 49.625V31.2792C65.9796 33.9037 70.3673 35.3119 74.8667 35.3042V26.2917C74.8667 26.2917 69.3833 26.5542 65.4167 21.975Z" fill="white"/>
<path d="M321.642 49L311.008 38.356L300.374 49L298 46.6272L308.651 36L298 25.3728L300.374 23L311.008 33.644L321.642 23.0167L324 25.3728L313.366 36L324 46.6272L321.642 49Z" fill="white"/>
</g>
<defs>
<filter id="filter0_d_1_26" x="0" y="0" width="362" height="92" filterUnits="userSpaceOnUse" color-interpolation-filters="sRGB">
<feFlood flood-opacity="0" result="BackgroundImageFix"/>
<feColorMatrix in="SourceAlpha" type="matrix" values="0 0 0 0 0 0 0 0 0 0 0 0 0 0 0 0 0 0 127 0" result="hardAlpha"/>
<feOffset dx="7" dy="7"/>
<feGaussianBlur stdDeviation="2.5"/>
<feComposite in2="hardAlpha" operator="out"/>
<feColorMatrix type="matrix" values="0 0 0 0 0 0 0 0 0 0 0 0 0 0 0 0 0 0 0.5 0"/>
<feBlend mode="normal" in2="BackgroundImageFix" result="effect1_dropShadow_1_26"/>
<feBlend mode="normal" in="SourceGraphic" in2="effect1_dropShadow_1_26" result="shape"/>
</filter>
</defs>
</svg>
