<svg width="363" height="96" viewBox="0 0 363 96" fill="none" xmlns="http://www.w3.org/2000/svg">
<g clip-path="url(#clip0_1_34)" filter="url(#filter0_d_1_34)">
<rect width="350" height="80" transform="translate(0 3.5302) rotate(-0.577912)" fill="#636CCB"/>
<path d="M67.8019 16.597C71.6695 16.558 75.3941 18.057 78.1564 20.7641C80.9188 23.4713 82.4926 27.165 82.5316 31.0325L82.7669 54.3646C82.806 58.2322 81.307 61.9568 78.5998 64.7192C75.8926 67.4815 72.199 69.0553 68.3314 69.0943L44.9993 69.3297C41.1318 69.3687 37.4071 67.8697 34.6448 65.1625C31.8824 62.4554 30.3086 58.7617 30.2696 54.8942L30.0343 31.562C29.9953 27.6945 31.4942 23.9699 34.2014 21.2075C36.9086 18.4451 40.6022 16.8714 44.4698 16.8323L67.8019 16.597ZM56.2829 31.2973C53.1889 31.3285 50.234 32.5875 48.0682 34.7974C45.9025 37.0073 44.7033 39.987 44.7345 43.081C44.7657 46.175 46.0248 49.13 48.2347 51.2957C50.4445 53.4615 53.4242 54.6606 56.5183 54.6294C59.6123 54.5982 62.5672 53.3392 64.733 51.1293C66.8987 48.9194 68.0979 45.9397 68.0667 42.8457C68.0355 39.7516 66.7764 36.7967 64.5666 34.631C62.3567 32.4652 59.377 31.2661 56.2829 31.2973ZM56.3418 37.1303C57.8888 37.1147 59.3786 37.7143 60.4836 38.7972C61.5885 39.88 62.218 41.3575 62.2336 42.9045C62.2492 44.4515 61.6497 45.9414 60.5668 47.0463C59.4839 48.1513 58.0065 48.7808 56.4594 48.7964C54.9124 48.812 53.4226 48.2124 52.3176 47.1295C51.2127 46.0466 50.5832 44.5692 50.5676 43.0222C50.552 41.4752 51.1515 39.9853 52.2344 38.8804C53.3173 37.7754 54.7948 37.1459 56.3418 37.1303ZM69.3631 26.7901C68.5896 26.7979 67.8509 27.1127 67.3095 27.6651C66.768 28.2176 66.4682 28.9625 66.476 29.736C66.4838 30.5096 66.7986 31.2483 67.3511 31.7897C67.9035 32.3312 68.6485 32.6309 69.422 32.6231C70.1955 32.6153 70.9342 32.3006 71.4756 31.7481C72.0171 31.1956 72.3169 30.4507 72.3091 29.6772C72.3013 28.9037 71.9865 28.165 71.434 27.6235C70.8816 27.0821 70.1366 26.7823 69.3631 26.7901Z" fill="white"/>
<path d="M123.573 28.6913L123.831 54.2838L119.419 54.3283L119.161 28.7358L123.573 28.6913ZM132.943 39.2321L133.094 54.1904L128.858 54.2331L128.666 35.2145L132.656 35.1743L132.943 39.2321ZM132.235 43.9856L130.864 43.9819C130.862 42.6342 131.037 41.396 131.389 40.2674C131.753 39.1387 132.258 38.1667 132.906 37.3515C133.566 36.5363 134.357 35.9072 135.278 35.4642C136.199 35.0096 137.228 34.7766 138.365 34.7651C139.279 34.7559 140.107 34.8765 140.847 35.1268C141.6 35.3653 142.243 35.7632 142.776 36.3203C143.32 36.8773 143.738 37.6056 144.028 38.5051C144.318 39.3928 144.47 40.487 144.483 41.7877L144.607 54.0742L140.353 54.1171L140.229 41.8131C140.22 40.8991 140.078 40.1797 139.803 39.6551C139.54 39.1187 139.155 38.7417 138.649 38.5242C138.155 38.2948 137.538 38.1838 136.8 38.1912C136.073 38.1986 135.425 38.3574 134.853 38.6679C134.282 38.9784 133.8 39.3993 133.407 39.9306C133.026 40.4618 132.733 41.0742 132.529 41.7677C132.325 42.4612 132.227 43.2005 132.235 43.9856ZM159.548 48.7729C159.544 48.351 159.435 47.9712 159.221 47.6335C159.006 47.2841 158.599 46.9718 157.998 46.6966C157.409 46.4213 156.54 46.1722 155.389 45.9494C154.379 45.737 153.45 45.4826 152.604 45.1865C151.769 44.8785 151.05 44.5048 150.448 44.0656C149.846 43.6263 149.377 43.1037 149.043 42.4976C148.709 41.8916 148.538 41.1902 148.53 40.3933C148.522 39.6199 148.684 38.8858 149.017 38.191C149.35 37.4962 149.83 36.882 150.458 36.3483C151.085 35.8146 151.849 35.3909 152.748 35.0771C153.659 34.7632 154.677 34.6006 155.802 34.5892C157.395 34.5732 158.763 34.8289 159.905 35.3565C161.059 35.8722 161.945 36.584 162.564 37.4919C163.182 38.388 163.497 39.4044 163.509 40.5411L159.272 40.5838C159.267 40.0799 159.134 39.6125 158.872 39.1815C158.621 38.7387 158.242 38.3851 157.736 38.1207C157.229 37.8445 156.595 37.7103 155.833 37.718C155.107 37.7253 154.504 37.8486 154.026 38.0878C153.56 38.3152 153.211 38.6117 152.981 38.9773C152.762 39.3428 152.654 39.7423 152.659 40.1759C152.662 40.4923 152.723 40.7788 152.843 41.0354C152.974 41.2802 153.188 41.5066 153.483 41.7145C153.778 41.9108 154.178 42.0943 154.684 42.265C155.201 42.4355 155.847 42.5989 156.622 42.7552C158.078 43.0452 159.33 43.4252 160.378 43.8951C161.438 44.3532 162.252 44.9544 162.822 45.6987C163.392 46.4312 163.683 47.3659 163.694 48.5025C163.703 49.3462 163.529 50.1215 163.173 50.8282C162.828 51.5231 162.319 52.1318 161.644 52.6543C160.97 53.165 160.159 53.5658 159.213 53.8566C158.278 54.1473 157.225 54.2985 156.053 54.3103C154.331 54.3277 152.869 54.0378 151.667 53.4405C150.466 52.8315 149.55 52.0497 148.919 51.095C148.3 50.1286 147.985 49.1239 147.974 48.081L152.07 48.0397C152.125 48.8243 152.348 49.449 152.739 49.9139C153.142 50.3669 153.638 50.6959 154.226 50.9009C154.826 51.0941 155.442 51.1875 156.075 51.1811C156.836 51.1734 157.474 51.0673 157.987 50.8629C158.501 50.6468 158.891 50.3616 159.157 50.0073C159.422 49.6414 159.553 49.2299 159.548 48.7729ZM175.984 34.7372L176.015 37.8308L165.293 37.939L165.262 34.8454L175.984 34.7372ZM168.308 30.1562L172.544 30.1135L172.73 48.5344C172.736 49.1203 172.823 49.5707 172.99 49.8854C173.169 50.1883 173.411 50.3909 173.717 50.4933C174.023 50.5957 174.381 50.6448 174.791 50.6407C175.084 50.6377 175.365 50.6173 175.634 50.5795C175.903 50.5416 176.119 50.5042 176.283 50.4674L176.333 53.7015C175.983 53.8105 175.574 53.9084 175.106 53.9951C174.65 54.0818 174.123 54.1281 173.525 54.1341C172.552 54.1439 171.689 53.9827 170.936 53.6504C170.183 53.3065 169.591 52.744 169.161 51.9632C168.731 51.1823 168.51 50.1415 168.497 48.8408L168.308 30.1562ZM190.129 49.8004L190.037 40.7306C190.03 40.0509 189.901 39.4662 189.65 38.9766C189.399 38.4869 189.021 38.1098 188.514 37.8454C188.019 37.5808 187.397 37.4523 186.647 37.4599C185.955 37.4669 185.359 37.5901 184.857 37.8295C184.356 38.069 183.966 38.3893 183.689 38.7906C183.412 39.1918 183.276 39.6444 183.281 40.1483L179.062 40.1908C179.055 39.4409 179.229 38.7125 179.585 38.0058C179.942 37.299 180.463 36.6668 181.148 36.109C181.834 35.5513 182.656 35.1094 183.614 34.7833C184.571 34.4572 185.648 34.2882 186.843 34.2761C188.273 34.2617 189.541 34.4892 190.647 34.9585C191.765 35.4277 192.645 36.1454 193.288 37.1116C193.942 38.066 194.277 39.2698 194.291 40.7228L194.377 49.1775C194.385 50.0446 194.452 50.8233 194.576 51.5135C194.712 52.1918 194.899 52.7817 195.139 53.2833L195.142 53.5645L190.8 53.6083C190.596 53.1533 190.432 52.5748 190.308 51.8729C190.195 51.1592 190.135 50.4683 190.129 49.8004ZM190.666 42.0426L190.727 44.6613L187.686 44.692C186.901 44.6999 186.211 44.783 185.615 44.9414C185.018 45.088 184.523 45.304 184.127 45.5892C183.731 45.8745 183.436 46.2173 183.241 46.6178C183.046 47.0182 182.951 47.4703 182.956 47.9742C182.961 48.4781 183.083 48.9398 183.321 49.3593C183.56 49.7671 183.903 50.0859 184.35 50.3157C184.81 50.5455 185.362 50.6571 186.006 50.6506C186.873 50.6419 187.627 50.4585 188.268 50.1004C188.921 49.7306 189.432 49.2859 189.802 48.7665C190.172 48.2354 190.366 47.7354 190.384 47.2665L191.774 49.1334C191.639 49.6152 191.404 50.1333 191.069 50.6875C190.735 51.2416 190.295 51.7734 189.749 52.2829C189.215 52.7805 188.569 53.1913 187.811 53.5154C187.064 53.8393 186.198 54.0063 185.214 54.0162C183.972 54.0287 182.862 53.7938 181.884 53.3115C180.907 52.8174 180.138 52.1513 179.579 51.3131C179.02 50.4633 178.734 49.4993 178.724 48.4212C178.713 47.4135 178.892 46.521 179.259 45.7438C179.638 44.9548 180.194 44.2929 180.927 43.7582C181.671 43.2233 182.581 42.8156 183.657 42.5352C184.732 42.2431 185.961 42.0901 187.344 42.0762L190.666 42.0426ZM210.84 34.3857L214.689 34.3468L214.875 52.8381C214.893 54.5489 214.544 56.0056 213.83 57.2082C213.115 58.4108 212.111 59.3292 210.816 59.9634C209.522 60.6093 208.019 60.9408 206.308 60.9581C205.582 60.9654 204.772 60.8681 203.88 60.6662C202.999 60.4641 202.14 60.1329 201.303 59.6726C200.478 59.2238 199.787 58.6273 199.228 57.8829L201.189 55.3669C201.877 56.1686 202.633 56.7528 203.457 57.1195C204.281 57.4862 205.144 57.665 206.047 57.6559C207.019 57.6461 207.844 57.4561 208.52 57.086C209.207 56.7275 209.735 56.2006 210.103 55.5055C210.471 54.8103 210.65 53.9647 210.64 52.9687L210.496 38.696L210.84 34.3857ZM198.018 44.2362L198.015 43.8671C198 42.4257 198.163 41.1115 198.502 39.9244C198.842 38.7256 199.335 37.6952 199.983 36.8332C200.63 35.9594 201.42 35.2893 202.353 34.8228C203.286 34.3446 204.344 34.0996 205.528 34.0877C206.758 34.0752 207.809 34.2873 208.681 34.7238C209.564 35.1603 210.303 35.7915 210.897 36.6176C211.491 37.432 211.958 38.4117 212.298 39.5568C212.649 40.69 212.914 41.953 213.092 43.3458L213.104 44.5235C212.965 45.8843 212.72 47.1291 212.368 48.2577C212.016 49.3863 211.546 50.3637 210.956 51.19C210.367 52.0163 209.635 52.6565 208.761 53.1107C207.898 53.5647 206.875 53.7977 205.691 53.8097C204.531 53.8214 203.48 53.5917 202.538 53.1207C201.607 52.6496 200.804 51.9839 200.127 51.1235C199.462 50.2629 198.948 49.2485 198.584 48.0803C198.221 46.9003 198.032 45.6189 198.018 44.2362ZM202.251 43.8243L202.254 44.1934C202.263 45.0606 202.353 45.8683 202.525 46.6166C202.708 47.3648 202.979 48.0242 203.336 48.5949C203.705 49.1537 204.166 49.5944 204.72 49.9169C205.286 50.2276 205.95 50.3791 206.711 50.3715C207.708 50.3614 208.52 50.1423 209.148 49.714C209.789 49.2857 210.275 48.7124 210.608 47.9942C210.952 47.2641 211.19 46.453 211.321 45.561L211.289 42.3796C211.212 41.6889 211.059 41.0459 210.83 40.4505C210.613 39.855 210.321 39.3364 209.953 38.8948C209.585 38.4415 209.125 38.0945 208.572 37.854C208.018 37.6018 207.367 37.4794 206.617 37.487C205.855 37.4947 205.195 37.6654 204.635 37.9992C204.076 38.333 203.618 38.7888 203.26 39.3666C202.915 39.9444 202.658 40.615 202.49 41.3784C202.322 42.1419 202.242 42.9572 202.251 43.8243ZM223.373 37.8805L223.529 53.2782L219.293 53.3209L219.101 34.3023L223.144 34.2615L223.373 37.8805ZM229.154 34.0779L229.158 38.0155C228.9 37.9712 228.618 37.9389 228.314 37.9186C228.02 37.8981 227.727 37.8893 227.434 37.8923C226.708 37.8996 226.07 38.0115 225.522 38.228C224.973 38.4328 224.513 38.7304 224.142 39.1209C223.782 39.4995 223.506 39.9594 223.312 40.5004C223.118 41.0414 223.007 41.6461 222.979 42.3144L222.013 42.3945C222.001 41.1992 222.107 40.0907 222.331 39.0688C222.555 38.047 222.897 37.147 223.358 36.3689C223.831 35.5906 224.422 34.9811 225.133 34.5403C225.855 34.0994 226.691 33.8742 227.64 33.8646C227.898 33.862 228.173 33.8827 228.467 33.9266C228.772 33.9704 229.001 34.0208 229.154 34.0779ZM242.052 49.2767L241.96 40.2068C241.954 39.5272 241.825 38.9425 241.574 38.4528C241.322 37.9631 240.944 37.5861 240.437 37.3216C239.942 37.0571 239.32 36.9286 238.57 36.9362C237.878 36.9431 237.282 37.0663 236.78 37.3058C236.279 37.5452 235.89 37.8656 235.612 38.2668C235.335 38.6681 235.199 39.1207 235.204 39.6245L230.986 39.6671C230.978 38.9171 231.152 38.1888 231.509 37.482C231.865 36.7753 232.386 36.143 233.072 35.5853C233.757 35.0276 234.579 34.5857 235.537 34.2596C236.494 33.9335 237.571 33.7644 238.766 33.7524C240.196 33.738 241.464 33.9654 242.57 34.4348C243.688 34.904 244.569 35.6217 245.211 36.5879C245.865 37.5423 246.2 38.746 246.214 40.1991L246.3 48.6537C246.308 49.5209 246.375 50.2995 246.499 50.9897C246.635 51.6681 246.822 52.258 247.062 52.7595L247.065 53.0408L242.723 53.0845C242.519 52.6295 242.355 52.0511 242.231 51.3492C242.118 50.6354 242.059 49.9446 242.052 49.2767ZM242.589 41.5189L242.65 44.1376L239.61 44.1682C238.824 44.1762 238.134 44.2593 237.538 44.4177C236.942 44.5643 236.446 44.7803 236.05 45.0655C235.655 45.3508 235.359 45.6936 235.164 46.094C234.969 46.4945 234.874 46.9466 234.879 47.4505C234.884 47.9544 235.006 48.4161 235.244 48.8355C235.483 49.2433 235.826 49.5621 236.274 49.792C236.733 50.0218 237.285 50.1334 237.929 50.1269C238.797 50.1181 239.551 49.9347 240.192 49.5767C240.844 49.2068 241.355 48.7622 241.725 48.2428C242.095 47.7117 242.289 47.2117 242.308 46.7427L243.698 48.6096C243.562 49.0915 243.327 49.6095 242.992 50.1637C242.658 50.7179 242.218 51.2497 241.673 51.7591C241.139 52.2567 240.492 52.6676 239.734 52.9916C238.987 53.3156 238.121 53.4825 237.137 53.4925C235.895 53.505 234.785 53.2701 233.808 52.7877C232.83 52.2937 232.061 51.6276 231.502 50.7894C230.943 49.9395 230.658 48.9756 230.647 47.8975C230.637 46.8897 230.815 45.9973 231.182 45.2201C231.561 44.4311 232.117 43.7692 232.85 43.2344C233.594 42.6995 234.504 42.2919 235.58 42.0115C236.655 41.7194 237.884 41.5664 239.267 41.5524L242.589 41.5189ZM254.857 37.809L255.01 52.9606L250.773 53.0033L250.582 33.9848L254.572 33.9445L254.857 37.809ZM254.221 42.7552L252.78 42.7521C252.766 41.4397 252.918 40.2252 253.235 39.1087C253.552 37.9921 254.023 37.0205 254.647 36.1939C255.271 35.3555 256.05 34.709 256.983 34.2542C257.928 33.7876 259.021 33.5481 260.263 33.5355C261.13 33.5268 261.923 33.6477 262.64 33.8983C263.369 34.1371 264 34.5233 264.533 35.057C265.077 35.5906 265.494 36.2778 265.784 37.1187C266.085 37.9595 266.242 38.9775 266.254 40.1727L266.382 52.8459L262.146 52.8886L262.022 40.5846C262.013 39.6588 261.865 38.9337 261.578 38.4092C261.303 37.8847 260.907 37.5136 260.389 37.2962C259.883 37.0669 259.278 36.9558 258.575 36.9629C257.778 36.9709 257.1 37.1301 256.541 37.4405C255.993 37.7507 255.546 38.1712 255.2 38.7021C254.854 39.233 254.602 39.8449 254.445 40.5379C254.288 41.231 254.213 41.97 254.221 42.7552ZM266.004 41.5112L264.022 41.9707C264.011 40.8223 264.158 39.7368 264.464 38.7141C264.782 37.6796 265.247 36.7725 265.86 35.9929C266.485 35.2014 267.258 34.5783 268.18 34.1237C269.101 33.6691 270.159 33.4357 271.354 33.4237C272.327 33.4139 273.196 33.5399 273.96 33.8017C274.736 34.0517 275.396 34.4552 275.941 35.0123C276.486 35.5693 276.903 36.2975 277.194 37.197C277.484 38.0847 277.635 39.1614 277.648 40.427L277.772 52.731L273.518 52.7739L273.394 40.4523C273.384 39.4914 273.236 38.7487 272.95 38.2242C272.675 37.6996 272.285 37.3403 271.779 37.1461C271.273 36.9403 270.668 36.8409 269.965 36.848C269.309 36.8546 268.73 36.9835 268.229 37.2347C267.739 37.474 267.326 37.8122 266.991 38.2492C266.655 38.6745 266.402 39.1634 266.232 39.7159C266.074 40.2683 265.998 40.8668 266.004 41.5112Z" fill="white"/>
<path d="M329.17 54.2127L318.429 43.6765L307.903 54.4272L305.505 52.0785L316.048 41.3444L305.291 30.8251L307.641 28.4285L318.382 38.9647L328.908 28.2307L331.29 30.5628L320.763 41.2968L331.504 51.8163L329.17 54.2127Z" fill="white"/>
</g>
<defs>
<filter id="filter0_d_1_34" x="0" y="0" width="362.789" height="95.5261" filterUnits="userSpaceOnUse" color-interpolation-filters="sRGB">
<feFlood flood-opacity="0" result="BackgroundImageFix"/>
<feColorMatrix in="SourceAlpha" type="matrix" values="0 0 0 0 0 0 0 0 0 0 0 0 0 0 0 0 0 0 127 0" result="hardAlpha"/>
<feOffset dx="7" dy="7"/>
<feGaussianBlur stdDeviation="2.5"/>
<feComposite in2="hardAlpha" operator="out"/>
<feColorMatrix type="matrix" values="0 0 0 0 0 0 0 0 0 0 0 0 0 0 0 0 0 0 0.5 0"/>
<feBlend mode="normal" in2="BackgroundImageFix" result="effect1_dropShadow_1_34"/>
<feBlend mode="normal" in="SourceGraphic" in2="effect1_dropShadow_1_34" result="shape"/>
</filter>
<clipPath id="clip0_1_34">
<rect width="350" height="80" fill="white" transform="translate(0 3.5302) rotate(-0.577912)"/>
</clipPath>
</defs>
</svg>
