<svg width="1867" height="947" viewBox="0 0 1867 947" fill="none" xmlns="http://www.w3.org/2000/svg">
<rect x="4" y="2.42676" width="1863" height="943.811" rx="100" fill="black"/>
<rect x="4" y="2.42676" width="1863" height="943.811" rx="100" fill="url(#paint0_linear_192_55)"/>
<ellipse cx="1577.84" cy="178.605" rx="225.759" ry="174.081" fill="url(#paint1_linear_192_55)"/>
<ellipse cx="1513.16" cy="389.389" rx="225.759" ry="174.081" fill="url(#paint2_linear_192_55)"/>
<g filter="url(#filter0_f_192_55)">
<path d="M624.618 4C679.846 4 725.895 50.2013 705.628 101.577C696.735 124.118 684.756 146.246 669.764 167.735C633.55 219.646 580.469 266.813 513.554 306.543C446.638 346.274 367.198 377.79 279.768 399.292C223.281 413.184 164.173 422.721 103.887 427.731C48.8487 432.304 4 387.089 4 331.861V104C4 48.7714 48.7715 4 104 4H624.618Z" fill="url(#paint3_linear_192_55)"/>
</g>
<path d="M1639.95 445.533C1694.32 428.709 1735.67 420.893 1782.83 421.635C1831.69 422.405 1867 466.024 1867 514.895V846.281C1867 901.509 1822.23 946.281 1767 946.281H1653.58C1639.89 946.281 1626.3 943.589 1613.9 937.799C1593.74 928.388 1579.03 919.955 1557.79 905.863C1517.34 875.442 1498.53 855.554 1477.41 823.038C1473.15 816.483 1469.99 809.28 1466.41 802.33C1457.16 784.354 1441.56 762.451 1439.42 707.178C1437.44 656.232 1443.66 631.712 1466.52 591.929C1482.03 564.94 1503.45 535.154 1526.52 514.251C1553.25 490.026 1593.62 459.869 1639.95 445.533Z" fill="black"/>
<path d="M1639.95 445.533C1694.32 428.709 1735.67 420.893 1782.83 421.635C1831.69 422.405 1867 466.024 1867 514.895V846.281C1867 901.509 1822.23 946.281 1767 946.281H1653.58C1639.89 946.281 1626.3 943.589 1613.9 937.799C1593.74 928.388 1579.03 919.955 1557.79 905.863C1517.34 875.442 1498.53 855.554 1477.41 823.038C1473.15 816.483 1469.99 809.28 1466.41 802.33C1457.16 784.354 1441.56 762.451 1439.42 707.178C1437.44 656.232 1443.66 631.712 1466.52 591.929C1482.03 564.94 1503.45 535.154 1526.52 514.251C1553.25 490.026 1593.62 459.869 1639.95 445.533Z" fill="url(#paint4_linear_192_55)" fill-opacity="0.5"/>
<g opacity="0.25">
<rect x="4" y="2.42676" width="1863" height="943.811" rx="100" fill="black"/>
<rect x="4" y="2.42676" width="1863" height="943.811" rx="100" fill="url(#paint5_linear_192_55)"/>
</g>
<g opacity="0.5">
<rect x="4" y="2.42676" width="1863" height="943.811" rx="100" fill="#313131"/>
<rect x="4" y="2.42676" width="1863" height="943.811" rx="100" fill="url(#paint6_linear_192_55)"/>
</g>
<path d="M1202.42 671.027H1205.62V693.427H1202.42V671.027ZM1189.56 693.427H1186.36V671.027H1189.56V693.427ZM1202.71 683.443H1189.24V680.659H1202.71V683.443ZM1221.61 693.683C1218.66 693.683 1216.35 692.84 1214.66 691.155C1212.98 689.469 1212.14 687.005 1212.14 683.763V671.027H1215.34V683.635C1215.34 686.131 1215.88 687.955 1216.97 689.107C1218.08 690.259 1219.64 690.835 1221.64 690.835C1223.67 690.835 1225.22 690.259 1226.31 689.107C1227.42 687.955 1227.98 686.131 1227.98 683.635V671.027H1231.08V683.763C1231.08 687.005 1230.24 689.469 1228.55 691.155C1226.89 692.84 1224.57 693.683 1221.61 693.683ZM1237.64 693.427V671.027H1247.69C1250.27 671.027 1252.25 671.549 1253.64 672.595C1255.03 673.619 1255.72 675.027 1255.72 676.819C1255.72 678.035 1255.44 679.059 1254.89 679.891C1254.36 680.723 1253.63 681.363 1252.71 681.811C1251.8 682.259 1250.8 682.483 1249.74 682.483L1250.31 681.523C1251.59 681.523 1252.72 681.747 1253.71 682.195C1254.69 682.643 1255.47 683.304 1256.04 684.179C1256.62 685.032 1256.91 686.099 1256.91 687.379C1256.91 689.299 1256.18 690.792 1254.73 691.859C1253.3 692.904 1251.17 693.427 1248.33 693.427H1237.64ZM1240.84 690.835H1248.2C1249.97 690.835 1251.33 690.536 1252.27 689.939C1253.2 689.341 1253.67 688.403 1253.67 687.123C1253.67 685.821 1253.2 684.872 1252.27 684.275C1251.33 683.677 1249.97 683.379 1248.2 683.379H1240.55V680.787H1247.4C1249.02 680.787 1250.28 680.488 1251.18 679.891C1252.07 679.293 1252.52 678.397 1252.52 677.203C1252.52 676.008 1252.07 675.112 1251.18 674.515C1250.28 673.917 1249.02 673.619 1247.4 673.619H1240.84V690.835ZM1271.14 693.683C1268.2 693.683 1265.88 692.84 1264.2 691.155C1262.51 689.469 1261.67 687.005 1261.67 683.763V671.027H1264.87V683.635C1264.87 686.131 1265.41 687.955 1266.5 689.107C1267.61 690.259 1269.17 690.835 1271.17 690.835C1273.2 690.835 1274.76 690.259 1275.84 689.107C1276.95 687.955 1277.51 686.131 1277.51 683.635V671.027H1280.61V683.763C1280.61 687.005 1279.77 689.469 1278.08 691.155C1276.42 692.84 1274.11 693.683 1271.14 693.683ZM1287.17 693.427V671.027H1289.8L1304.61 689.427H1303.24V671.027H1306.44V693.427H1303.81L1289 675.027H1290.37V693.427H1287.17ZM1323.25 693.683C1321.53 693.683 1319.94 693.405 1318.49 692.851C1317.03 692.275 1315.78 691.475 1314.71 690.451C1313.64 689.405 1312.81 688.189 1312.21 686.803C1311.62 685.416 1311.32 683.891 1311.32 682.227C1311.32 680.563 1311.62 679.037 1312.21 677.651C1312.81 676.264 1313.64 675.059 1314.71 674.035C1315.8 672.989 1317.07 672.189 1318.52 671.635C1319.97 671.059 1321.57 670.771 1323.32 670.771C1325.09 670.771 1326.71 671.059 1328.18 671.635C1329.65 672.211 1330.9 673.075 1331.93 674.227L1329.94 676.211C1329.02 675.315 1328.02 674.664 1326.93 674.259C1325.87 673.832 1324.7 673.619 1323.45 673.619C1322.17 673.619 1320.97 673.832 1319.86 674.259C1318.77 674.685 1317.82 675.283 1317.01 676.051C1316.22 676.819 1315.61 677.736 1315.16 678.803C1314.73 679.848 1314.52 680.989 1314.52 682.227C1314.52 683.443 1314.73 684.584 1315.16 685.651C1315.61 686.696 1316.22 687.613 1317.01 688.403C1317.82 689.171 1318.77 689.768 1319.86 690.195C1320.95 690.621 1322.13 690.835 1323.41 690.835C1324.61 690.835 1325.75 690.653 1326.84 690.291C1327.95 689.907 1328.97 689.277 1329.91 688.403L1331.73 690.835C1330.62 691.773 1329.32 692.488 1327.83 692.979C1326.36 693.448 1324.83 693.683 1323.25 693.683ZM1328.66 690.419V682.099H1331.73V690.835L1328.66 690.419ZM1337.86 693.427V671.027H1341.06V693.427H1337.86ZM1359.18 688.019L1359.02 684.115L1371.72 671.027H1375.37L1365.54 681.395L1363.75 683.379L1359.18 688.019ZM1356.36 693.427V671.027H1359.56V693.427H1356.36ZM1372.23 693.427L1363.05 682.739L1365.19 680.371L1375.98 693.427H1372.23ZM1375.06 693.427L1385.21 671.027H1388.37L1398.55 693.427H1395.19L1386.13 672.819H1387.41L1378.36 693.427H1375.06ZM1379.38 687.827L1380.25 685.267H1392.85L1393.78 687.827H1379.38ZM1401.89 693.427V671.027H1404.52L1414.56 687.955H1413.16L1423.08 671.027H1425.7L1425.73 693.427H1422.66L1422.63 675.859H1423.36L1414.53 690.707H1413.06L1404.16 675.859H1404.96V693.427H1401.89ZM1432.45 693.427V671.027H1435.65V693.427H1432.45Z" fill="white"/>
<rect x="1137" y="639.427" width="347" height="91" rx="29" stroke="white" stroke-width="2"/>
<path d="M107.424 647.027H110.624V669.427H107.424V647.027ZM94.56 669.427H91.36V647.027H94.56V669.427ZM107.712 659.443H94.24V656.659H107.712V659.443ZM126.609 669.683C123.665 669.683 121.35 668.84 119.665 667.155C117.979 665.469 117.137 663.005 117.137 659.763V647.027H120.337V659.635C120.337 662.131 120.881 663.955 121.969 665.107C123.078 666.259 124.635 666.835 126.641 666.835C128.667 666.835 130.225 666.259 131.313 665.107C132.422 663.955 132.977 662.131 132.977 659.635V647.027H136.081V659.763C136.081 663.005 135.238 665.469 133.553 667.155C131.889 668.84 129.574 669.683 126.609 669.683ZM142.641 669.427V647.027H152.689C155.271 647.027 157.255 647.549 158.641 648.595C160.028 649.619 160.721 651.027 160.721 652.819C160.721 654.035 160.444 655.059 159.889 655.891C159.356 656.723 158.631 657.363 157.713 657.811C156.796 658.259 155.804 658.483 154.737 658.483L155.313 657.523C156.593 657.523 157.724 657.747 158.705 658.195C159.687 658.643 160.465 659.304 161.041 660.179C161.617 661.032 161.905 662.099 161.905 663.379C161.905 665.299 161.18 666.792 159.729 667.859C158.3 668.904 156.167 669.427 153.329 669.427H142.641ZM145.841 666.835H153.201C154.972 666.835 156.327 666.536 157.265 665.939C158.204 665.341 158.673 664.403 158.673 663.123C158.673 661.821 158.204 660.872 157.265 660.275C156.327 659.677 154.972 659.379 153.201 659.379H145.553V656.787H152.401C154.023 656.787 155.281 656.488 156.177 655.891C157.073 655.293 157.521 654.397 157.521 653.203C157.521 652.008 157.073 651.112 156.177 650.515C155.281 649.917 154.023 649.619 152.401 649.619H145.841V666.835ZM176.14 669.683C173.196 669.683 170.881 668.84 169.196 667.155C167.511 665.469 166.668 663.005 166.668 659.763V647.027H169.868V659.635C169.868 662.131 170.412 663.955 171.5 665.107C172.609 666.259 174.167 666.835 176.172 666.835C178.199 666.835 179.756 666.259 180.844 665.107C181.953 663.955 182.508 662.131 182.508 659.635V647.027H185.612V659.763C185.612 663.005 184.769 665.469 183.084 667.155C181.42 668.84 179.105 669.683 176.14 669.683ZM192.173 669.427V647.027H194.797L209.613 665.427H208.237V647.027H211.437V669.427H208.812L193.997 651.027H195.373V669.427H192.173ZM228.253 669.683C226.525 669.683 224.936 669.405 223.485 668.851C222.035 668.275 220.776 667.475 219.709 666.451C218.643 665.405 217.811 664.189 217.213 662.803C216.616 661.416 216.317 659.891 216.317 658.227C216.317 656.563 216.616 655.037 217.213 653.651C217.811 652.264 218.643 651.059 219.709 650.035C220.797 648.989 222.067 648.189 223.517 647.635C224.968 647.059 226.568 646.771 228.317 646.771C230.088 646.771 231.709 647.059 233.181 647.635C234.653 648.211 235.901 649.075 236.925 650.227L234.941 652.211C234.024 651.315 233.021 650.664 231.933 650.259C230.867 649.832 229.704 649.619 228.445 649.619C227.165 649.619 225.971 649.832 224.861 650.259C223.773 650.685 222.824 651.283 222.013 652.051C221.224 652.819 220.605 653.736 220.157 654.803C219.731 655.848 219.517 656.989 219.517 658.227C219.517 659.443 219.731 660.584 220.157 661.651C220.605 662.696 221.224 663.613 222.013 664.403C222.824 665.171 223.773 665.768 224.861 666.195C225.949 666.621 227.133 666.835 228.413 666.835C229.608 666.835 230.749 666.653 231.837 666.291C232.947 665.907 233.971 665.277 234.909 664.403L236.733 666.835C235.624 667.773 234.323 668.488 232.829 668.979C231.357 669.448 229.832 669.683 228.253 669.683ZM233.661 666.419V658.099H236.733V666.835L233.661 666.419ZM242.86 669.427V647.027H246.06V669.427H242.86ZM264.176 664.019L264.016 660.115L276.72 647.027H280.368L270.544 657.395L268.752 659.379L264.176 664.019ZM261.36 669.427V647.027H264.56V669.427H261.36ZM277.232 669.427L268.048 658.739L270.192 656.371L280.976 669.427H277.232ZM280.062 669.427L290.206 647.027H293.374L303.55 669.427H300.19L291.134 648.819H292.414L283.358 669.427H280.062ZM284.382 663.827L285.246 661.267H297.854L298.782 663.827H284.382ZM306.891 669.427V647.027H309.515L319.563 663.955H318.155L328.075 647.027H330.699L330.731 669.427H327.659L327.627 651.859H328.363L319.531 666.707H318.059L309.163 651.859H309.963V669.427H306.891ZM337.454 669.427V647.027H340.654V669.427H337.454ZM355.954 669.427V647.027H365.394C367.783 647.027 369.884 647.496 371.698 648.435C373.532 649.373 374.951 650.685 375.954 652.371C376.978 654.056 377.49 656.008 377.49 658.227C377.49 660.445 376.978 662.397 375.954 664.083C374.951 665.768 373.532 667.08 371.698 668.019C369.884 668.957 367.783 669.427 365.394 669.427H355.954ZM359.154 666.643H365.202C367.058 666.643 368.658 666.291 370.002 665.587C371.367 664.883 372.423 663.901 373.17 662.643C373.916 661.363 374.29 659.891 374.29 658.227C374.29 656.541 373.916 655.069 373.17 653.811C372.423 652.552 371.367 651.571 370.002 650.867C368.658 650.163 367.058 649.811 365.202 649.811H359.154V666.643ZM378.687 669.427L388.831 647.027H391.999L402.175 669.427H398.815L389.759 648.819H391.039L381.983 669.427H378.687ZM383.007 663.827L383.871 661.267H396.479L397.407 663.827H383.007ZM405.516 669.427V647.027H408.14L422.956 665.427H421.58V647.027H424.78V669.427H422.156L407.34 651.027H408.716V669.427H405.516ZM450.095 669.683C448.388 669.683 446.809 669.405 445.359 668.851C443.929 668.275 442.681 667.475 441.615 666.451C440.569 665.405 439.748 664.189 439.151 662.803C438.553 661.416 438.255 659.891 438.255 658.227C438.255 656.563 438.553 655.037 439.151 653.651C439.748 652.264 440.58 651.059 441.647 650.035C442.713 648.989 443.961 648.189 445.391 647.635C446.841 647.059 448.42 646.771 450.127 646.771C451.855 646.771 453.444 647.069 454.895 647.667C456.367 648.243 457.615 649.107 458.639 650.259L456.559 652.275C455.705 651.379 454.745 650.717 453.679 650.291C452.612 649.843 451.471 649.619 450.255 649.619C448.996 649.619 447.823 649.832 446.735 650.259C445.668 650.685 444.74 651.283 443.951 652.051C443.161 652.819 442.543 653.736 442.095 654.803C441.668 655.848 441.455 656.989 441.455 658.227C441.455 659.464 441.668 660.616 442.095 661.683C442.543 662.728 443.161 663.635 443.951 664.403C444.74 665.171 445.668 665.768 446.735 666.195C447.823 666.621 448.996 666.835 450.255 666.835C451.471 666.835 452.612 666.621 453.679 666.195C454.745 665.747 455.705 665.064 456.559 664.147L458.639 666.163C457.615 667.315 456.367 668.189 454.895 668.787C453.444 669.384 451.844 669.683 450.095 669.683ZM466.116 656.691H477.636V659.411H466.116V656.691ZM466.404 666.643H479.46V669.427H463.204V647.027H479.012V649.811H466.404V666.643ZM484.641 669.427V647.027H493.377C495.34 647.027 497.015 647.336 498.401 647.955C499.788 648.573 500.855 649.469 501.601 650.643C502.348 651.816 502.721 653.213 502.721 654.835C502.721 656.456 502.348 657.853 501.601 659.027C500.855 660.179 499.788 661.064 498.401 661.683C497.015 662.301 495.34 662.611 493.377 662.611H486.401L487.841 661.139V669.427H484.641ZM499.617 669.427L493.921 661.299H497.345L503.105 669.427H499.617ZM487.841 661.459L486.401 659.891H493.281C495.329 659.891 496.876 659.453 497.921 658.579C498.988 657.683 499.521 656.435 499.521 654.835C499.521 653.235 498.988 651.997 497.921 651.123C496.876 650.248 495.329 649.811 493.281 649.811H486.401L487.841 648.211V661.459ZM507.891 669.427V647.027H511.091V669.427H507.891ZM522.246 669.427V649.811H514.566V647.027H533.094V649.811H525.414V669.427H522.246ZM532.062 669.427L542.206 647.027H545.374L555.55 669.427H552.19L543.134 648.819H544.414L535.358 669.427H532.062ZM536.382 663.827L537.246 661.267H549.854L550.782 663.827H536.382ZM561.707 664.019L561.547 660.115L574.251 647.027H577.899L568.075 657.395L566.283 659.379L561.707 664.019ZM558.891 669.427V647.027H562.091V669.427H558.891ZM574.763 669.427L565.579 658.739L567.723 656.371L578.507 669.427H574.763ZM577.593 669.427L587.737 647.027H590.905L601.081 669.427H597.721L588.665 648.819H589.945L580.889 669.427H577.593ZM581.913 663.827L582.777 661.267H595.385L596.313 663.827H581.913ZM604.423 669.427V647.027H607.047L621.863 665.427H620.487V647.027H623.687V669.427H621.062L606.247 651.027H607.623V669.427H604.423ZM635.593 669.427L645.737 647.027H648.905L659.081 669.427H655.721L646.665 648.819H647.945L638.889 669.427H635.593ZM639.913 663.827L640.777 661.267H653.385L654.313 663.827H639.913ZM662.423 669.427V647.027H671.159C673.121 647.027 674.796 647.336 676.183 647.955C677.569 648.573 678.636 649.469 679.383 650.643C680.129 651.816 680.503 653.213 680.503 654.835C680.503 656.456 680.129 657.853 679.383 659.027C678.636 660.179 677.569 661.075 676.183 661.715C674.796 662.333 673.121 662.643 671.159 662.643H664.183L665.623 661.139V669.427H662.423ZM665.623 661.459L664.183 659.859H671.063C673.111 659.859 674.657 659.421 675.703 658.547C676.769 657.672 677.303 656.435 677.303 654.835C677.303 653.235 676.769 651.997 675.703 651.123C674.657 650.248 673.111 649.811 671.063 649.811H664.183L665.623 648.211V661.459ZM680.687 669.427L690.831 647.027H693.999L704.175 669.427H700.815L691.759 648.819H693.039L683.983 669.427H680.687ZM685.007 663.827L685.871 661.267H698.479L699.407 663.827H685.007ZM721.518 669.427V660.851L722.254 662.835L712.622 647.027H716.046L724.142 660.371H722.286L730.414 647.027H733.582L723.982 662.835L724.686 660.851V669.427H721.518ZM732.093 669.427L742.237 647.027H745.405L755.581 669.427H752.221L743.165 648.819H744.445L735.389 669.427H732.093ZM736.413 663.827L737.277 661.267H749.885L750.813 663.827H736.413ZM758.923 669.427V647.027H761.547L776.363 665.427H774.987V647.027H778.187V669.427H775.562L760.747 651.027H762.123V669.427H758.923ZM795.003 669.683C793.275 669.683 791.686 669.405 790.235 668.851C788.785 668.275 787.526 667.475 786.459 666.451C785.393 665.405 784.561 664.189 783.963 662.803C783.366 661.416 783.067 659.891 783.067 658.227C783.067 656.563 783.366 655.037 783.963 653.651C784.561 652.264 785.393 651.059 786.459 650.035C787.547 648.989 788.817 648.189 790.267 647.635C791.718 647.059 793.318 646.771 795.067 646.771C796.838 646.771 798.459 647.059 799.931 647.635C801.403 648.211 802.651 649.075 803.675 650.227L801.691 652.211C800.774 651.315 799.771 650.664 798.683 650.259C797.617 649.832 796.454 649.619 795.195 649.619C793.915 649.619 792.721 649.832 791.611 650.259C790.523 650.685 789.574 651.283 788.763 652.051C787.974 652.819 787.355 653.736 786.907 654.803C786.481 655.848 786.267 656.989 786.267 658.227C786.267 659.443 786.481 660.584 786.907 661.651C787.355 662.696 787.974 663.613 788.763 664.403C789.574 665.171 790.523 665.768 791.611 666.195C792.699 666.621 793.883 666.835 795.163 666.835C796.358 666.835 797.499 666.653 798.587 666.291C799.697 665.907 800.721 665.277 801.659 664.403L803.483 666.835C802.374 667.773 801.073 668.488 799.579 668.979C798.107 669.448 796.582 669.683 795.003 669.683ZM800.411 666.419V658.099H803.483V666.835L800.411 666.419ZM818.204 669.427V647.027H827.644C830.033 647.027 832.134 647.496 833.948 648.435C835.782 649.373 837.201 650.685 838.204 652.371C839.228 654.056 839.74 656.008 839.74 658.227C839.74 660.445 839.228 662.397 838.204 664.083C837.201 665.768 835.782 667.08 833.948 668.019C832.134 668.957 830.033 669.427 827.644 669.427H818.204ZM821.404 666.643H827.452C829.308 666.643 830.908 666.291 832.252 665.587C833.617 664.883 834.673 663.901 835.42 662.643C836.166 661.363 836.54 659.891 836.54 658.227C836.54 656.541 836.166 655.069 835.42 653.811C834.673 652.552 833.617 651.571 832.252 650.867C830.908 650.163 829.308 649.811 827.452 649.811H821.404V666.643ZM844.641 669.427V647.027H847.841V669.427H844.641ZM854.548 669.427V647.027H864.596C867.177 647.027 869.161 647.549 870.548 648.595C871.934 649.619 872.628 651.027 872.628 652.819C872.628 654.035 872.35 655.059 871.796 655.891C871.262 656.723 870.537 657.363 869.62 657.811C868.702 658.259 867.71 658.483 866.644 658.483L867.22 657.523C868.5 657.523 869.63 657.747 870.612 658.195C871.593 658.643 872.372 659.304 872.948 660.179C873.524 661.032 873.812 662.099 873.812 663.379C873.812 665.299 873.086 666.792 871.636 667.859C870.206 668.904 868.073 669.427 865.236 669.427H854.548ZM857.748 666.835H865.108C866.878 666.835 868.233 666.536 869.172 665.939C870.11 665.341 870.58 664.403 870.58 663.123C870.58 661.821 870.11 660.872 869.172 660.275C868.233 659.677 866.878 659.379 865.108 659.379H857.46V656.787H864.308C865.929 656.787 867.188 656.488 868.083 655.891C868.98 655.293 869.428 654.397 869.428 653.203C869.428 652.008 868.98 651.112 868.083 650.515C867.188 649.917 865.929 649.619 864.308 649.619H857.748V666.835ZM888.046 669.683C885.102 669.683 882.788 668.84 881.102 667.155C879.417 665.469 878.574 663.005 878.574 659.763V647.027H881.774V659.635C881.774 662.131 882.318 663.955 883.406 665.107C884.516 666.259 886.073 666.835 888.078 666.835C890.105 666.835 891.662 666.259 892.75 665.107C893.86 663.955 894.414 662.131 894.414 659.635V647.027H897.518V659.763C897.518 663.005 896.676 665.469 894.99 667.155C893.326 668.84 891.012 669.683 888.046 669.683ZM908.121 669.427V649.811H900.441V647.027H918.969V649.811H911.289V669.427H908.121ZM931.328 669.683C928.384 669.683 926.069 668.84 924.384 667.155C922.698 665.469 921.856 663.005 921.856 659.763V647.027H925.056V659.635C925.056 662.131 925.6 663.955 926.688 665.107C927.797 666.259 929.354 666.835 931.36 666.835C933.386 666.835 934.944 666.259 936.032 665.107C937.141 663.955 937.696 662.131 937.696 659.635V647.027H940.8V659.763C940.8 663.005 939.957 665.469 938.272 667.155C936.608 668.84 934.293 669.683 931.328 669.683ZM963.424 647.027H966.624V669.427H963.424V647.027ZM950.56 669.427H947.36V647.027H950.56V669.427ZM963.712 659.443H950.24V656.659H963.712V659.443ZM976.145 664.019L975.985 660.115L988.689 647.027H992.337L982.513 657.395L980.721 659.379L976.145 664.019ZM973.329 669.427V647.027H976.529V669.427H973.329ZM989.201 669.427L980.017 658.739L982.161 656.371L992.945 669.427H989.201ZM992.03 669.427L1002.17 647.027H1005.34L1015.52 669.427H1012.16L1003.1 648.819H1004.38L995.327 669.427H992.03ZM996.351 663.827L997.215 661.267H1009.82L1010.75 663.827H996.351ZM1018.86 669.427V647.027H1021.48L1036.3 665.427H1034.92V647.027H1038.12V669.427H1035.5L1020.68 651.027H1022.06V669.427H1018.86ZM95.808 708.427V688.811H88.128V686.027H106.656V688.811H98.976V708.427H95.808ZM113.053 695.691H124.573V698.411H113.053V695.691ZM113.341 705.643H126.397V708.427H110.141V686.027H125.949V688.811H113.341V705.643ZM131.579 708.427V686.027H140.315C142.277 686.027 143.952 686.336 145.339 686.955C146.725 687.573 147.792 688.469 148.539 689.643C149.285 690.816 149.659 692.213 149.659 693.835C149.659 695.456 149.285 696.853 148.539 698.027C147.792 699.179 146.725 700.064 145.339 700.683C143.952 701.301 142.277 701.611 140.315 701.611H133.339L134.779 700.139V708.427H131.579ZM146.555 708.427L140.859 700.299H144.283L150.043 708.427H146.555ZM134.779 700.459L133.339 698.891H140.219C142.267 698.891 143.813 698.453 144.859 697.579C145.925 696.683 146.459 695.435 146.459 693.835C146.459 692.235 145.925 690.997 144.859 690.123C143.813 689.248 142.267 688.811 140.219 688.811H133.339L134.779 687.211V700.459ZM157.645 703.019L157.485 699.115L170.189 686.027H173.837L164.013 696.395L162.221 698.379L157.645 703.019ZM154.829 708.427V686.027H158.029V708.427H154.829ZM170.701 708.427L161.517 697.739L163.661 695.371L174.445 708.427H170.701ZM173.53 708.427L183.675 686.027H186.843L197.019 708.427H193.659L184.603 687.819H185.883L176.827 708.427H173.53ZM177.851 702.827L178.715 700.267H191.323L192.251 702.827H177.851ZM200.36 708.427V686.027H203.56V708.427H200.36ZM214.714 708.427V688.811H207.034V686.027H225.562V688.811H217.882V708.427H214.714ZM240.521 708.683C239.199 708.683 237.961 708.405 236.809 707.851C235.657 707.296 234.719 706.496 233.993 705.451L235.849 703.275C236.468 704.128 237.161 704.789 237.929 705.259C238.719 705.707 239.583 705.931 240.521 705.931C243.081 705.931 244.361 704.416 244.361 701.387V688.811H236.265V686.027H247.529V701.227C247.529 703.723 246.932 705.589 245.737 706.827C244.564 708.064 242.825 708.683 240.521 708.683ZM250.187 708.427L260.331 686.027H263.499L273.675 708.427H270.315L261.259 687.819H262.539L253.483 708.427H250.187ZM254.507 702.827L255.371 700.267H267.979L268.907 702.827H254.507ZM283.544 708.683C281.838 708.683 280.206 708.427 278.648 707.915C277.091 707.381 275.864 706.699 274.968 705.867L276.152 703.371C277.006 704.117 278.094 704.736 279.416 705.227C280.739 705.717 282.115 705.963 283.544 705.963C284.846 705.963 285.902 705.813 286.712 705.515C287.523 705.216 288.12 704.811 288.504 704.299C288.888 703.765 289.08 703.168 289.08 702.507C289.08 701.739 288.824 701.12 288.312 700.651C287.822 700.181 287.171 699.808 286.36 699.531C285.571 699.232 284.696 698.976 283.736 698.763C282.776 698.549 281.806 698.304 280.824 698.027C279.864 697.728 278.979 697.355 278.168 696.907C277.379 696.459 276.739 695.861 276.248 695.115C275.758 694.347 275.512 693.365 275.512 692.171C275.512 691.019 275.811 689.963 276.408 689.003C277.027 688.021 277.966 687.243 279.224 686.667C280.504 686.069 282.126 685.771 284.088 685.771C285.39 685.771 286.68 685.941 287.96 686.283C289.24 686.624 290.35 687.115 291.288 687.755L290.232 690.315C289.272 689.675 288.259 689.216 287.192 688.939C286.126 688.64 285.091 688.491 284.088 688.491C282.83 688.491 281.795 688.651 280.984 688.971C280.174 689.291 279.576 689.717 279.192 690.251C278.83 690.784 278.648 691.381 278.648 692.043C278.648 692.832 278.894 693.461 279.384 693.931C279.896 694.4 280.547 694.773 281.336 695.051C282.147 695.328 283.032 695.584 283.992 695.819C284.952 696.032 285.912 696.277 286.872 696.555C287.854 696.832 288.739 697.195 289.528 697.643C290.339 698.091 290.99 698.688 291.48 699.435C291.971 700.181 292.216 701.141 292.216 702.315C292.216 703.445 291.907 704.501 291.288 705.483C290.67 706.443 289.71 707.221 288.408 707.819C287.128 708.395 285.507 708.683 283.544 708.683ZM293.499 708.427L303.643 686.027H306.811L316.987 708.427H313.627L304.571 687.819H305.851L296.795 708.427H293.499ZM297.819 702.827L298.683 700.267H311.291L312.219 702.827H297.819ZM331.835 695.691H343.355V698.411H331.835V695.691ZM332.123 705.643H345.179V708.427H328.923V686.027H344.731V688.811H332.123V705.643ZM350.36 708.427V686.027H352.984L367.8 704.427H366.424V686.027H369.624V708.427H367L352.184 690.027H353.56V708.427H350.36ZM376.329 708.427V686.027H385.769C388.158 686.027 390.259 686.496 392.073 687.435C393.907 688.373 395.326 689.685 396.329 691.371C397.353 693.056 397.865 695.008 397.865 697.227C397.865 699.445 397.353 701.397 396.329 703.083C395.326 704.768 393.907 706.08 392.073 707.019C390.259 707.957 388.158 708.427 385.769 708.427H376.329ZM379.529 705.643H385.577C387.433 705.643 389.033 705.291 390.377 704.587C391.742 703.883 392.798 702.901 393.545 701.643C394.291 700.363 394.665 698.891 394.665 697.227C394.665 695.541 394.291 694.069 393.545 692.811C392.798 691.552 391.742 690.571 390.377 689.867C389.033 689.163 387.433 688.811 385.577 688.811H379.529V705.643ZM412.878 708.683C411.172 708.683 409.582 708.395 408.11 707.819C406.66 707.243 405.401 706.443 404.334 705.419C403.268 704.373 402.436 703.157 401.838 701.771C401.241 700.384 400.942 698.869 400.942 697.227C400.942 695.584 401.241 694.069 401.838 692.683C402.436 691.296 403.268 690.091 404.334 689.067C405.401 688.021 406.66 687.211 408.11 686.635C409.561 686.059 411.15 685.771 412.878 685.771C414.585 685.771 416.153 686.059 417.582 686.635C419.033 687.189 420.292 687.989 421.358 689.035C422.446 690.059 423.278 691.264 423.854 692.651C424.452 694.037 424.75 695.563 424.75 697.227C424.75 698.891 424.452 700.416 423.854 701.803C423.278 703.189 422.446 704.405 421.358 705.451C420.292 706.475 419.033 707.275 417.582 707.851C416.153 708.405 414.585 708.683 412.878 708.683ZM412.878 705.835C414.116 705.835 415.257 705.621 416.302 705.195C417.369 704.768 418.286 704.171 419.054 703.403C419.844 702.613 420.452 701.696 420.878 700.651C421.326 699.605 421.55 698.464 421.55 697.227C421.55 695.989 421.326 694.848 420.878 693.803C420.452 692.757 419.844 691.851 419.054 691.083C418.286 690.293 417.369 689.685 416.302 689.259C415.257 688.832 414.116 688.619 412.878 688.619C411.62 688.619 410.457 688.832 409.39 689.259C408.345 689.685 407.428 690.293 406.638 691.083C405.849 691.851 405.23 692.757 404.782 693.803C404.356 694.848 404.142 695.989 404.142 697.227C404.142 698.464 404.356 699.605 404.782 700.651C405.23 701.696 405.849 702.613 406.638 703.403C407.428 704.171 408.345 704.768 409.39 705.195C410.457 705.621 411.62 705.835 412.878 705.835ZM429.641 708.427V686.027H438.377C440.34 686.027 442.015 686.336 443.401 686.955C444.788 687.573 445.855 688.469 446.601 689.643C447.348 690.816 447.721 692.213 447.721 693.835C447.721 695.456 447.348 696.853 446.601 698.027C445.855 699.179 444.788 700.064 443.401 700.683C442.015 701.301 440.34 701.611 438.377 701.611H431.401L432.841 700.139V708.427H429.641ZM444.617 708.427L438.921 700.299H442.345L448.105 708.427H444.617ZM432.841 700.459L431.401 698.891H438.281C440.329 698.891 441.876 698.453 442.921 697.579C443.988 696.683 444.521 695.435 444.521 693.835C444.521 692.235 443.988 690.997 442.921 690.123C441.876 689.248 440.329 688.811 438.281 688.811H431.401L432.841 687.211V700.459ZM459.419 708.683C457.713 708.683 456.081 708.427 454.523 707.915C452.966 707.381 451.739 706.699 450.843 705.867L452.027 703.371C452.881 704.117 453.969 704.736 455.291 705.227C456.614 705.717 457.99 705.963 459.419 705.963C460.721 705.963 461.777 705.813 462.587 705.515C463.398 705.216 463.995 704.811 464.379 704.299C464.763 703.765 464.955 703.168 464.955 702.507C464.955 701.739 464.699 701.12 464.187 700.651C463.697 700.181 463.046 699.808 462.235 699.531C461.446 699.232 460.571 698.976 459.611 698.763C458.651 698.549 457.681 698.304 456.699 698.027C455.739 697.728 454.854 697.355 454.043 696.907C453.254 696.459 452.614 695.861 452.123 695.115C451.633 694.347 451.387 693.365 451.387 692.171C451.387 691.019 451.686 689.963 452.283 689.003C452.902 688.021 453.841 687.243 455.099 686.667C456.379 686.069 458.001 685.771 459.963 685.771C461.265 685.771 462.555 685.941 463.835 686.283C465.115 686.624 466.225 687.115 467.163 687.755L466.107 690.315C465.147 689.675 464.134 689.216 463.067 688.939C462.001 688.64 460.966 688.491 459.963 688.491C458.705 688.491 457.67 688.651 456.859 688.971C456.049 689.291 455.451 689.717 455.067 690.251C454.705 690.784 454.523 691.381 454.523 692.043C454.523 692.832 454.769 693.461 455.259 693.931C455.771 694.4 456.422 694.773 457.211 695.051C458.022 695.328 458.907 695.584 459.867 695.819C460.827 696.032 461.787 696.277 462.747 696.555C463.729 696.832 464.614 697.195 465.403 697.643C466.214 698.091 466.865 698.688 467.355 699.435C467.846 700.181 468.091 701.141 468.091 702.315C468.091 703.445 467.782 704.501 467.163 705.483C466.545 706.443 465.585 707.221 464.283 707.819C463.003 708.395 461.382 708.683 459.419 708.683ZM475.678 695.691H487.198V698.411H475.678V695.691ZM475.966 705.643H489.022V708.427H472.766V686.027H488.574V688.811H475.966V705.643ZM494.204 708.427V686.027H496.828L506.876 702.955H505.468L515.388 686.027H518.012L518.044 708.427H514.972L514.94 690.859H515.676L506.844 705.707H505.372L496.476 690.859H497.276V708.427H494.204ZM527.678 695.691H539.198V698.411H527.678V695.691ZM527.966 705.643H541.022V708.427H524.766V686.027H540.574V688.811H527.966V705.643ZM546.204 708.427V686.027H548.828L563.644 704.427H562.268V686.027H565.468V708.427H562.844L548.028 690.027H549.404V708.427H546.204ZM576.621 708.427V688.811H568.941V686.027H587.469V688.811H579.789V708.427H576.621ZM608.828 708.683C605.884 708.683 603.569 707.84 601.884 706.155C600.198 704.469 599.356 702.005 599.356 698.763V686.027H602.556V698.635C602.556 701.131 603.1 702.955 604.188 704.107C605.297 705.259 606.854 705.835 608.86 705.835C610.886 705.835 612.444 705.259 613.532 704.107C614.641 702.955 615.196 701.131 615.196 698.635V686.027H618.3V698.763C618.3 702.005 617.457 704.469 615.772 706.155C614.108 707.84 611.793 708.683 608.828 708.683ZM624.86 708.427V686.027H627.484L642.3 704.427H640.924V686.027H644.124V708.427H641.5L626.684 690.027H628.06V708.427H624.86ZM655.277 708.427V688.811H647.597V686.027H666.125V688.811H658.445V708.427H655.277ZM678.484 708.683C675.54 708.683 673.225 707.84 671.54 706.155C669.854 704.469 669.012 702.005 669.012 698.763V686.027H672.212V698.635C672.212 701.131 672.756 702.955 673.844 704.107C674.953 705.259 676.51 705.835 678.516 705.835C680.542 705.835 682.1 705.259 683.188 704.107C684.297 702.955 684.852 701.131 684.852 698.635V686.027H687.956V698.763C687.956 702.005 687.113 704.469 685.428 706.155C683.764 707.84 681.449 708.683 678.484 708.683ZM697.332 703.019L697.172 699.115L709.876 686.027H713.524L703.7 696.395L701.908 698.379L697.332 703.019ZM694.516 708.427V686.027H697.716V708.427H694.516ZM710.388 708.427L701.204 697.739L703.348 695.371L714.132 708.427H710.388ZM726.11 708.427V686.027H734.846C736.809 686.027 738.483 686.336 739.87 686.955C741.257 687.573 742.323 688.469 743.07 689.643C743.817 690.816 744.19 692.213 744.19 693.835C744.19 695.456 743.817 696.853 743.07 698.027C742.323 699.179 741.257 700.075 739.87 700.715C738.483 701.333 736.809 701.643 734.846 701.643H727.87L729.31 700.139V708.427H726.11ZM729.31 700.459L727.87 698.859H734.75C736.798 698.859 738.345 698.421 739.39 697.547C740.457 696.672 740.99 695.435 740.99 693.835C740.99 692.235 740.457 690.997 739.39 690.123C738.345 689.248 736.798 688.811 734.75 688.811H727.87L729.31 687.211V700.459ZM748.891 708.427V686.027H757.627C759.59 686.027 761.265 686.336 762.651 686.955C764.038 687.573 765.105 688.469 765.851 689.643C766.598 690.816 766.971 692.213 766.971 693.835C766.971 695.456 766.598 696.853 765.851 698.027C765.105 699.179 764.038 700.064 762.651 700.683C761.265 701.301 759.59 701.611 757.627 701.611H750.651L752.091 700.139V708.427H748.891ZM763.867 708.427L758.171 700.299H761.595L767.355 708.427H763.867ZM752.091 700.459L750.651 698.891H757.531C759.579 698.891 761.126 698.453 762.171 697.579C763.238 696.683 763.771 695.435 763.771 693.835C763.771 692.235 763.238 690.997 762.171 690.123C761.126 689.248 759.579 688.811 757.531 688.811H750.651L752.091 687.211V700.459ZM782.253 708.683C780.547 708.683 778.957 708.395 777.485 707.819C776.035 707.243 774.776 706.443 773.709 705.419C772.643 704.373 771.811 703.157 771.213 701.771C770.616 700.384 770.317 698.869 770.317 697.227C770.317 695.584 770.616 694.069 771.213 692.683C771.811 691.296 772.643 690.091 773.709 689.067C774.776 688.021 776.035 687.211 777.485 686.635C778.936 686.059 780.525 685.771 782.253 685.771C783.96 685.771 785.528 686.059 786.957 686.635C788.408 687.189 789.667 687.989 790.733 689.035C791.821 690.059 792.653 691.264 793.229 692.651C793.827 694.037 794.125 695.563 794.125 697.227C794.125 698.891 793.827 700.416 793.229 701.803C792.653 703.189 791.821 704.405 790.733 705.451C789.667 706.475 788.408 707.275 786.957 707.851C785.528 708.405 783.96 708.683 782.253 708.683ZM782.253 705.835C783.491 705.835 784.632 705.621 785.677 705.195C786.744 704.768 787.661 704.171 788.429 703.403C789.219 702.613 789.827 701.696 790.253 700.651C790.701 699.605 790.925 698.464 790.925 697.227C790.925 695.989 790.701 694.848 790.253 693.803C789.827 692.757 789.219 691.851 788.429 691.083C787.661 690.293 786.744 689.685 785.677 689.259C784.632 688.832 783.491 688.619 782.253 688.619C780.995 688.619 779.832 688.832 778.765 689.259C777.72 689.685 776.803 690.293 776.013 691.083C775.224 691.851 774.605 692.757 774.157 693.803C773.731 694.848 773.517 695.989 773.517 697.227C773.517 698.464 773.731 699.605 774.157 700.651C774.605 701.696 775.224 702.613 776.013 703.403C776.803 704.171 777.72 704.768 778.765 705.195C779.832 705.621 780.995 705.835 782.253 705.835ZM799.016 708.427V686.027H808.456C810.846 686.027 812.947 686.496 814.76 687.435C816.595 688.373 818.014 689.685 819.016 691.371C820.04 693.056 820.552 695.008 820.552 697.227C820.552 699.445 820.04 701.397 819.016 703.083C818.014 704.768 816.595 706.08 814.76 707.019C812.947 707.957 810.846 708.427 808.456 708.427H799.016ZM802.216 705.643H808.264C810.12 705.643 811.72 705.291 813.064 704.587C814.43 703.883 815.486 702.901 816.232 701.643C816.979 700.363 817.352 698.891 817.352 697.227C817.352 695.541 816.979 694.069 816.232 692.811C815.486 691.552 814.43 690.571 813.064 689.867C811.72 689.163 810.12 688.811 808.264 688.811H802.216V705.643ZM834.734 708.683C831.79 708.683 829.475 707.84 827.79 706.155C826.104 704.469 825.262 702.005 825.262 698.763V686.027H828.462V698.635C828.462 701.131 829.006 702.955 830.094 704.107C831.203 705.259 832.76 705.835 834.766 705.835C836.792 705.835 838.35 705.259 839.438 704.107C840.547 702.955 841.102 701.131 841.102 698.635V686.027H844.206V698.763C844.206 702.005 843.363 704.469 841.678 706.155C840.014 707.84 837.699 708.683 834.734 708.683ZM853.582 703.019L853.422 699.115L866.126 686.027H869.774L859.95 696.395L858.158 698.379L853.582 703.019ZM850.766 708.427V686.027H853.966V708.427H850.766ZM866.638 708.427L857.454 697.739L859.598 695.371L870.382 708.427H866.638ZM878.968 708.427L889.112 686.027H892.28L902.456 708.427H899.096L890.04 687.819H891.32L882.264 708.427H878.968ZM883.288 702.827L884.152 700.267H896.76L897.688 702.827H883.288ZM905.798 708.427V686.027H908.422L923.238 704.427H921.862V686.027H925.062V708.427H922.438L907.622 690.027H908.998V708.427H905.798ZM931.766 708.427V686.027H941.206C943.596 686.027 945.697 686.496 947.51 687.435C949.345 688.373 950.764 689.685 951.766 691.371C952.79 693.056 953.302 695.008 953.302 697.227C953.302 699.445 952.79 701.397 951.766 703.083C950.764 704.768 949.345 706.08 947.51 707.019C945.697 707.957 943.596 708.427 941.206 708.427H931.766ZM934.966 705.643H941.014C942.87 705.643 944.47 705.291 945.814 704.587C947.18 703.883 948.236 702.901 948.982 701.643C949.729 700.363 950.102 698.891 950.102 697.227C950.102 695.541 949.729 694.069 948.982 692.811C948.236 691.552 947.18 690.571 945.814 689.867C944.47 689.163 942.87 688.811 941.014 688.811H934.966V705.643ZM954.499 708.427L964.643 686.027H967.811L977.987 708.427H974.627L965.571 687.819H966.851L957.795 708.427H954.499ZM958.819 702.827L959.683 700.267H972.291L973.219 702.827H958.819ZM982.679 708.619C982.082 708.619 981.57 708.416 981.143 708.011C980.717 707.584 980.503 707.051 980.503 706.411C980.503 705.771 980.717 705.248 981.143 704.843C981.57 704.437 982.082 704.235 982.679 704.235C983.255 704.235 983.746 704.437 984.151 704.843C984.578 705.248 984.791 705.771 984.791 706.411C984.791 707.051 984.578 707.584 984.151 708.011C983.746 708.416 983.255 708.619 982.679 708.619Z" fill="white"/>
<path d="M94.64 203.427V147.427H122C129.04 147.427 134.32 148.76 137.84 151.427C141.413 154.093 143.2 157.613 143.2 161.987C143.2 164.92 142.48 167.48 141.04 169.667C139.6 171.8 137.627 173.453 135.12 174.627C132.613 175.8 129.733 176.387 126.48 176.387L128 173.107C131.52 173.107 134.64 173.693 137.36 174.867C140.08 175.987 142.187 177.667 143.68 179.907C145.227 182.147 146 184.893 146 188.147C146 192.947 144.107 196.707 140.32 199.427C136.533 202.093 130.96 203.427 123.6 203.427H94.64ZM107.52 193.667H122.64C126 193.667 128.533 193.133 130.24 192.067C132 190.947 132.88 189.187 132.88 186.787C132.88 184.44 132 182.707 130.24 181.587C128.533 180.413 126 179.827 122.64 179.827H106.56V170.387H120.4C123.547 170.387 125.947 169.853 127.6 168.787C129.307 167.667 130.16 165.987 130.16 163.747C130.16 161.56 129.307 159.933 127.6 158.867C125.947 157.747 123.547 157.187 120.4 157.187H107.52V193.667ZM148.452 203.427L173.412 147.427H186.212L211.252 203.427H197.652L177.172 153.987H182.292L161.732 203.427H148.452ZM160.932 191.427L164.372 181.587H193.172L196.692 191.427H160.932ZM217.062 203.427V147.427H227.782L260.822 187.747H255.622V147.427H268.422V203.427H257.782L224.662 163.107H229.862V203.427H217.062ZM308.711 204.387C304.285 204.387 300.205 203.693 296.471 202.307C292.791 200.867 289.565 198.84 286.791 196.227C284.071 193.613 281.938 190.547 280.391 187.027C278.898 183.507 278.151 179.64 278.151 175.427C278.151 171.213 278.898 167.347 280.391 163.827C281.938 160.307 284.098 157.24 286.871 154.627C289.645 152.013 292.898 150.013 296.631 148.627C300.365 147.187 304.471 146.467 308.951 146.467C313.911 146.467 318.365 147.293 322.311 148.947C326.311 150.6 329.671 153 332.391 156.147L324.071 163.827C322.045 161.693 319.831 160.12 317.431 159.107C315.031 158.04 312.418 157.507 309.591 157.507C306.871 157.507 304.391 157.933 302.151 158.787C299.911 159.64 297.965 160.867 296.311 162.467C294.711 164.067 293.458 165.96 292.551 168.147C291.698 170.333 291.271 172.76 291.271 175.427C291.271 178.04 291.698 180.44 292.551 182.627C293.458 184.813 294.711 186.733 296.311 188.387C297.965 189.987 299.885 191.213 302.071 192.067C304.311 192.92 306.765 193.347 309.431 193.347C311.991 193.347 314.471 192.947 316.871 192.147C319.325 191.293 321.698 189.88 323.991 187.907L331.351 197.267C328.311 199.56 324.765 201.32 320.711 202.547C316.711 203.773 312.711 204.387 308.711 204.387ZM319.511 195.587V174.547H331.351V197.267L319.511 195.587ZM368.27 204.387C360.323 204.387 354.11 202.173 349.63 197.747C345.15 193.32 342.91 187 342.91 178.787V147.427H355.87V178.307C355.87 183.64 356.963 187.48 359.15 189.827C361.337 192.173 364.403 193.347 368.35 193.347C372.297 193.347 375.363 192.173 377.55 189.827C379.737 187.48 380.83 183.64 380.83 178.307V147.427H393.63V178.787C393.63 187 391.39 193.32 386.91 197.747C382.43 202.173 376.217 204.387 368.27 204.387ZM406.437 203.427V147.427H417.157L450.197 187.747H444.997V147.427H457.797V203.427H447.157L414.037 163.107H419.237V203.427H406.437ZM505.303 190.627L504.583 175.667L531.383 147.427H545.783L521.623 173.427L514.423 181.107L505.303 190.627ZM493.703 203.427V147.427H506.583V203.427H493.703ZM532.023 203.427L512.103 179.027L520.583 169.827L547.143 203.427H532.023ZM564.841 169.987H591.801V180.067H564.841V169.987ZM565.801 193.027H596.281V203.427H552.921V147.427H595.241V157.827H565.801V193.027ZM606.593 203.427V147.427H630.833C635.846 147.427 640.166 148.253 643.793 149.907C647.42 151.507 650.22 153.827 652.193 156.867C654.166 159.907 655.153 163.533 655.153 167.747C655.153 171.907 654.166 175.507 652.193 178.547C650.22 181.587 647.42 183.933 643.793 185.587C640.166 187.187 635.846 187.987 630.833 187.987H613.793L619.553 182.147V203.427H606.593ZM619.553 183.587L613.793 177.427H630.113C634.113 177.427 637.1 176.573 639.073 174.867C641.046 173.16 642.033 170.787 642.033 167.747C642.033 164.653 641.046 162.253 639.073 160.547C637.1 158.84 634.113 157.987 630.113 157.987H613.793L619.553 151.827V183.587ZM676.326 169.987H703.286V180.067H676.326V169.987ZM677.286 193.027H707.766V203.427H664.406V147.427H706.726V157.827H677.286V193.027ZM718.078 203.427V147.427H742.318C747.331 147.427 751.651 148.253 755.278 149.907C758.904 151.507 761.704 153.827 763.678 156.867C765.651 159.907 766.638 163.533 766.638 167.747C766.638 171.907 765.651 175.507 763.678 178.547C761.704 181.533 758.904 183.827 755.278 185.427C751.651 187.027 747.331 187.827 742.318 187.827H725.278L731.038 182.147V203.427H718.078ZM753.677 203.427L739.678 183.107H753.518L767.678 203.427H753.677ZM731.038 183.587L725.278 177.507H741.598C745.598 177.507 748.584 176.653 750.558 174.947C752.531 173.187 753.518 170.787 753.518 167.747C753.518 164.653 752.531 162.253 750.558 160.547C748.584 158.84 745.598 157.987 741.598 157.987H725.278L731.038 151.827V183.587ZM803.706 204.387C799.386 204.387 795.359 203.693 791.626 202.307C787.946 200.867 784.746 198.84 782.026 196.227C779.306 193.613 777.172 190.547 775.626 187.027C774.132 183.507 773.386 179.64 773.386 175.427C773.386 171.213 774.132 167.347 775.626 163.827C777.172 160.307 779.306 157.24 782.026 154.627C784.799 152.013 788.026 150.013 791.706 148.627C795.386 147.187 799.412 146.467 803.786 146.467C808.639 146.467 813.012 147.32 816.906 149.027C820.852 150.68 824.159 153.133 826.826 156.387L818.506 164.067C816.586 161.88 814.452 160.253 812.106 159.187C809.759 158.067 807.199 157.507 804.426 157.507C801.812 157.507 799.412 157.933 797.226 158.787C795.039 159.64 793.146 160.867 791.546 162.467C789.946 164.067 788.692 165.96 787.786 168.147C786.932 170.333 786.506 172.76 786.506 175.427C786.506 178.093 786.932 180.52 787.786 182.707C788.692 184.893 789.946 186.787 791.546 188.387C793.146 189.987 795.039 191.213 797.226 192.067C799.412 192.92 801.812 193.347 804.426 193.347C807.199 193.347 809.759 192.813 812.106 191.747C814.452 190.627 816.586 188.947 818.506 186.707L826.826 194.387C824.159 197.64 820.852 200.12 816.906 201.827C813.012 203.533 808.612 204.387 803.706 204.387ZM827.202 203.427L852.162 147.427H864.962L890.002 203.427H876.402L855.922 153.987H861.042L840.482 203.427H827.202ZM839.682 191.427L843.122 181.587H871.922L875.442 191.427H839.682ZM906.294 203.427V180.547L909.254 188.387L884.614 147.427H898.374L917.254 178.867H909.334L928.294 147.427H941.014L916.374 188.387L919.254 180.547V203.427H906.294ZM935.639 203.427L960.599 147.427H973.399L998.439 203.427H984.839L964.359 153.987H969.479L948.919 203.427H935.639ZM948.119 191.427L951.559 181.587H980.359L983.879 191.427H948.119ZM998.686 203.427L1023.65 147.427H1036.45L1061.49 203.427H1047.89L1027.41 153.987H1032.53L1011.97 203.427H998.686ZM1011.17 191.427L1014.61 181.587H1043.41L1046.93 191.427H1011.17ZM1067.3 203.427V147.427H1078.02L1111.06 187.747H1105.86V147.427H1118.66V203.427H1108.02L1074.9 163.107H1080.1V203.427H1067.3ZM94.64 301.427V245.427H118.88C123.893 245.427 128.213 246.253 131.84 247.907C135.467 249.507 138.267 251.827 140.24 254.867C142.213 257.907 143.2 261.533 143.2 265.747C143.2 269.907 142.213 273.507 140.24 276.547C138.267 279.587 135.467 281.933 131.84 283.587C128.213 285.187 123.893 285.987 118.88 285.987H101.84L107.6 280.147V301.427H94.64ZM107.6 281.587L101.84 275.427H118.16C122.16 275.427 125.147 274.573 127.12 272.867C129.093 271.16 130.08 268.787 130.08 265.747C130.08 262.653 129.093 260.253 127.12 258.547C125.147 256.84 122.16 255.987 118.16 255.987H101.84L107.6 249.827V281.587ZM142.28 301.427L167.24 245.427H180.04L205.08 301.427H191.48L171 251.987H176.12L155.56 301.427H142.28ZM154.76 289.427L158.2 279.587H187L190.52 289.427H154.76ZM229.29 302.387C224.81 302.387 220.517 301.8 216.41 300.627C212.303 299.4 208.997 297.827 206.49 295.907L210.89 286.147C213.29 287.853 216.117 289.267 219.37 290.387C222.677 291.453 226.01 291.987 229.37 291.987C231.93 291.987 233.983 291.747 235.53 291.267C237.13 290.733 238.303 290.013 239.05 289.107C239.797 288.2 240.17 287.16 240.17 285.987C240.17 284.493 239.583 283.32 238.41 282.467C237.237 281.56 235.69 280.84 233.77 280.307C231.85 279.72 229.717 279.187 227.37 278.707C225.077 278.173 222.757 277.533 220.41 276.787C218.117 276.04 216.01 275.08 214.09 273.907C212.17 272.733 210.597 271.187 209.37 269.267C208.197 267.347 207.61 264.893 207.61 261.907C207.61 258.707 208.463 255.8 210.17 253.187C211.93 250.52 214.543 248.413 218.01 246.867C221.53 245.267 225.93 244.467 231.21 244.467C234.73 244.467 238.197 244.893 241.61 245.747C245.023 246.547 248.037 247.773 250.65 249.427L246.65 259.267C244.037 257.773 241.423 256.68 238.81 255.987C236.197 255.24 233.637 254.867 231.13 254.867C228.623 254.867 226.57 255.16 224.97 255.747C223.37 256.333 222.223 257.107 221.53 258.067C220.837 258.973 220.49 260.04 220.49 261.267C220.49 262.707 221.077 263.88 222.25 264.787C223.423 265.64 224.97 266.333 226.89 266.867C228.81 267.4 230.917 267.933 233.21 268.467C235.557 269 237.877 269.613 240.17 270.307C242.517 271 244.65 271.933 246.57 273.107C248.49 274.28 250.037 275.827 251.21 277.747C252.437 279.667 253.05 282.093 253.05 285.027C253.05 288.173 252.17 291.053 250.41 293.667C248.65 296.28 246.01 298.387 242.49 299.987C239.023 301.587 234.623 302.387 229.29 302.387ZM254.546 301.427L279.506 245.427H292.306L317.346 301.427H303.746L283.266 251.987H288.386L267.826 301.427H254.546ZM267.026 289.427L270.466 279.587H299.266L302.786 289.427H267.026ZM323.156 301.427V245.427H347.396C352.409 245.427 356.729 246.253 360.356 247.907C363.982 249.507 366.782 251.827 368.756 254.867C370.729 257.907 371.716 261.533 371.716 265.747C371.716 269.907 370.729 273.507 368.756 276.547C366.782 279.533 363.982 281.827 360.356 283.427C356.729 285.027 352.409 285.827 347.396 285.827H330.356L336.116 280.147V301.427H323.156ZM358.756 301.427L344.756 281.107H358.596L372.756 301.427H358.756ZM336.116 281.587L330.356 275.507H346.676C350.676 275.507 353.662 274.653 355.636 272.947C357.609 271.187 358.596 268.787 358.596 265.747C358.596 262.653 357.609 260.253 355.636 258.547C353.662 256.84 350.676 255.987 346.676 255.987H330.356L336.116 249.827V281.587ZM404.64 301.427V245.427H432C439.04 245.427 444.32 246.76 447.84 249.427C451.413 252.093 453.2 255.613 453.2 259.987C453.2 262.92 452.48 265.48 451.04 267.667C449.6 269.8 447.627 271.453 445.12 272.627C442.613 273.8 439.733 274.387 436.48 274.387L438 271.107C441.52 271.107 444.64 271.693 447.36 272.867C450.08 273.987 452.187 275.667 453.68 277.907C455.227 280.147 456 282.893 456 286.147C456 290.947 454.107 294.707 450.32 297.427C446.533 300.093 440.96 301.427 433.6 301.427H404.64ZM417.52 291.667H432.64C436 291.667 438.533 291.133 440.24 290.067C442 288.947 442.88 287.187 442.88 284.787C442.88 282.44 442 280.707 440.24 279.587C438.533 278.413 436 277.827 432.64 277.827H416.56V268.387H430.4C433.547 268.387 435.947 267.853 437.6 266.787C439.307 265.667 440.16 263.987 440.16 261.747C440.16 259.56 439.307 257.933 437.6 256.867C435.947 255.747 433.547 255.187 430.4 255.187H417.52V291.667ZM477.732 267.987H504.692V278.067H477.732V267.987ZM478.692 291.027H509.172V301.427H465.812V245.427H508.132V255.827H478.692V291.027ZM519.484 301.427V245.427H543.724C548.737 245.427 553.057 246.253 556.684 247.907C560.31 249.507 563.11 251.827 565.084 254.867C567.057 257.907 568.044 261.533 568.044 265.747C568.044 269.907 567.057 273.507 565.084 276.547C563.11 279.533 560.31 281.827 556.684 283.427C553.057 285.027 548.737 285.827 543.724 285.827H526.684L532.444 280.147V301.427H519.484ZM555.084 301.427L541.084 281.107H554.924L569.084 301.427H555.084ZM532.444 281.587L526.684 275.507H543.004C547.004 275.507 549.99 274.653 551.964 272.947C553.937 271.187 554.924 268.787 554.924 265.747C554.924 262.653 553.937 260.253 551.964 258.547C549.99 256.84 547.004 255.987 543.004 255.987H526.684L532.444 249.827V281.587ZM596.712 302.387C592.232 302.387 587.939 301.8 583.832 300.627C579.725 299.4 576.419 297.827 573.912 295.907L578.312 286.147C580.712 287.853 583.539 289.267 586.792 290.387C590.099 291.453 593.432 291.987 596.792 291.987C599.352 291.987 601.405 291.747 602.952 291.267C604.552 290.733 605.725 290.013 606.472 289.107C607.219 288.2 607.592 287.16 607.592 285.987C607.592 284.493 607.005 283.32 605.832 282.467C604.659 281.56 603.112 280.84 601.192 280.307C599.272 279.72 597.139 279.187 594.792 278.707C592.499 278.173 590.179 277.533 587.832 276.787C585.539 276.04 583.432 275.08 581.512 273.907C579.592 272.733 578.019 271.187 576.792 269.267C575.619 267.347 575.032 264.893 575.032 261.907C575.032 258.707 575.885 255.8 577.592 253.187C579.352 250.52 581.965 248.413 585.432 246.867C588.952 245.267 593.352 244.467 598.632 244.467C602.152 244.467 605.619 244.893 609.032 245.747C612.445 246.547 615.459 247.773 618.072 249.427L614.072 259.267C611.459 257.773 608.845 256.68 606.232 255.987C603.619 255.24 601.059 254.867 598.552 254.867C596.045 254.867 593.992 255.16 592.392 255.747C590.792 256.333 589.645 257.107 588.952 258.067C588.259 258.973 587.912 260.04 587.912 261.267C587.912 262.707 588.499 263.88 589.672 264.787C590.845 265.64 592.392 266.333 594.312 266.867C596.232 267.4 598.339 267.933 600.632 268.467C602.979 269 605.299 269.613 607.592 270.307C609.939 271 612.072 271.933 613.992 273.107C615.912 274.28 617.459 275.827 618.632 277.747C619.859 279.667 620.472 282.093 620.472 285.027C620.472 288.173 619.592 291.053 617.832 293.667C616.072 296.28 613.432 298.387 609.912 299.987C606.445 301.587 602.045 302.387 596.712 302.387ZM621.967 301.427L646.928 245.427H659.728L684.768 301.427H671.168L650.688 251.987H655.808L635.248 301.427H621.967ZM634.447 289.427L637.888 279.587H666.688L670.208 289.427H634.447ZM690.578 301.427V245.427H701.298L725.138 284.947H719.458L742.898 245.427H753.538L753.698 301.427H741.538L741.458 264.067H743.698L724.978 295.507H719.138L700.018 264.067H702.738V301.427H690.578ZM759.624 301.427L784.584 245.427H797.384L822.424 301.427H808.824L788.344 251.987H793.464L772.904 301.427H759.624ZM772.104 289.427L775.544 279.587H804.344L807.864 289.427H772.104ZM94.64 399.427V343.427H107.6V399.427H94.64ZM120.89 399.427V343.427H131.61L164.65 383.747H159.45V343.427H172.25V399.427H161.61L128.49 359.107H133.69V399.427H120.89ZM197.499 368.627H224.379V379.027H197.499V368.627ZM198.459 399.427H185.499V343.427H227.819V353.827H198.459V399.427ZM236.593 399.427V343.427H249.553V388.867H277.633V399.427H236.593ZM309.129 400.387C301.183 400.387 294.969 398.173 290.489 393.747C286.009 389.32 283.769 383 283.769 374.787V343.427H296.729V374.307C296.729 379.64 297.823 383.48 300.009 385.827C302.196 388.173 305.263 389.347 309.209 389.347C313.156 389.347 316.223 388.173 318.409 385.827C320.596 383.48 321.689 379.64 321.689 374.307V343.427H334.489V374.787C334.489 383 332.249 389.32 327.769 393.747C323.289 398.173 317.076 400.387 309.129 400.387ZM359.216 365.987H386.176V376.067H359.216V365.987ZM360.176 389.027H390.656V399.427H347.296V343.427H389.616V353.827H360.176V389.027ZM400.968 399.427V343.427H411.688L444.728 383.747H439.528V343.427H452.328V399.427H441.688L408.568 359.107H413.768V399.427H400.968ZM492.378 400.387C488.058 400.387 484.031 399.693 480.298 398.307C476.618 396.867 473.418 394.84 470.697 392.227C467.978 389.613 465.844 386.547 464.298 383.027C462.804 379.507 462.058 375.64 462.058 371.427C462.058 367.213 462.804 363.347 464.298 359.827C465.844 356.307 467.978 353.24 470.697 350.627C473.471 348.013 476.698 346.013 480.378 344.627C484.058 343.187 488.084 342.467 492.458 342.467C497.311 342.467 501.684 343.32 505.578 345.027C509.524 346.68 512.831 349.133 515.498 352.387L507.178 360.067C505.258 357.88 503.124 356.253 500.778 355.187C498.431 354.067 495.871 353.507 493.098 353.507C490.484 353.507 488.084 353.933 485.898 354.787C483.711 355.64 481.818 356.867 480.218 358.467C478.618 360.067 477.364 361.96 476.458 364.147C475.604 366.333 475.178 368.76 475.178 371.427C475.178 374.093 475.604 376.52 476.458 378.707C477.364 380.893 478.618 382.787 480.218 384.387C481.818 385.987 483.711 387.213 485.898 388.067C488.084 388.92 490.484 389.347 493.098 389.347C495.871 389.347 498.431 388.813 500.778 387.747C503.124 386.627 505.258 384.947 507.178 382.707L515.498 390.387C512.831 393.64 509.524 396.12 505.578 397.827C501.684 399.533 497.284 400.387 492.378 400.387ZM536.169 365.987H563.129V376.067H536.169V365.987ZM537.129 389.027H567.609V399.427H524.249V343.427H566.569V353.827H537.129V389.027ZM577.921 399.427V343.427H602.161C607.175 343.427 611.495 344.253 615.121 345.907C618.748 347.507 621.548 349.827 623.521 352.867C625.495 355.907 626.481 359.533 626.481 363.747C626.481 367.907 625.495 371.507 623.521 374.547C621.548 377.533 618.748 379.827 615.121 381.427C611.495 383.027 607.175 383.827 602.161 383.827H585.121L590.881 378.147V399.427H577.921ZM613.521 399.427L599.521 379.107H613.361L627.521 399.427H613.521ZM590.881 379.587L585.121 373.507H601.441C605.441 373.507 608.428 372.653 610.401 370.947C612.375 369.187 613.361 366.787 613.361 363.747C613.361 360.653 612.375 358.253 610.401 356.547C608.428 354.84 605.441 353.987 601.441 353.987H585.121L590.881 347.827V379.587ZM659.406 399.427V343.427H683.646C688.659 343.427 692.979 344.253 696.606 345.907C700.232 347.507 703.032 349.827 705.006 352.867C706.979 355.907 707.966 359.533 707.966 363.747C707.966 367.907 706.979 371.507 705.006 374.547C703.032 377.587 700.232 379.933 696.606 381.587C692.979 383.187 688.659 383.987 683.646 383.987H666.606L672.366 378.147V399.427H659.406ZM672.366 379.587L666.606 373.427H682.926C686.926 373.427 689.912 372.573 691.886 370.867C693.859 369.16 694.846 366.787 694.846 363.747C694.846 360.653 693.859 358.253 691.886 356.547C689.912 354.84 686.926 353.987 682.926 353.987H666.606L672.366 347.827V379.587ZM717.218 399.427V343.427H730.178V399.427H717.218ZM743.468 399.427V343.427H756.428V388.867H784.508V399.427H743.468ZM791.749 399.427V343.427H804.709V399.427H791.749ZM856.399 343.427H869.359V399.427H856.399V343.427ZM830.959 399.427H817.999V343.427H830.959V399.427ZM857.359 376.467H829.999V365.507H857.359V376.467ZM875.249 399.427L900.209 343.427H913.009L938.049 399.427H924.449L903.969 349.987H909.089L888.529 399.427H875.249ZM887.729 387.427L891.169 377.587H919.969L923.489 387.427H887.729ZM943.859 399.427V343.427H954.579L987.619 383.747H982.419V343.427H995.219V399.427H984.579L951.459 359.107H956.659V399.427H943.859ZM106.24 484.627L105.52 469.667L132.32 441.427H146.72L122.56 467.427L115.36 475.107L106.24 484.627ZM94.64 497.427V441.427H107.52V497.427H94.64ZM132.96 497.427L113.04 473.027L121.52 463.827L148.08 497.427H132.96ZM143.921 497.427L168.881 441.427H181.681L206.721 497.427H193.121L172.641 447.987H177.761L157.201 497.427H143.921ZM156.401 485.427L159.841 475.587H188.641L192.161 485.427H156.401ZM212.531 497.427V441.427H223.251L247.091 480.947H241.411L264.851 441.427H275.491L275.651 497.427H263.491L263.411 460.067H265.651L246.931 491.507H241.091L221.971 460.067H224.691V497.427H212.531ZM288.937 497.427V441.427H301.897V497.427H288.937Z" fill="white"/>
<defs>
<filter id="filter0_f_192_55" x="0" y="0" width="714.501" height="432.05" filterUnits="userSpaceOnUse" color-interpolation-filters="sRGB">
<feFlood flood-opacity="0" result="BackgroundImageFix"/>
<feBlend mode="normal" in="SourceGraphic" in2="BackgroundImageFix" result="shape"/>
<feGaussianBlur stdDeviation="2" result="effect1_foregroundBlur_192_55"/>
</filter>
<linearGradient id="paint0_linear_192_55" x1="1867" y1="946.238" x2="-812.526" y2="-3015.49" gradientUnits="userSpaceOnUse">
<stop/>
<stop offset="1" stop-color="#F6F6F6"/>
</linearGradient>
<linearGradient id="paint1_linear_192_55" x1="1742.5" y1="89.7679" x2="410.758" y2="-243.585" gradientUnits="userSpaceOnUse">
<stop/>
<stop offset="1" stop-color="white"/>
</linearGradient>
<linearGradient id="paint2_linear_192_55" x1="1677.81" y1="300.552" x2="346.072" y2="-32.8011" gradientUnits="userSpaceOnUse">
<stop/>
<stop offset="1" stop-color="white"/>
</linearGradient>
<linearGradient id="paint3_linear_192_55" x1="123.066" y1="-146.308" x2="561.205" y2="722.719" gradientUnits="userSpaceOnUse">
<stop offset="0.245192" stop-color="#222222" stop-opacity="0.0666667"/>
<stop offset="0.721154" stop-color="#999999"/>
</linearGradient>
<linearGradient id="paint4_linear_192_55" x1="1153.5" y1="509.463" x2="1770.69" y2="743.162" gradientUnits="userSpaceOnUse">
<stop stop-color="white"/>
<stop offset="1"/>
</linearGradient>
<linearGradient id="paint5_linear_192_55" x1="4" y1="2.42676" x2="4594.13" y2="2278.42" gradientUnits="userSpaceOnUse">
<stop offset="0.193221"/>
<stop offset="1" stop-color="#F6F6F6"/>
</linearGradient>
<linearGradient id="paint6_linear_192_55" x1="4" y1="2.42676" x2="4594.13" y2="2278.42" gradientUnits="userSpaceOnUse">
<stop offset="0.193221"/>
<stop offset="1" stop-color="#F6F6F6"/>
</linearGradient>
</defs>
</svg>
