<svg width="110" height="110" viewBox="0 0 110 110" fill="none" xmlns="http://www.w3.org/2000/svg">
<g clip-path="url(#clip0_99_17)">
<path d="M84.2188 0H25.7812C11.5427 0 0 11.5427 0 25.7812V84.2188C0 98.4573 11.5427 110 25.7812 110H84.2188C98.4573 110 110 98.4573 110 84.2188V25.7812C110 11.5427 98.4573 0 84.2188 0Z" fill="url(#paint0_radial_99_17)"/>
<path d="M84.2188 0H25.7812C11.5427 0 0 11.5427 0 25.7812V84.2188C0 98.4573 11.5427 110 25.7812 110H84.2188C98.4573 110 110 98.4573 110 84.2188V25.7812C110 11.5427 98.4573 0 84.2188 0Z" fill="url(#paint1_radial_99_17)"/>
<path d="M55.0039 12.0312C43.3344 12.0312 41.8696 12.0824 37.2866 12.2908C32.7121 12.5005 29.5896 13.2245 26.8576 14.2871C24.0311 15.3845 21.6339 16.8528 19.2457 19.2418C16.8554 21.6305 15.3871 24.0277 14.2863 26.8529C13.2206 29.5857 12.4957 32.7095 12.2899 37.2818C12.085 41.8653 12.0312 43.3305 12.0312 55.0004C12.0312 66.6703 12.0828 68.1304 12.2908 72.7134C12.5013 77.2879 13.2254 80.4104 14.2871 83.1424C15.3854 85.9689 16.8536 88.3661 19.2427 90.7543C21.6305 93.1446 24.0277 94.6163 26.852 95.7137C29.5861 96.7764 32.7091 97.5004 37.2827 97.7101C41.8662 97.9185 43.3297 97.9696 54.9987 97.9696C66.6695 97.9696 68.1295 97.9185 72.7126 97.7101C77.287 97.5004 80.413 96.7764 83.1471 95.7137C85.9723 94.6163 88.3661 93.1446 90.7534 90.7543C93.1438 88.3661 94.6116 85.9689 95.7129 83.1437C96.7691 80.4104 97.4944 77.287 97.7092 72.7143C97.915 68.1312 97.9688 66.6703 97.9688 55.0004C97.9688 43.3305 97.915 41.8662 97.7092 37.2827C97.4944 32.7082 96.7691 29.5861 95.7129 26.8542C94.6116 24.0277 93.1438 21.6305 90.7534 19.2418C88.3635 16.8519 85.9732 15.3837 83.1445 14.2875C80.4053 13.2245 77.281 12.5 72.7066 12.2908C68.1231 12.0824 66.6639 12.0312 54.9905 12.0312H55.0039ZM51.1491 19.7746C52.2934 19.7729 53.57 19.7746 55.0039 19.7746C66.477 19.7746 67.8365 19.8159 72.3671 20.0217C76.5566 20.2134 78.8305 20.9133 80.3451 21.5016C82.3505 22.2802 83.78 23.2113 85.2831 24.7156C86.787 26.2195 87.7177 27.6517 88.4984 29.657C89.0867 31.1695 89.7875 33.4434 89.9783 37.6329C90.1841 42.1627 90.2288 43.523 90.2288 54.9905C90.2288 66.458 90.1841 67.8189 89.9783 72.3482C89.7866 76.5377 89.0867 78.8116 88.4984 80.3245C87.7198 82.3298 86.787 83.7577 85.2831 85.2607C83.7792 86.7646 82.3513 87.6954 80.3451 88.4744C78.8322 89.0652 76.5566 89.7634 72.3671 89.9551C67.8373 90.1609 66.477 90.2056 55.0039 90.2056C43.5304 90.2056 42.1704 90.1609 37.6411 89.9551C33.4516 89.7617 31.1777 89.0618 29.6618 88.4735C27.6568 87.6945 26.2243 86.7638 24.7204 85.2599C23.2164 83.756 22.2857 82.3273 21.505 80.3211C20.9168 78.8081 20.2159 76.5342 20.0252 72.3448C19.8193 67.815 19.7781 66.4546 19.7781 54.9798C19.7781 43.505 19.8193 42.1519 20.0252 37.6221C20.2168 33.4327 20.9168 31.1588 21.505 29.6441C22.284 27.6388 23.2164 26.2066 24.7208 24.7027C26.2251 23.1988 27.6568 22.2677 29.6622 21.4874C31.1768 20.8966 33.4516 20.1983 37.6411 20.0058C41.6049 19.8266 43.1411 19.7729 51.1491 19.7639V19.7746ZM77.9406 26.9092C75.0939 26.9092 72.7843 29.2166 72.7843 32.0637C72.7843 34.9104 75.0939 37.22 77.9406 37.22C80.7873 37.22 83.0968 34.9104 83.0968 32.0637C83.0968 29.217 80.7873 26.9075 77.9406 26.9075V26.9092ZM55.0039 32.9338C42.8179 32.9338 32.9377 42.8141 32.9377 55.0004C32.9377 67.1868 42.8179 77.0623 55.0039 77.0623C67.1902 77.0623 77.067 67.1868 77.067 55.0004C77.067 42.8145 67.1894 32.9338 55.003 32.9338H55.0039ZM55.0039 40.6772C62.914 40.6772 69.3271 47.0895 69.3271 55.0004C69.3271 62.9105 62.914 69.3236 55.0039 69.3236C47.0938 69.3236 40.6811 62.9105 40.6811 55.0004C40.6811 47.0895 47.0933 40.6772 55.0039 40.6772Z" fill="white"/>
</g>
<defs>
<radialGradient id="paint0_radial_99_17" cx="0" cy="0" r="1" gradientUnits="userSpaceOnUse" gradientTransform="translate(29.2187 118.472) rotate(-90) scale(109.018 101.396)">
<stop stop-color="#FFDD55"/>
<stop offset="0.1" stop-color="#FFDD55"/>
<stop offset="0.5" stop-color="#FF543E"/>
<stop offset="1" stop-color="#C837AB"/>
</radialGradient>
<radialGradient id="paint1_radial_99_17" cx="0" cy="0" r="1" gradientUnits="userSpaceOnUse" gradientTransform="translate(-18.4254 7.92387) rotate(78.681) scale(48.7317 200.874)">
<stop stop-color="#3771C8"/>
<stop offset="0.128" stop-color="#3771C8"/>
<stop offset="1" stop-color="#6600FF" stop-opacity="0"/>
</radialGradient>
<clipPath id="clip0_99_17">
<rect width="110" height="110" fill="white"/>
</clipPath>
</defs>
</svg>
