<svg width="276" height="145" viewBox="0 0 276 145" fill="none" xmlns="http://www.w3.org/2000/svg">
<rect width="276" height="145" rx="50" fill="black"/>
<path d="M230.083 48.9175C226.951 45.3078 225.224 40.673 225.225 35.875H211.062V93.225C210.955 96.3293 209.658 99.2702 207.443 101.427C205.228 103.585 202.27 104.789 199.191 104.787C192.683 104.787 187.275 99.4225 187.275 92.7625C187.275 84.8075 194.883 78.8412 202.721 81.2925V66.6775C186.908 64.55 173.066 76.945 173.066 92.7625C173.066 108.164 185.716 119.125 199.146 119.125C213.537 119.125 225.225 107.331 225.225 92.7625V63.6713C230.968 67.8331 237.863 70.066 244.933 70.0538V55.7625C244.933 55.7625 236.316 56.1788 230.083 48.9175Z" fill="white"/>
<path d="M52.075 28.1667H90.925C105.725 28.1667 117.75 40.0834 117.75 54.7501V93.2501C117.75 100.3 114.924 107.062 109.893 112.047C104.862 117.033 98.0394 119.833 90.925 119.833H52.075C37.275 119.833 25.25 107.917 25.25 93.2501V54.7501C25.25 47.6997 28.0762 40.9382 33.1069 35.9528C38.1375 30.9675 44.9606 28.1667 52.075 28.1667ZM51.15 37.3334C46.7341 37.3334 42.4992 39.0718 39.3767 42.1662C36.2542 45.2605 34.5 49.4573 34.5 53.8334V94.1667C34.5 103.288 41.9462 110.667 51.15 110.667H91.85C96.2659 110.667 100.501 108.928 103.623 105.834C106.746 102.74 108.5 98.5428 108.5 94.1667V53.8334C108.5 44.7126 101.054 37.3334 91.85 37.3334H51.15ZM95.7812 44.2084C97.3145 44.2084 98.785 44.812 99.8692 45.8864C100.953 46.9609 101.562 48.4181 101.562 49.9376C101.562 51.457 100.953 52.9143 99.8692 53.9887C98.785 55.0631 97.3145 55.6667 95.7812 55.6667C94.248 55.6667 92.7775 55.0631 91.6933 53.9887C90.6091 52.9143 90 51.457 90 49.9376C90 48.4181 90.6091 46.9609 91.6933 45.8864C92.7775 44.812 94.248 44.2084 95.7812 44.2084ZM71.5 51.0834C77.6331 51.0834 83.5151 53.4978 87.8518 57.7955C92.1886 62.0933 94.625 67.9222 94.625 74.0001C94.625 80.078 92.1886 85.9069 87.8518 90.2046C83.5151 94.5023 77.6331 96.9167 71.5 96.9167C65.3669 96.9167 59.4849 94.5023 55.1482 90.2046C50.8114 85.9069 48.375 80.078 48.375 74.0001C48.375 67.9222 50.8114 62.0933 55.1482 57.7955C59.4849 53.4978 65.3669 51.0834 71.5 51.0834ZM71.5 60.2501C67.8201 60.2501 64.291 61.6987 61.6889 64.2774C59.0868 66.856 57.625 70.3534 57.625 74.0001C57.625 77.6468 59.0868 81.1442 61.6889 83.7228C64.291 86.3014 67.8201 87.7501 71.5 87.7501C75.1799 87.7501 78.709 86.3014 81.3111 83.7228C83.9132 81.1442 85.375 77.6468 85.375 74.0001C85.375 70.3534 83.9132 66.856 81.3111 64.2774C78.709 61.6987 75.1799 60.2501 71.5 60.2501Z" fill="#FFFEFE"/>
</svg>
