<svg width="160" height="161" viewBox="0 0 160 161" fill="none" xmlns="http://www.w3.org/2000/svg">
<g clip-path="url(#clip0_193_55)">
<path d="M3.41523 79.5366C3.41148 93.0638 6.95148 106.272 13.6827 117.914L2.77148 157.691L43.5415 147.017C54.818 153.147 67.4524 156.358 80.2915 156.359H80.3252C122.71 156.359 157.211 121.923 157.23 79.5972C157.238 59.0871 149.245 39.8008 134.724 25.2909C120.205 10.7821 100.896 2.78768 80.3221 2.77832C37.9327 2.77832 3.43336 37.2124 3.41586 79.5366" fill="url(#paint0_linear_193_55)"/>
<path d="M0.66875 79.5115C0.664375 93.5254 4.33125 107.206 11.3025 119.265L0 160.468L42.2319 149.412C53.8681 155.746 66.9694 159.086 80.3006 159.091H80.335C124.24 159.091 159.981 123.416 160 79.5752C160.008 58.3282 151.727 38.3486 136.688 23.3188C121.646 8.29088 101.646 0.00873643 80.335 0C36.4225 0 0.68625 35.6696 0.66875 79.5115ZM25.8194 117.188L24.2425 114.689C17.6137 104.165 14.115 92.004 14.12 79.5165C14.1337 43.0762 43.8363 13.4291 80.36 13.4291C98.0475 13.4366 114.67 20.3209 127.173 32.8116C139.674 45.3034 146.554 61.9089 146.549 79.5702C146.533 116.01 116.83 145.661 80.335 145.661H80.3088C68.4256 145.655 56.7712 142.469 46.6075 136.447L44.1888 135.015L19.1275 141.576L25.8194 117.188Z" fill="url(#paint1_linear_193_55)"/>
<path d="M60.4242 46.2708C58.933 42.9616 57.3636 42.8948 55.9455 42.8368C54.7842 42.7868 53.4567 42.7906 52.1305 42.7906C50.803 42.7906 48.6461 43.2892 46.823 45.2767C44.998 47.2661 39.8555 52.0737 39.8555 61.8516C39.8555 71.6296 46.9886 81.0799 47.983 82.4072C48.9786 83.732 61.7536 104.44 81.9861 112.406C98.8011 119.027 102.223 117.71 105.872 117.378C109.522 117.047 117.65 112.572 119.308 107.931C120.967 103.29 120.967 99.3128 120.47 98.4816C119.972 97.6535 118.645 97.1562 116.654 96.1627C114.664 95.1693 104.877 90.3605 103.052 89.6971C101.227 89.0344 99.9005 88.7037 98.573 90.6937C97.2455 92.6806 93.4336 97.1562 92.2717 98.4816C91.1111 99.8102 89.9492 99.9755 87.9592 98.9815C85.9673 97.9843 79.5567 95.8881 71.9511 89.118C66.0336 83.85 62.0386 77.3444 60.8773 75.3544C59.7161 73.3675 60.753 72.2904 61.7511 71.3001C62.6455 70.4096 63.7423 68.9793 64.7386 67.8192C65.7311 66.6585 66.0623 65.8304 66.7261 64.505C67.3905 63.1783 67.058 62.0176 66.5611 61.0235C66.0623 60.0294 62.1942 50.2003 60.4242 46.2708Z" fill="white"/>
</g>
<defs>
<linearGradient id="paint0_linear_193_55" x1="7725.68" y1="15494" x2="7725.68" y2="2.77832" gradientUnits="userSpaceOnUse">
<stop stop-color="#1FAF38"/>
<stop offset="1" stop-color="#60D669"/>
</linearGradient>
<linearGradient id="paint1_linear_193_55" x1="8000" y1="16046.8" x2="8000" y2="0" gradientUnits="userSpaceOnUse">
<stop stop-color="#F9F9F9"/>
<stop offset="1" stop-color="white"/>
</linearGradient>
<clipPath id="clip0_193_55">
<rect width="160" height="161" fill="white"/>
</clipPath>
</defs>
</svg>
