<svg width="1993" height="964" viewBox="0 0 1993 964" fill="none" xmlns="http://www.w3.org/2000/svg">
<rect y="0.286865" width="1993" height="963.713" fill="url(#paint0_linear_193_65)"/>
<g filter="url(#filter0_f_193_65)">
<path d="M786.902 0C786.902 57.3723 766.962 114.183 728.221 167.188C689.479 220.193 632.695 268.355 561.11 308.923C489.525 349.492 404.542 381.672 311.012 403.628C217.481 425.583 117.236 436.883 16 436.883V0H786.902Z" fill="url(#paint1_linear_193_65)"/>
</g>
<path d="M1527 432.634C1527 397.84 1555.21 369.634 1590 369.634H2741C2775.79 369.634 2804 397.84 2804 432.634V761.017C2804 795.811 2775.79 824.017 2741 824.017H1590C1555.21 824.017 1527 795.811 1527 761.017V432.634Z" fill="url(#paint2_linear_193_65)"/>
<defs>
<filter id="filter0_f_193_65" x="12" y="-4" width="778.902" height="444.883" filterUnits="userSpaceOnUse" color-interpolation-filters="sRGB">
<feFlood flood-opacity="0" result="BackgroundImageFix"/>
<feBlend mode="normal" in="SourceGraphic" in2="BackgroundImageFix" result="shape"/>
<feGaussianBlur stdDeviation="2" result="effect1_foregroundBlur_193_65"/>
</filter>
<linearGradient id="paint0_linear_193_65" x1="-511" y1="263.441" x2="1971.92" y2="1396.99" gradientUnits="userSpaceOnUse">
<stop/>
<stop offset="1" stop-color="#F6F6F6"/>
</linearGradient>
<linearGradient id="paint1_linear_193_65" x1="143.375" y1="-153.478" x2="578.229" y2="750.167" gradientUnits="userSpaceOnUse">
<stop offset="0.245192" stop-color="#222222" stop-opacity="0.0666667"/>
<stop offset="0.721154" stop-color="#999999"/>
</linearGradient>
<linearGradient id="paint2_linear_193_65" x1="2109.5" y1="393.119" x2="2078.75" y2="820.354" gradientUnits="userSpaceOnUse">
<stop stop-color="#D9D9D9"/>
<stop offset="1" stop-color="#737373"/>
</linearGradient>
</defs>
</svg>
