<svg width="1993" height="945" viewBox="0 0 1993 945" fill="none" xmlns="http://www.w3.org/2000/svg">
<rect x="-13" y="2.43005" width="2006" height="942" fill="black"/>
<rect x="-13" y="2.43005" width="2006" height="942" fill="url(#paint0_linear_193_49)"/>
<g filter="url(#filter0_f_193_49)">
<path d="M762.932 4C762.932 60.0797 742.862 115.61 703.868 167.421C664.873 219.232 607.719 266.309 535.667 305.963C463.615 345.617 378.077 377.073 283.936 398.534C189.796 419.994 88.8968 431.04 -13 431.04V4H762.932Z" fill="url(#paint1_linear_193_49)"/>
</g>
<g opacity="0.25">
<rect x="-13" y="2.43005" width="2006" height="942" fill="black"/>
<rect x="-13" y="2.43005" width="2006" height="942" fill="url(#paint2_linear_193_49)"/>
</g>
<g opacity="0.5">
<rect x="-13" y="2.43005" width="2006" height="942" fill="#313131"/>
<rect x="-13" y="2.43005" width="2006" height="942" fill="url(#paint3_linear_193_49)"/>
</g>
<defs>
<filter id="filter0_f_193_49" x="-17" y="0" width="783.932" height="435.04" filterUnits="userSpaceOnUse" color-interpolation-filters="sRGB">
<feFlood flood-opacity="0" result="BackgroundImageFix"/>
<feBlend mode="normal" in="SourceGraphic" in2="BackgroundImageFix" result="shape"/>
<feGaussianBlur stdDeviation="2" result="effect1_foregroundBlur_193_49"/>
</filter>
<linearGradient id="paint0_linear_193_49" x1="1993" y1="944.43" x2="-600.585" y2="-3192.52" gradientUnits="userSpaceOnUse">
<stop/>
<stop offset="1" stop-color="#F6F6F6"/>
</linearGradient>
<linearGradient id="paint1_linear_193_49" x1="115.206" y1="-146.02" x2="532.457" y2="746.818" gradientUnits="userSpaceOnUse">
<stop offset="0.245192" stop-color="#222222" stop-opacity="0.0666667"/>
<stop offset="0.721154" stop-color="#999999"/>
</linearGradient>
<linearGradient id="paint2_linear_193_49" x1="-13" y1="2.43005" x2="4774.64" y2="2563.49" gradientUnits="userSpaceOnUse">
<stop offset="0.193221"/>
<stop offset="1" stop-color="#F6F6F6"/>
</linearGradient>
<linearGradient id="paint3_linear_193_49" x1="-13" y1="2.43005" x2="4774.64" y2="2563.49" gradientUnits="userSpaceOnUse">
<stop offset="0.0913462" stop-color="#F6F6F6"/>
<stop offset="0.711538"/>
</linearGradient>
</defs>
</svg>
