<svg width="1990" height="1024" viewBox="0 0 1990 1024" fill="none" xmlns="http://www.w3.org/2000/svg">
<g clip-path="url(#clip0_88_170)">
<rect width="1990" height="1024" fill="white"/>
<rect width="1990" height="1024" fill="url(#paint0_linear_88_170)"/>
<path d="M0 -58H1990V1082H0V-58Z" fill="black"/>
<path d="M0 -58H1990V1082H0V-58Z" fill="url(#paint1_linear_88_170)"/>
<path opacity="0.5" d="M601.223 998.454C601.223 785.574 413.704 613 182.387 613C115.823 613 52.8857 627.29 -3 652.719V1050.99H597.366C599.909 1033.81 601.223 1016.27 601.223 998.454Z" fill="url(#paint2_linear_88_170)"/>
<path d="M1570.23 67.126C1461.06 167.89 1811.92 447.869 1914.54 353.267C2017.17 258.666 2012.41 253.202 2012.41 253.202L2012.41 -33.2146L1668.37 -33.2146C1668.62 -33.2094 1678.04 -32.3779 1570.23 67.126Z" fill="url(#paint3_linear_88_170)"/>
</g>
<defs>
<linearGradient id="paint0_linear_88_170" x1="2209.19" y1="1044.2" x2="1228.9" y2="-351.277" gradientUnits="userSpaceOnUse">
<stop stop-color="white" stop-opacity="0"/>
<stop offset="0.992406" stop-color="#999797"/>
</linearGradient>
<linearGradient id="paint1_linear_88_170" x1="6144.52" y1="-2664.04" x2="307.063" y2="1626.13" gradientUnits="userSpaceOnUse">
<stop stop-color="white" stop-opacity="0"/>
<stop offset="1"/>
</linearGradient>
<linearGradient id="paint2_linear_88_170" x1="-3.00001" y1="1050.99" x2="501.147" y2="598.587" gradientUnits="userSpaceOnUse">
<stop/>
<stop offset="1" stop-color="#666666" stop-opacity="0.85"/>
</linearGradient>
<linearGradient id="paint3_linear_88_170" x1="1863.34" y1="-13.6513" x2="1338.84" y2="278.027" gradientUnits="userSpaceOnUse">
<stop/>
<stop offset="1" stop-color="#737373"/>
</linearGradient>
<clipPath id="clip0_88_170">
<rect width="1990" height="1024" fill="white"/>
</clipPath>
</defs>
</svg>
