<svg width="110" height="110" viewBox="0 0 110 110" fill="none" xmlns="http://www.w3.org/2000/svg">
<path d="M96.9039 0H13.0961C9.6238 0.00323608 6.29463 1.38404 3.83934 3.83934C1.38404 6.29463 0.00323608 9.6238 0 13.0961V96.9039C0 104.133 5.87278 110 13.0961 110H96.9039C100.376 109.997 103.705 108.616 106.161 106.161C108.616 103.705 109.997 100.376 110 96.9039V13.0961C109.997 9.6238 108.616 6.29463 106.161 3.83934C103.705 1.38404 100.376 0.00323608 96.9039 0ZM86.4417 47.9906C82.587 48.3648 78.7086 47.5751 75.3072 45.7233C72.4383 44.1765 70.0015 41.9372 68.2183 39.2089V69.4222C68.2183 73.8387 66.9087 78.156 64.455 81.8281C62.0014 85.5003 58.5139 88.3623 54.4337 90.0525C50.3534 91.7426 45.8636 92.1848 41.532 91.3232C37.2004 90.4615 33.2215 88.3348 30.0986 85.2119C26.9757 82.089 24.849 78.1102 23.9874 73.7786C23.1258 69.447 23.568 64.9572 25.2581 60.8769C26.9482 56.7966 29.8103 53.3092 33.4825 50.8555C37.1546 48.4019 41.4719 47.0922 45.8883 47.0922C46.3528 47.0922 46.805 47.135 47.2633 47.1594V58.1656C46.805 58.1106 46.3589 58.025 45.8883 58.025C42.8656 58.025 39.9667 59.2258 37.8293 61.3632C35.6919 63.5006 34.4911 66.3995 34.4911 69.4222C34.4911 72.445 35.6919 75.3439 37.8293 77.4813C39.9667 79.6187 42.8656 80.8195 45.8883 80.8195C52.1828 80.8195 57.7439 75.8633 57.7439 69.5689L57.8539 18.2478H68.3833C68.8652 22.8215 70.9388 27.0805 74.2418 30.2807C77.5448 33.481 81.8672 35.4189 86.4539 35.7561V47.9906" fill="black"/>
</svg>
