<svg width="363" height="96" viewBox="0 0 363 96" fill="none" xmlns="http://www.w3.org/2000/svg">
<g clip-path="url(#clip0_1_19)" filter="url(#filter0_d_1_19)">
<rect width="350" height="80" transform="translate(0.692245) rotate(0.495789)" fill="#636CCB"/>
<path d="M118.473 27.4264L118.252 53.0192L113.84 52.9811L114.061 27.3883L118.473 27.4264ZM128.817 38.7136L128.787 42.2116L117.221 42.1115L117.251 38.6136L128.817 38.7136ZM130.373 27.5294L130.343 31.0449L117.318 30.9322L117.348 27.4167L130.373 27.5294ZM143.403 49.4223L143.481 40.3523C143.487 39.6726 143.369 39.0857 143.127 38.5914C142.885 38.0971 142.514 37.713 142.012 37.4391C141.522 37.1653 140.903 37.0252 140.153 37.0187C139.461 37.0127 138.863 37.1247 138.357 37.3547C137.851 37.5847 137.455 37.8977 137.171 38.2937C136.886 38.6897 136.741 39.1396 136.737 39.6435L132.519 39.607C132.525 38.8571 132.713 38.1321 133.082 37.4321C133.452 36.7322 133.984 36.1098 134.681 35.565C135.377 35.0203 136.207 34.5938 137.17 34.2858C138.134 33.9777 139.213 33.8288 140.409 33.8391C141.838 33.8515 143.102 34.1027 144.199 34.5927C145.308 35.0828 146.175 35.8169 146.799 36.7949C147.435 37.7614 147.747 38.9712 147.735 40.4243L147.662 48.879C147.654 49.7462 147.706 50.526 147.817 51.2184C147.94 51.8991 148.117 52.4925 148.347 52.9984L148.344 53.2796L144.003 53.2421C143.807 52.7833 143.654 52.2019 143.543 51.4978C143.444 50.7821 143.397 50.0902 143.403 49.4223ZM144.085 41.6759L144.098 44.2953L141.057 44.269C140.271 44.2622 139.579 44.3324 138.981 44.4795C138.382 44.615 137.882 44.8216 137.481 45.0994C137.08 45.3772 136.778 45.7144 136.576 46.1111C136.373 46.5078 136.27 46.9581 136.265 47.462C136.261 47.9659 136.374 48.4298 136.605 48.8537C136.835 49.2658 137.173 49.591 137.616 49.8293C138.071 50.0676 138.621 50.1895 139.265 50.1951C140.132 50.2026 140.89 50.0334 141.537 49.6874C142.196 49.3298 142.716 48.8948 143.095 48.3825C143.475 47.8584 143.678 47.3621 143.706 46.8936L145.061 48.7862C144.916 49.2654 144.671 49.779 144.327 50.3268C143.982 50.8746 143.532 51.3981 142.977 51.8972C142.434 52.3847 141.78 52.7834 141.015 53.0932C140.263 53.4031 139.394 53.5538 138.41 53.5452C137.168 53.5345 136.062 53.2788 135.094 52.7782C134.126 52.2659 133.37 51.5855 132.827 50.7371C132.283 49.8769 132.016 48.9077 132.025 47.8296C132.034 46.8219 132.229 45.9329 132.611 45.1627C133.005 44.3809 133.573 43.7296 134.316 43.2086C135.07 42.6878 135.988 42.2973 137.068 42.0371C138.148 41.7652 139.38 41.6352 140.763 41.6472L144.085 41.6759ZM159.848 50.3556C160.54 50.3616 161.162 50.2322 161.715 49.9675C162.28 49.6911 162.735 49.3083 163.079 48.8191C163.434 48.3299 163.633 47.7633 163.673 47.1191L167.664 47.1536C167.629 48.3838 167.256 49.4998 166.545 50.5015C165.833 51.5032 164.894 52.2978 163.729 52.8854C162.564 53.4613 161.278 53.7431 159.872 53.731C158.419 53.7184 157.155 53.4614 156.082 52.9599C155.008 52.4466 154.117 51.7475 153.41 50.8624C152.703 49.9774 152.173 48.9591 151.819 47.8075C151.478 46.6561 151.313 45.4242 151.324 44.1117L151.329 43.4965C151.341 42.1841 151.527 40.9552 151.889 39.8098C152.262 38.6528 152.81 37.638 153.532 36.7653C154.255 35.8926 155.157 35.2149 156.239 34.732C157.322 34.2375 158.584 33.9964 160.025 34.0089C161.548 34.0221 162.882 34.3383 164.025 34.9576C165.168 35.5652 166.063 36.4108 166.71 37.4946C167.369 38.5668 167.704 39.8119 167.715 41.23L163.725 41.1955C163.696 40.4921 163.525 39.8578 163.214 39.2925C162.914 38.7157 162.484 38.2549 161.925 37.9102C161.377 37.5656 160.716 37.39 159.943 37.3833C159.088 37.3759 158.377 37.5455 157.812 37.8922C157.246 38.2272 156.803 38.6921 156.481 39.287C156.16 39.8702 155.925 40.5303 155.778 41.2673C155.643 41.9928 155.572 42.748 155.565 43.5332L155.56 44.1484C155.553 44.9335 155.611 45.6957 155.734 46.4351C155.856 47.1745 156.073 47.8385 156.385 48.4272C156.708 49.0042 157.149 49.4709 157.708 49.8273C158.268 50.172 158.981 50.3481 159.848 50.3556ZM179.242 53.8986C177.836 53.8864 176.567 53.6469 175.434 53.1801C174.313 52.7016 173.358 52.0429 172.568 51.204C171.79 50.3652 171.195 49.3815 170.783 48.2529C170.371 47.1243 170.17 45.9096 170.182 44.6089L170.188 43.9058C170.201 42.4176 170.429 41.0718 170.873 39.8686C171.317 38.6654 171.93 37.6394 172.71 36.7906C173.491 35.9302 174.411 35.276 175.47 34.8281C176.528 34.3802 177.673 34.1616 178.903 34.1723C180.263 34.184 181.45 34.4228 182.466 34.8887C183.481 35.3545 184.319 36.0063 184.98 36.8441C185.653 37.6702 186.148 38.6531 186.466 39.7926C186.796 40.9322 186.955 42.1875 186.943 43.5586L186.928 45.3691L172.233 45.2419L172.259 42.201L182.771 42.292L182.773 41.958C182.757 41.1961 182.611 40.48 182.335 39.8096C182.071 39.1393 181.66 38.5967 181.101 38.1817C180.542 37.7666 179.794 37.5551 178.856 37.547C178.153 37.5409 177.525 37.6878 176.972 37.9877C176.43 38.276 175.975 38.6998 175.607 39.2592C175.239 39.8185 174.952 40.4957 174.746 41.2908C174.551 42.0743 174.45 42.9583 174.442 43.9426L174.435 44.6457C174.428 45.4777 174.533 46.2521 174.749 46.9688C174.978 47.6739 175.312 48.2921 175.753 48.8233C176.194 49.3545 176.729 49.7751 177.359 50.0853C177.989 50.3837 178.709 50.5364 179.517 50.5434C180.537 50.5522 181.447 50.355 182.247 49.9518C183.048 49.5485 183.744 48.9745 184.336 48.2296L186.55 50.4109C186.135 51.005 185.597 51.5746 184.936 52.1197C184.275 52.653 183.468 53.0855 182.516 53.4171C181.576 53.7488 180.484 53.9093 179.242 53.8986ZM190.412 26.6427L194.648 26.6793L194.45 49.6179L194.01 53.6748L190.179 53.6416L190.412 26.6427ZM206.908 44.1005L206.905 44.4696C206.893 45.8758 206.723 47.1693 206.397 48.3501C206.082 49.5193 205.604 50.5348 204.964 51.3965C204.336 52.2582 203.556 52.9253 202.626 53.3978C201.708 53.8586 200.646 54.0838 199.439 54.0734C198.255 54.0631 197.226 53.8315 196.351 53.3786C195.476 52.9257 194.743 52.2866 194.153 51.4611C193.574 50.6358 193.108 49.6532 192.754 48.5133C192.401 47.3735 192.154 46.1174 192.013 44.7451L192.024 43.5674C192.188 42.1859 192.457 40.9343 192.83 39.8125C193.203 38.679 193.686 37.7046 194.279 36.8894C194.884 36.0626 195.621 35.4302 196.492 34.9925C197.375 34.5548 198.402 34.341 199.574 34.3511C200.793 34.3617 201.863 34.6053 202.785 35.0821C203.718 35.5589 204.492 36.2336 205.105 37.1061C205.719 37.9669 206.173 38.9904 206.468 40.1766C206.774 41.3629 206.921 42.6709 206.908 44.1005ZM202.669 44.433L202.672 44.0638C202.679 43.2084 202.616 42.4051 202.482 41.6539C202.348 40.891 202.119 40.221 201.796 39.644C201.485 39.0671 201.055 38.6121 200.507 38.2793C199.971 37.9348 199.299 37.759 198.49 37.752C197.74 37.7455 197.095 37.8689 196.553 38.122C196.012 38.3751 195.558 38.7228 195.191 39.1649C194.824 39.6071 194.532 40.1202 194.316 40.7043C194.112 41.2885 193.972 41.9201 193.895 42.5992L193.868 45.7807C193.966 46.6605 194.181 47.471 194.515 48.2122C194.86 48.9417 195.347 49.5319 195.976 49.9827C196.605 50.4217 197.418 50.6456 198.414 50.6542C199.199 50.661 199.862 50.5085 200.404 50.1968C200.946 49.8851 201.377 49.4493 201.699 48.8896C202.032 48.3182 202.272 47.6523 202.419 46.8918C202.578 46.1315 202.661 45.3118 202.669 44.433ZM209.682 44.5112L209.686 44.107C209.697 42.7359 209.908 41.4662 210.316 40.2978C210.725 39.1177 211.308 38.0973 212.065 37.2367C212.835 36.3644 213.766 35.6927 214.86 35.2217C215.966 34.7391 217.21 34.5037 218.593 34.5157C219.988 34.5278 221.228 34.7846 222.313 35.2862C223.411 35.7762 224.336 36.4639 225.09 37.3494C225.845 38.2231 226.416 39.2535 226.804 40.4405C227.192 41.6158 227.38 42.8889 227.369 44.26L227.365 44.6643C227.353 46.0353 227.143 47.305 226.734 48.4734C226.326 49.6418 225.737 50.6621 224.968 51.5344C224.198 52.395 223.267 53.0666 222.173 53.5493C221.079 54.0204 219.84 54.2499 218.458 54.2379C217.063 54.2259 215.817 53.9748 214.72 53.4849C213.634 52.9833 212.714 52.2956 211.96 51.4218C211.206 50.5364 210.635 49.506 210.247 48.3307C209.858 47.1554 209.67 45.8823 209.682 44.5112ZM213.922 44.1436L213.918 44.5479C213.911 45.4033 213.992 46.2127 214.161 46.9759C214.33 47.7391 214.6 48.4094 214.97 48.9868C215.34 49.5643 215.816 50.0196 216.399 50.3528C216.982 50.686 217.678 50.8561 218.487 50.8631C219.272 50.8698 219.953 50.7117 220.53 50.3885C221.119 50.0655 221.603 49.6185 221.983 49.0475C222.363 48.4766 222.644 47.811 222.827 47.0509C223.021 46.2908 223.121 45.483 223.129 44.6276L223.132 44.2233C223.14 43.3796 223.053 42.5819 222.872 41.8303C222.703 41.0671 222.427 40.3909 222.046 39.8016C221.676 39.2125 221.199 38.7513 220.616 38.4181C220.045 38.0733 219.361 37.8975 218.564 37.8906C217.767 37.8837 217.074 38.0476 216.485 38.3824C215.908 38.7055 215.43 39.1584 215.05 39.7411C214.67 40.3238 214.388 40.9952 214.206 41.7554C214.024 42.5038 213.929 43.2999 213.922 44.1436ZM230.107 44.688L230.111 44.2837C230.122 42.9127 230.333 41.6429 230.741 40.4746C231.15 39.2945 231.733 38.2741 232.49 37.4134C233.26 36.5411 234.191 35.8695 235.285 35.3985C236.391 34.9158 237.635 34.6805 239.018 34.6925C240.413 34.7045 241.653 34.9614 242.738 35.463C243.836 35.9529 244.761 36.6407 245.515 37.5261C246.27 38.3999 246.841 39.4302 247.229 40.6172C247.617 41.7925 247.805 43.0657 247.794 44.4367L247.79 44.841C247.778 46.212 247.568 47.4818 247.159 48.6501C246.751 49.8185 246.162 50.8389 245.393 51.7111C244.623 52.5717 243.692 53.2434 242.598 53.7261C241.504 54.1971 240.265 54.4266 238.883 54.4147C237.488 54.4026 236.242 54.1516 235.145 53.6616C234.059 53.16 233.139 52.4723 232.385 51.5986C231.631 50.7131 231.06 49.6827 230.672 48.5075C230.283 47.3322 230.095 46.059 230.107 44.688ZM234.347 44.3204L234.343 44.7246C234.336 45.5801 234.417 46.3894 234.586 47.1526C234.755 47.9158 235.025 48.5862 235.395 49.1636C235.765 49.741 236.241 50.1963 236.824 50.5295C237.407 50.8627 238.103 51.0328 238.912 51.0398C239.697 51.0466 240.378 50.8884 240.955 50.5653C241.544 50.2422 242.028 49.7952 242.408 49.2243C242.788 48.6533 243.069 47.9878 243.252 47.2276C243.446 46.4675 243.546 45.6598 243.554 44.8043L243.557 44.4001C243.565 43.5563 243.478 42.7587 243.297 42.0071C243.128 41.2439 242.852 40.5676 242.471 39.9784C242.101 39.3892 241.624 38.9281 241.041 38.5949C240.47 38.2501 239.786 38.0742 238.989 38.0673C238.192 38.0604 237.499 38.2244 236.91 38.5591C236.333 38.8823 235.855 39.3352 235.475 39.9178C235.095 40.5005 234.813 41.1719 234.631 41.9321C234.449 42.6806 234.354 43.4766 234.347 44.3204ZM255.765 27.2082L255.532 54.2072L251.278 54.1704L251.511 27.1714L255.765 27.2082ZM267.508 35.2906L259.15 44.3944L254.575 48.9956L253.498 45.4002L256.963 41.1937L262.393 35.2463L267.508 35.2906ZM263.143 54.273L257.05 45.2903L259.748 42.3428L268.047 54.3155L263.143 54.273Z" fill="white"/>
<path d="M79.5098 40.6835C79.6491 24.5841 66.696 11.4049 50.5966 11.2656C34.4972 11.1263 21.318 24.0794 21.1787 40.1788C21.0565 54.2949 30.9878 66.1355 44.2638 68.9629L44.4354 49.1304L38.6023 49.0799L38.678 40.3302L44.5111 40.3807L44.5742 33.0893C44.6229 27.4603 49.2416 22.921 54.8705 22.9697L62.1619 23.0328L62.0862 31.7824L56.2531 31.732C54.649 31.7181 53.3252 33.0192 53.3113 34.6233L53.2608 40.4564L62.0105 40.5321L61.9348 49.2818L53.1851 49.2061L53.0097 69.4761C67.7509 68.1453 79.3788 55.8205 79.5098 40.6835Z" fill="white"/>
<path d="M325.873 54.8159L315.331 44.0803L304.605 54.6318L302.252 52.2386L312.994 41.7039L302.435 30.9849L304.83 28.6328L315.372 39.3684L326.097 28.8335L328.434 31.2099L317.709 41.7447L328.251 52.4636L325.873 54.8159Z" fill="white"/>
</g>
<defs>
<filter id="filter0_d_1_19" x="0" y="0" width="362.679" height="95.0256" filterUnits="userSpaceOnUse" color-interpolation-filters="sRGB">
<feFlood flood-opacity="0" result="BackgroundImageFix"/>
<feColorMatrix in="SourceAlpha" type="matrix" values="0 0 0 0 0 0 0 0 0 0 0 0 0 0 0 0 0 0 127 0" result="hardAlpha"/>
<feOffset dx="7" dy="7"/>
<feGaussianBlur stdDeviation="2.5"/>
<feComposite in2="hardAlpha" operator="out"/>
<feColorMatrix type="matrix" values="0 0 0 0 0 0 0 0 0 0 0 0 0 0 0 0 0 0 0.5 0"/>
<feBlend mode="normal" in2="BackgroundImageFix" result="effect1_dropShadow_1_19"/>
<feBlend mode="normal" in="SourceGraphic" in2="effect1_dropShadow_1_19" result="shape"/>
</filter>
<clipPath id="clip0_1_19">
<rect width="350" height="80" fill="white" transform="translate(0.692245) rotate(0.495789)"/>
</clipPath>
</defs>
</svg>
